<?xml version="1.0" encoding="utf-8"?>
<!-- Generator: Adobe Illustrator 16.0.0, SVG Export Plug-In . SVG Version: 6.00 Build 0)  -->
<!DOCTYPE svg PUBLIC "-//W3C//DTD SVG 1.1//EN" "http://www.w3.org/Graphics/SVG/1.1/DTD/svg11.dtd">
<svg version="1.1" id="Layer_1" xmlns="http://www.w3.org/2000/svg" xmlns:xlink="http://www.w3.org/1999/xlink" x="0px" y="0px"
	 width="100px" height="65px" viewBox="0 0 100 65" enable-background="new 0 0 100 65" xml:space="preserve">
<g>
	<path fill="#FFFFFF" d="M18.124,52.081c-1.262,1.959-3.893,3.49-7.034,3.49c-5.665,0-9.907-4.217-9.907-9.986
		c0-5.773,4.242-9.988,9.907-9.988c2.362,0,4.914,0.886,6.578,3.007l-1.691,1.263c-0.752-1.235-2.873-2.497-4.886-2.497
		c-4.887,0-7.813,3.839-7.813,8.216c0,4.375,2.926,8.213,7.813,8.213c1.986,0,4.027-0.644,5.45-2.846L18.124,52.081z"/>
	<rect x="20.486" y="34.792" fill="#FFFFFF" width="1.772" height="20.295"/>
	<path fill="#FFFFFF" d="M27.118,49.289c0.214,2.522,2.121,4.509,4.618,4.509c1.879,0,3.329-1.047,4.027-2.174l1.369,1.127
		c-1.477,1.879-3.329,2.658-5.396,2.658c-3.732,0-6.498-2.818-6.498-6.604c0-3.786,2.765-6.604,6.336-6.604
		c3.812,0.025,6.014,2.845,6.014,6.281v0.806H27.118z M35.655,47.84c0-2.389-1.53-4.027-4.081-4.027
		c-2.309,0-4.403,1.96-4.403,4.027H35.655z"/>
	<path fill="#FFFFFF" d="M48.22,47.384v-0.322c0-2.175-1.047-3.249-3.222-3.249c-1.477,0-2.765,0.51-3.839,1.478l-1.074-1.263
		c1.154-1.182,2.953-1.825,5.316-1.825c2.47,0,4.591,1.396,4.591,4.457v5.609c0,0.965,0.107,2.146,0.215,2.818h-1.718
		c-0.107-0.617-0.161-1.369-0.161-2.041h-0.054c-1.021,1.666-2.417,2.363-4.43,2.363c-2.229,0-4.323-1.234-4.323-3.679
		c0-4.08,4.806-4.348,7.813-4.348L48.22,47.384L48.22,47.384z M47.308,48.834c-1.799,0-5.853,0.134-5.853,2.655
		c0,1.666,1.53,2.309,2.953,2.309c2.578,0,3.812-1.825,3.812-4.053v-0.911H47.308z"/>
	<path fill="#FFFFFF" d="M55.146,42.523c0.08,0.671,0.08,1.344,0.08,2.015h0.056c0.778-1.369,2.55-2.336,4.215-2.336
		c3.194,0,4.726,1.799,4.726,4.914v7.971H62.45v-6.951c0-2.792-0.778-4.323-3.41-4.323c-0.375,0-3.812,0.242-3.812,4.833v6.441
		h-1.771V45.29c0-0.671-0.081-1.854-0.134-2.767H55.146z"/>
	<path fill="#FFFFFF" d="M81.717,45.427h-8.648l-0.692,4.277c0.603-0.181,1.587-0.271,2.347-0.271c4.217,0,6.77,2.791,6.159,7.13
		c-0.649,4.613-4.415,7.436-8.815,7.436c-3.398,0-5.723-1.608-6.258-4.916l3.969-1.033c0.269,1.55,1.32,2.488,3.171,2.488
		c2.186,0,3.954-1.578,4.249-3.672c0.423-3.006-1.783-4.158-4.453-4.158c-1.578,0-3.271,0.396-4.637,1.031l1.842-11.59h12.23
		L81.717,45.427z"/>
	<path fill="#FFFFFF" d="M92.366,41.785c2.397,0,7.638,0.94,6.208,11.106s-6.934,11.107-9.331,11.107s-7.638-0.941-6.207-11.107
		C84.465,42.726,89.969,41.785,92.366,41.785 M89.73,60.538c3.642,0,4.826-4.977,5.201-7.646s0.59-7.646-3.053-7.646
		s-4.827,4.977-5.203,7.646C86.302,55.562,86.088,60.538,89.73,60.538"/>
	<path fill="#FFFFFF" d="M3.393,62.112c-0.584,0-0.693-0.607-0.552-1.334c0.141-0.725,0.486-1.336,1.071-1.336
		s0.693,0.611,0.552,1.336C4.323,61.505,3.978,62.112,3.393,62.112 M3.862,59.702c-0.374,0-0.577,0.541-0.679,1.068
		c-0.102,0.521-0.119,1.059,0.266,1.059c0.389,0,0.576-0.537,0.677-1.059C4.229,60.243,4.235,59.702,3.862,59.702"/>
	<path fill="#FFFFFF" d="M5.256,62.116c-0.412,0-0.585-0.215-0.497-0.67l0.273-1.404H5.35l-0.28,1.441
		c-0.049,0.252,0.05,0.385,0.253,0.385c0.121,0,0.222-0.035,0.303-0.08l0.339-1.746h0.313l-0.371,1.904
		C5.766,62.036,5.543,62.116,5.256,62.116"/>
	<path fill="#FFFFFF" d="M6.875,62.089c-0.26,0-0.404-0.172-0.338-0.512l0.255-1.31H6.611l0.043-0.228h0.181l0.09-0.467l0.333-0.117
		L7.144,60.04H7.45l-0.044,0.228H7.102l-0.25,1.285c-0.042,0.215,0.03,0.291,0.151,0.291c0.034,0,0.069-0.009,0.101-0.017
		l-0.045,0.23C7.025,62.075,6.951,62.089,6.875,62.089"/>
	<path fill="#FFFFFF" d="M7.754,62.112c-0.204,0-0.35-0.045-0.438-0.15l0.13-0.241c0.055,0.067,0.16,0.129,0.322,0.129
		c0.163,0,0.313-0.113,0.345-0.279c0.041-0.207-0.045-0.291-0.208-0.426c-0.164-0.144-0.332-0.328-0.278-0.604
		c0.059-0.301,0.319-0.535,0.621-0.535c0.189,0,0.325,0.058,0.409,0.15l-0.124,0.211c-0.052-0.061-0.151-0.117-0.287-0.117
		c-0.144,0-0.272,0.121-0.299,0.263C7.91,60.7,8.022,60.805,8.178,60.934c0.181,0.153,0.332,0.312,0.271,0.625
		C8.385,61.876,8.079,62.112,7.754,62.112"/>
	<path fill="#FFFFFF" d="M9.256,62.089c-0.261,0-0.404-0.172-0.339-0.512l0.255-1.31H8.991l0.044-0.228h0.181l0.091-0.467
		l0.333-0.117L9.526,60.04h0.306l-0.044,0.228H9.482l-0.25,1.285c-0.042,0.215,0.03,0.291,0.151,0.291
		c0.034,0,0.069-0.009,0.102-0.017l-0.045,0.23C9.406,62.075,9.332,62.089,9.256,62.089"/>
	<path fill="#FFFFFF" d="M10.357,62.112c-0.445,0-0.612-0.244-0.542-0.611c0.104-0.539,0.573-0.696,1.092-0.762l0.019-0.098
		c0.056-0.287-0.07-0.395-0.277-0.395c-0.166,0-0.333,0.062-0.435,0.119l-0.031-0.212c0.115-0.067,0.32-0.149,0.558-0.149
		c0.317,0,0.576,0.162,0.478,0.666l-0.25,1.291C10.814,62.052,10.61,62.112,10.357,62.112 M10.867,60.944
		c-0.431,0.062-0.68,0.176-0.753,0.555c-0.051,0.263,0.062,0.398,0.307,0.398c0.103,0,0.209-0.025,0.268-0.057L10.867,60.944z"/>
	<path fill="#FFFFFF" d="M12.356,62.075l0.286-1.471c0.047-0.242-0.046-0.365-0.265-0.365c-0.154,0-0.231,0.025-0.313,0.061
		l-0.345,1.775h-0.312l0.373-1.92c0.173-0.094,0.392-0.15,0.671-0.15c0.377,0,0.589,0.17,0.506,0.601l-0.286,1.472h-0.314V62.075z"
		/>
	<path fill="#FFFFFF" d="M13.832,62.112c-0.502,0-0.685-0.4-0.562-1.029c0.131-0.676,0.525-1.065,0.962-1.065
		c0.098,0,0.178,0.019,0.234,0.037l0.183-0.938h0.313l-0.553,2.848C14.278,62.05,14.077,62.112,13.832,62.112 M14.425,60.265
		c-0.05-0.016-0.104-0.029-0.179-0.029c-0.381,0-0.577,0.402-0.658,0.822c-0.093,0.479-0.026,0.814,0.306,0.814
		c0.079,0,0.163-0.004,0.227-0.043L14.425,60.265z"/>
	<path fill="#FFFFFF" d="M14.861,62.075l0.395-2.033h0.317l-0.395,2.033H14.861z M15.492,59.647c-0.102,0-0.169-0.084-0.149-0.186
		c0.021-0.105,0.119-0.187,0.221-0.187s0.169,0.08,0.148,0.187C15.692,59.563,15.593,59.647,15.492,59.647"/>
	<path fill="#FFFFFF" d="M16.608,62.075l0.286-1.471c0.047-0.242-0.046-0.365-0.264-0.365c-0.155,0-0.232,0.025-0.314,0.061
		l-0.346,1.775h-0.313l0.373-1.92c0.174-0.094,0.392-0.15,0.671-0.15c0.377,0,0.589,0.17,0.506,0.601l-0.286,1.472h-0.313V62.075z"
		/>
	<path fill="#FFFFFF" d="M17.801,62.923c-0.25,0-0.422-0.062-0.522-0.15l0.144-0.232c0.064,0.056,0.21,0.119,0.38,0.119
		c0.294,0,0.455-0.223,0.511-0.516l0.024-0.125c-0.099,0.064-0.213,0.09-0.35,0.09c-0.404,0-0.591-0.391-0.472-1.006
		c0.126-0.652,0.477-1.098,1.005-1.098c0.256,0,0.402,0.067,0.487,0.149l-0.379,1.953C18.531,62.622,18.22,62.923,17.801,62.923
		 M18.676,60.288c-0.044-0.026-0.124-0.045-0.218-0.045c-0.325,0-0.526,0.334-0.625,0.848c-0.089,0.457-0.007,0.791,0.269,0.791
		c0.075,0,0.152-0.006,0.278-0.069L18.676,60.288z"/>
	<path fill="#FFFFFF" d="M20.882,62.112c-0.536,0-0.713-0.58-0.567-1.334c0.138-0.709,0.554-1.336,1.098-1.336
		c0.204,0,0.333,0.057,0.42,0.152l-0.122,0.217c-0.055-0.049-0.15-0.102-0.301-0.102c-0.396,0-0.642,0.528-0.748,1.067
		c-0.102,0.527-0.045,1.052,0.332,1.052c0.151,0,0.27-0.05,0.349-0.105l0.033,0.238C21.271,62.052,21.101,62.112,20.882,62.112"/>
	<path fill="#FFFFFF" d="M22.232,62.112c-0.483,0-0.592-0.467-0.479-1.051c0.116-0.598,0.406-1.057,0.885-1.057
		c0.483,0,0.59,0.459,0.474,1.057C22.999,61.646,22.712,62.112,22.232,62.112 M22.599,60.231c-0.306,0-0.448,0.418-0.527,0.824
		c-0.079,0.408-0.088,0.805,0.21,0.805c0.301,0,0.438-0.396,0.518-0.805C22.879,60.649,22.9,60.231,22.599,60.231"/>
	<path fill="#FFFFFF" d="M24.278,62.075l0.286-1.471c0.047-0.242-0.046-0.365-0.265-0.365c-0.154,0-0.231,0.025-0.314,0.061
		l-0.345,1.775h-0.313l0.374-1.92c0.173-0.094,0.391-0.15,0.671-0.15c0.377,0,0.589,0.17,0.506,0.601l-0.286,1.472h-0.314V62.075z"
		/>
	<path fill="#FFFFFF" d="M25.583,62.089c-0.26,0-0.404-0.172-0.338-0.512l0.254-1.31h-0.181l0.044-0.228h0.181l0.091-0.467
		l0.333-0.117l-0.114,0.584h0.306l-0.044,0.228h-0.306l-0.25,1.285c-0.042,0.215,0.03,0.291,0.151,0.291
		c0.034,0,0.069-0.009,0.101-0.017l-0.045,0.23C25.733,62.075,25.658,62.089,25.583,62.089"/>
	<path fill="#FFFFFF" d="M27.153,60.284c-0.125-0.057-0.279-0.041-0.393,0.021l-0.344,1.77h-0.313l0.373-1.92
		c0.198-0.105,0.371-0.158,0.807-0.15L27.153,60.284z"/>
	<path fill="#FFFFFF" d="M27.178,62.075l0.395-2.033h0.317l-0.395,2.033H27.178z M27.809,59.647c-0.103,0-0.169-0.084-0.149-0.186
		c0.021-0.105,0.119-0.187,0.221-0.187c0.101,0,0.169,0.08,0.148,0.187C28.01,59.563,27.911,59.647,27.809,59.647"/>
	<path fill="#FFFFFF" d="M28.491,62.112c-0.265,0-0.41-0.068-0.495-0.15l0.553-2.848h0.313l-0.191,0.98
		c0.073-0.045,0.189-0.078,0.34-0.078c0.404,0,0.593,0.389,0.474,0.998C29.359,61.667,29.012,62.112,28.491,62.112 M28.902,60.231
		c-0.087,0-0.172,0.012-0.27,0.066l-0.298,1.535c0.045,0.022,0.124,0.043,0.211,0.043c0.34,0,0.533-0.355,0.628-0.847
		C29.258,60.593,29.197,60.231,28.902,60.231"/>
	<path fill="#FFFFFF" d="M30.309,62.116c-0.412,0-0.585-0.215-0.496-0.67l0.272-1.404h0.317l-0.28,1.441
		c-0.049,0.252,0.05,0.385,0.253,0.385c0.121,0,0.222-0.035,0.302-0.08l0.339-1.746h0.313l-0.37,1.904
		C30.819,62.036,30.596,62.116,30.309,62.116"/>
	<path fill="#FFFFFF" d="M31.929,62.089c-0.261,0-0.404-0.172-0.339-0.512l0.255-1.31h-0.181l0.044-0.228h0.181l0.091-0.467
		l0.333-0.117l-0.114,0.584h0.306l-0.044,0.228h-0.305l-0.25,1.285c-0.042,0.215,0.03,0.291,0.15,0.291
		c0.034,0,0.07-0.009,0.101-0.017l-0.045,0.23C32.079,62.075,32.004,62.089,31.929,62.089"/>
	<path fill="#FFFFFF" d="M33.044,62.112c-0.483,0-0.592-0.467-0.479-1.051c0.116-0.598,0.406-1.057,0.885-1.057
		c0.483,0,0.59,0.459,0.474,1.057C33.811,61.646,33.524,62.112,33.044,62.112 M33.411,60.231c-0.306,0-0.448,0.418-0.527,0.824
		c-0.08,0.408-0.088,0.805,0.21,0.805c0.301,0,0.439-0.396,0.518-0.805C33.691,60.649,33.712,60.231,33.411,60.231"/>
	<path fill="#FFFFFF" d="M35.188,60.284c-0.125-0.057-0.279-0.041-0.394,0.021l-0.344,1.77h-0.313l0.373-1.92
		c0.198-0.105,0.37-0.158,0.807-0.15L35.188,60.284z"/>
	<path fill="#FFFFFF" d="M35.557,62.112c-0.204,0-0.35-0.045-0.438-0.15l0.13-0.241c0.054,0.067,0.16,0.129,0.322,0.129
		c0.162,0,0.313-0.113,0.345-0.279c0.04-0.207-0.046-0.291-0.208-0.426c-0.165-0.144-0.333-0.328-0.279-0.604
		c0.059-0.301,0.319-0.535,0.621-0.535c0.188,0,0.325,0.058,0.409,0.15l-0.124,0.211c-0.052-0.061-0.151-0.117-0.287-0.117
		c-0.143,0-0.272,0.121-0.299,0.263c-0.037,0.188,0.075,0.293,0.231,0.422c0.182,0.153,0.332,0.312,0.271,0.625
		C36.188,61.876,35.881,62.112,35.557,62.112"/>
	<path fill="#FFFFFF" d="M38.059,62.089c-0.26,0-0.404-0.172-0.338-0.512l0.255-1.31h-0.182l0.044-0.228h0.181l0.091-0.467
		l0.333-0.117l-0.114,0.584h0.306l-0.044,0.228h-0.306l-0.25,1.285c-0.042,0.215,0.03,0.291,0.15,0.291
		c0.035,0,0.07-0.009,0.102-0.017l-0.045,0.23C38.209,62.075,38.134,62.089,38.059,62.089"/>
	<path fill="#FFFFFF" d="M39.175,62.112c-0.483,0-0.592-0.467-0.479-1.051c0.116-0.598,0.405-1.057,0.885-1.057
		c0.483,0,0.59,0.459,0.474,1.057C39.941,61.646,39.654,62.112,39.175,62.112 M39.541,60.231c-0.306,0-0.448,0.418-0.527,0.824
		c-0.08,0.408-0.088,0.805,0.21,0.805c0.302,0,0.439-0.396,0.518-0.805C39.822,60.649,39.843,60.231,39.541,60.231"/>
	<path fill="#FFFFFF" d="M42.053,62.112c-0.536,0-0.713-0.58-0.567-1.334c0.138-0.709,0.554-1.336,1.098-1.336
		c0.204,0,0.333,0.057,0.42,0.152l-0.122,0.217c-0.054-0.049-0.15-0.102-0.301-0.102c-0.396,0-0.642,0.528-0.747,1.067
		c-0.103,0.527-0.046,1.052,0.331,1.052c0.151,0,0.27-0.05,0.349-0.105l0.033,0.238C42.442,62.052,42.272,62.112,42.053,62.112"/>
	<polygon fill="#FFFFFF" points="42.875,62.075 43.45,59.114 43.764,59.114 43.188,62.075 	"/>
	<path fill="#FFFFFF" d="M44.098,61.181c-0.062,0.438,0.07,0.672,0.364,0.672c0.208,0,0.368-0.068,0.455-0.125l0.034,0.234
		c-0.122,0.082-0.328,0.149-0.562,0.149c-0.46,0-0.711-0.336-0.571-1.059c0.131-0.677,0.491-1.05,0.906-1.05
		c0.43,0,0.611,0.351,0.46,1.05L44.098,61.181z M44.667,60.249c-0.227,0-0.45,0.263-0.541,0.722l0.771-0.099
		C44.971,60.454,44.894,60.249,44.667,60.249"/>
	<path fill="#FFFFFF" d="M45.897,62.112c-0.445,0-0.613-0.244-0.542-0.611c0.104-0.539,0.573-0.696,1.091-0.762l0.019-0.098
		c0.056-0.287-0.07-0.395-0.278-0.395c-0.166,0-0.333,0.062-0.435,0.119l-0.03-0.212c0.115-0.067,0.32-0.149,0.557-0.149
		c0.317,0,0.577,0.162,0.479,0.666l-0.251,1.291C46.354,62.052,46.149,62.112,45.897,62.112 M46.408,60.944
		c-0.432,0.062-0.68,0.176-0.754,0.555c-0.051,0.263,0.062,0.398,0.308,0.398c0.102,0,0.209-0.025,0.268-0.057L46.408,60.944z"/>
	<path fill="#FFFFFF" d="M47.896,62.075l0.286-1.471c0.047-0.242-0.046-0.365-0.265-0.365c-0.155,0-0.231,0.025-0.314,0.061
		l-0.345,1.775h-0.313l0.373-1.92c0.173-0.094,0.392-0.15,0.671-0.15c0.377,0,0.589,0.17,0.505,0.601l-0.284,1.47H47.896z"/>
	<path fill="#FFFFFF" d="M50.454,62.112c-0.536,0-0.713-0.58-0.566-1.334c0.138-0.709,0.553-1.336,1.096-1.336
		c0.205,0,0.334,0.057,0.42,0.152l-0.12,0.217c-0.056-0.049-0.15-0.102-0.302-0.102c-0.396,0-0.644,0.528-0.748,1.067
		c-0.103,0.527-0.046,1.052,0.332,1.052c0.15,0,0.271-0.05,0.35-0.105l0.032,0.238C50.844,62.052,50.673,62.112,50.454,62.112"/>
	<path fill="#FFFFFF" d="M51.789,62.112c-0.443,0-0.612-0.244-0.54-0.611c0.104-0.539,0.571-0.696,1.092-0.762l0.019-0.098
		c0.056-0.287-0.069-0.395-0.277-0.395c-0.166,0-0.334,0.062-0.436,0.119l-0.03-0.212c0.114-0.067,0.319-0.149,0.558-0.149
		c0.317,0,0.577,0.162,0.479,0.666l-0.25,1.291C52.247,62.052,52.043,62.112,51.789,62.112 M52.3,60.944
		c-0.431,0.062-0.68,0.176-0.753,0.555c-0.051,0.263,0.062,0.398,0.309,0.398c0.101,0,0.209-0.025,0.268-0.057L52.3,60.944z"/>
	<path fill="#FFFFFF" d="M53.387,62.108c-0.099,0-0.173-0.021-0.229-0.041l-0.16,0.818H52.68l0.532-2.73
		c0.146-0.09,0.343-0.15,0.575-0.15c0.503,0,0.688,0.396,0.562,1.029C54.219,61.708,53.824,62.108,53.387,62.108 M53.732,60.231
		c-0.105,0-0.178,0.018-0.232,0.049l-0.305,1.568c0.046,0.016,0.099,0.033,0.179,0.033c0.381,0,0.581-0.426,0.659-0.828
		C54.121,60.601,54.068,60.231,53.732,60.231"/>
	<path fill="#FFFFFF" d="M54.568,62.075l0.396-2.033h0.316l-0.395,2.033H54.568z M55.201,59.647c-0.104,0-0.17-0.084-0.149-0.186
		c0.021-0.105,0.118-0.187,0.22-0.187c0.104,0,0.17,0.08,0.149,0.187C55.4,59.563,55.303,59.647,55.201,59.647"/>
	<path fill="#FFFFFF" d="M55.898,62.089c-0.262,0-0.404-0.172-0.338-0.512l0.254-1.31h-0.182l0.044-0.228h0.183l0.091-0.467
		l0.332-0.117l-0.113,0.584h0.306l-0.045,0.228h-0.305l-0.25,1.285c-0.042,0.215,0.029,0.291,0.15,0.291
		c0.035,0,0.068-0.009,0.102-0.017l-0.045,0.23C56.049,62.075,55.975,62.089,55.898,62.089"/>
	<path fill="#FFFFFF" d="M57,62.112c-0.445,0-0.613-0.244-0.542-0.611c0.104-0.539,0.573-0.696,1.091-0.762l0.02-0.098
		c0.057-0.287-0.069-0.395-0.276-0.395c-0.166,0-0.334,0.062-0.437,0.119l-0.028-0.212c0.114-0.067,0.319-0.149,0.557-0.149
		c0.317,0,0.576,0.162,0.479,0.666l-0.252,1.291C57.457,62.052,57.252,62.112,57,62.112 M57.51,60.944
		c-0.432,0.062-0.68,0.176-0.753,0.555c-0.051,0.263,0.062,0.398,0.308,0.398c0.103,0,0.209-0.025,0.269-0.057L57.51,60.944z"/>
	<polygon fill="#FFFFFF" points="58.07,62.075 58.646,59.114 58.959,59.114 58.384,62.075 	"/>
	<path fill="#FFFFFF" d="M58.882,62.075l0.396-2.033h0.316l-0.395,2.033H58.882z M59.514,59.647c-0.104,0-0.17-0.084-0.15-0.186
		c0.021-0.105,0.119-0.187,0.222-0.187s0.169,0.08,0.149,0.187C59.713,59.563,59.613,59.647,59.514,59.647"/>
	<path fill="#FFFFFF" d="M60.036,62.112c-0.203,0-0.351-0.045-0.438-0.15l0.131-0.241c0.056,0.067,0.16,0.129,0.321,0.129
		c0.163,0,0.313-0.113,0.347-0.279c0.039-0.207-0.047-0.291-0.209-0.426c-0.164-0.144-0.332-0.328-0.278-0.604
		c0.059-0.301,0.319-0.535,0.62-0.535c0.189,0,0.326,0.058,0.408,0.15l-0.123,0.211c-0.053-0.061-0.15-0.117-0.287-0.117
		c-0.145,0-0.272,0.121-0.299,0.263c-0.037,0.188,0.074,0.293,0.229,0.422c0.183,0.153,0.332,0.312,0.271,0.625
		C60.667,61.876,60.361,62.112,60.036,62.112"/>
	<path fill="#FFFFFF" d="M62.904,62.075l0.285-1.471c0.045-0.23-0.051-0.361-0.244-0.361c-0.127,0-0.243,0.053-0.35,0.156
		l-0.326,1.676h-0.312l0.284-1.467c0.042-0.211-0.062-0.369-0.278-0.369c-0.136,0-0.211,0.018-0.299,0.057l-0.345,1.779h-0.313
		l0.373-1.92c0.169-0.094,0.347-0.15,0.638-0.15c0.271,0,0.416,0.095,0.479,0.224c0.161-0.147,0.338-0.224,0.576-0.224
		c0.306,0,0.51,0.211,0.435,0.601l-0.285,1.472h-0.318V62.075z"/>
	<path fill="#FFFFFF" d="M44.694,41.693h0.151l-0.041-1.524c0.004-0.149,0.067-0.208,0.202-0.192
		c0.539,0.094,1.077,0.189,1.616,0.284c-0.057-0.186-0.114-0.371-0.171-0.556c-0.033-0.101-0.029-0.209,0.05-0.273
		c0.569-0.431,1.138-0.861,1.707-1.292c-0.131-0.058-0.263-0.115-0.394-0.172c-0.074-0.041-0.121-0.107-0.101-0.162
		c0.121-0.377,0.242-0.754,0.363-1.131c-0.31,0.084-0.62,0.168-0.929,0.252c-0.081,0.019-0.144,0.001-0.171-0.051
		c-0.078-0.155-0.155-0.311-0.232-0.464c-0.256,0.275-0.548,0.586-0.803,0.861c-0.114,0.112-0.237,0.018-0.217-0.073
		c0.142-0.664,0.283-1.327,0.424-1.99c-0.209,0.127-0.417,0.255-0.626,0.384c-0.096,0.059-0.157,0.047-0.182,0
		c-0.215-0.435-0.431-0.869-0.646-1.303c-0.215,0.434-0.43,0.868-0.646,1.303c-0.024,0.048-0.085,0.059-0.182,0
		c-0.209-0.128-0.418-0.256-0.626-0.384c0.142,0.663,0.283,1.327,0.424,1.99c0.02,0.091-0.103,0.187-0.216,0.073
		c-0.256-0.275-0.548-0.586-0.804-0.861c-0.078,0.154-0.155,0.31-0.232,0.464c-0.028,0.053-0.091,0.069-0.172,0.051
		c-0.309-0.084-0.619-0.168-0.929-0.252c0.122,0.377,0.242,0.754,0.363,1.131c0.021,0.054-0.026,0.121-0.101,0.161
		c-0.131,0.057-0.263,0.115-0.394,0.172c0.569,0.431,1.138,0.862,1.708,1.292c0.08,0.064,0.083,0.173,0.05,0.273
		c-0.057,0.185-0.114,0.371-0.171,0.556c0.538-0.094,1.077-0.188,1.615-0.283c0.135-0.017,0.198,0.042,0.202,0.192l-0.04,1.523
		L44.694,41.693L44.694,41.693z"/>
	<path fill="#FFFFFF" d="M25.948,39.394v-0.305l0.39-0.379c0.94-0.895,1.364-1.37,1.37-1.923c0-0.374-0.181-0.72-0.73-0.72
		c-0.333,0-0.611,0.17-0.78,0.312l-0.159-0.352c0.255-0.215,0.617-0.374,1.042-0.374c0.792,0,1.126,0.543,1.126,1.069
		c0,0.679-0.492,1.229-1.268,1.975l-0.294,0.271v0.011h1.652v0.413L25.948,39.394L25.948,39.394z"/>
	<path fill="#FFFFFF" d="M31.296,37.516c0,1.25-0.464,1.941-1.279,1.941c-0.718,0-1.204-0.673-1.216-1.891
		c0-1.232,0.532-1.913,1.279-1.913C30.854,35.653,31.296,36.344,31.296,37.516 M29.298,37.571c0,0.957,0.294,1.5,0.747,1.5
		c0.509,0,0.752-0.594,0.752-1.533c0-0.905-0.232-1.499-0.747-1.499C29.615,36.039,29.298,36.57,29.298,37.571"/>
	<polygon fill="#FFFFFF" points="32.835,36.18 32.824,36.18 32.185,36.524 32.089,36.146 32.892,35.716 33.316,35.716 
		33.316,39.394 32.835,39.394 	"/>
	<path fill="#FFFFFF" d="M34.957,39.048c0.102,0.006,0.232,0,0.374-0.022c0.781-0.13,1.194-0.7,1.278-1.307h-0.017
		c-0.176,0.232-0.481,0.424-0.889,0.424c-0.65,0-1.109-0.47-1.109-1.188c0-0.675,0.458-1.296,1.222-1.296
		c0.787,0,1.302,0.61,1.302,1.566c0,0.726-0.261,1.295-0.623,1.658c-0.305,0.3-0.713,0.486-1.177,0.543
		c-0.147,0.022-0.271,0.028-0.362,0.028L34.957,39.048L34.957,39.048z M35.099,36.927c0,0.526,0.299,0.843,0.758,0.843
		c0.3,0,0.578-0.187,0.713-0.453c0.034-0.057,0.057-0.13,0.057-0.221c-0.012-0.604-0.289-1.052-0.809-1.052
		C35.387,36.044,35.099,36.399,35.099,36.927"/>
</g>
</svg>
