<?xml version="1.0" encoding="utf-8"?>
<!-- Generator: Adobe Illustrator 16.0.0, SVG Export Plug-In . SVG Version: 6.00 Build 0)  -->
<!DOCTYPE svg PUBLIC "-//W3C//DTD SVG 1.1//EN" "http://www.w3.org/Graphics/SVG/1.1/DTD/svg11.dtd">
<svg version="1.1" id="Layer_1" xmlns="http://www.w3.org/2000/svg" xmlns:xlink="http://www.w3.org/1999/xlink" x="0px" y="0px"
	 width="33px" height="65px" viewBox="0 0 33 65" enable-background="new 0 0 33 65" xml:space="preserve">
<g>
	<polygon fill="#FFFFFF" points="16.199,30.577 14.66,20.282 6.99,18.099 13.459,14.583 12.677,7.012 17.537,12.204 23.639,9.723 
		21.939,15.513 26.179,20.27 17.893,19.83 	"/>
	<polygon fill="#FFFFFF" points="31.095,34.359 16.566,34.359 18.945,21.32 29.129,21.276 23.441,14.896 26.326,7.202 
		18.123,10.539 11.279,4.076 12.102,13.713 3.953,18.49 13.084,21.473 15.557,34.359 1.295,34.359 1.295,32.945 13.844,32.945 
		11.851,22.559 0.525,18.86 10.615,12.944 9.552,0.5 18.434,8.885 28.785,4.674 25.068,14.592 32.275,22.678 20.127,22.73 
		18.263,32.945 31.095,32.945 	"/>
	<g>
		<path fill="#FFFFFF" d="M4.791,37.559H2.995L2.838,38.77c0.062,0,0.136,0,0.209,0c0.292,0.01,0.887,0.146,1.273,0.513
			c0.376,0.364,0.584,0.876,0.584,1.555c0,1.325-0.876,2.399-2.358,2.399c-0.479,0-1.002-0.125-1.272-0.271l0.208-1.086
			c0.25,0.125,0.604,0.24,0.971,0.24c0.668,0,1.106-0.429,1.106-1.159c0-0.908-0.688-1.211-1.472-1.211
			c-0.188,0-0.344,0-0.479,0.021l0.375-3.403h2.808V37.559z"/>
		<path fill="#FFFFFF" d="M8.861,39.781v0.98H6.784v-0.98H8.861z"/>
		<path fill="#FFFFFF" d="M10.664,41.754c0.281,0.157,0.763,0.271,1.158,0.271c0.646,0,0.961-0.334,0.961-0.793
			c0-0.512-0.313-0.762-0.907-1.148c-0.962-0.584-1.326-1.325-1.326-1.962c0-1.127,0.752-2.065,2.224-2.065
			c0.459,0,0.897,0.125,1.106,0.25l-0.22,1.18c-0.198-0.125-0.502-0.24-0.897-0.24c-0.585,0-0.866,0.355-0.866,0.73
			c0,0.418,0.209,0.638,0.971,1.096c0.93,0.563,1.273,1.273,1.273,2.015c0,1.284-0.949,2.13-2.327,2.13
			c-0.563,0-1.116-0.146-1.348-0.281L10.664,41.754z"/>
		<path fill="#FFFFFF" d="M16.738,37.381h-1.242v-1.263h3.862v1.263h-1.252v5.771h-1.368V37.381z"/>
		<path fill="#FFFFFF" d="M21.883,41.546l-0.312,1.606h-1.326l1.523-7.034h1.639l1.367,7.034h-1.324l-0.304-1.606H21.883z
			 M23.021,40.48l-0.229-1.473c-0.072-0.428-0.166-1.127-0.229-1.597h-0.031c-0.072,0.47-0.178,1.2-0.25,1.606l-0.262,1.461h1.001
			V40.48z"/>
		<path fill="#FFFFFF" d="M26.589,36.223c0.428-0.084,0.97-0.136,1.491-0.136c0.752,0,1.42,0.104,1.88,0.521
			c0.428,0.388,0.553,0.855,0.553,1.461c0,0.752-0.365,1.432-1.085,1.766v0.021c0.479,0.188,0.721,0.637,0.855,1.389
			c0.136,0.781,0.322,1.648,0.449,1.91h-1.431c-0.083-0.198-0.239-0.908-0.345-1.682c-0.125-0.877-0.344-1.127-0.803-1.127h-0.199
			v2.809h-1.366V36.223z M27.955,39.291h0.24c0.596,0,0.939-0.48,0.939-1.096c0-0.596-0.241-1.023-0.855-1.045
			c-0.115,0-0.252,0.012-0.324,0.043V39.291z"/>
	</g>
	<g>
		<path fill="#FFFFFF" d="M3.572,47.521H2.409v1.375h1.313v0.86H1.418v-5.09H3.63v0.86H2.409v1.171h1.163V47.521z"/>
		<path fill="#FFFFFF" d="M6.039,49.758L5.714,48.82c-0.099-0.295-0.182-0.581-0.271-0.905H5.426
			c-0.083,0.324-0.166,0.635-0.241,0.921l-0.271,0.922H3.933l0.951-2.605l-0.913-2.483h1.034l0.294,0.944
			c0.083,0.264,0.151,0.527,0.234,0.814h0.015c0.083-0.31,0.145-0.552,0.212-0.83l0.257-0.93h0.989l-0.952,2.53l1.005,2.56H6.039z"
			/>
		<path fill="#FFFFFF" d="M9.873,49.682c-0.144,0.068-0.422,0.121-0.771,0.121c-1.299,0-1.918-1.072-1.918-2.515
			c0-1.918,1.064-2.665,2.056-2.665c0.347,0,0.588,0.066,0.687,0.136l-0.166,0.83c-0.113-0.052-0.242-0.098-0.461-0.098
			c-0.56,0-1.063,0.483-1.063,1.743c0,1.217,0.461,1.691,1.063,1.691c0.166,0,0.354-0.037,0.478-0.074L9.873,49.682z"/>
		<path fill="#FFFFFF" d="M12.568,47.521h-1.162v1.375h1.313v0.86h-2.304v-5.09h2.213v0.86h-1.225v1.171h1.164V47.521L12.568,47.521
			z"/>
		<path fill="#FFFFFF" d="M13.39,44.668h0.988v4.252h1.307v0.838H13.39V44.668z"/>
		<path fill="#FFFFFF" d="M16.257,44.668h0.991v4.252h1.306v0.838h-2.296V44.668z"/>
		<path fill="#FFFFFF" d="M21.279,47.521h-1.162v1.375h1.312v0.86h-2.304v-5.09h2.213v0.86h-1.224v1.171h1.162v0.823H21.279z"/>
		<path fill="#FFFFFF" d="M22.101,49.758v-5.09h0.905l0.785,1.994c0.15,0.393,0.4,1.049,0.545,1.486h0.015
			c-0.03-0.535-0.099-1.42-0.099-2.355v-1.125h0.869v5.09h-0.906l-0.778-1.934c-0.166-0.43-0.399-1.072-0.514-1.532h-0.015
			c0.021,0.513,0.061,1.299,0.061,2.317v1.147L22.101,49.758L22.101,49.758z"/>
		<path fill="#FFFFFF" d="M28.435,49.682c-0.146,0.068-0.423,0.121-0.771,0.121c-1.299,0-1.918-1.072-1.918-2.515
			c0-1.918,1.063-2.665,2.054-2.665c0.348,0,0.589,0.066,0.687,0.136l-0.164,0.83c-0.115-0.052-0.242-0.098-0.461-0.098
			c-0.56,0-1.064,0.483-1.064,1.743c0,1.217,0.46,1.691,1.064,1.691c0.166,0,0.354-0.037,0.476-0.074L28.435,49.682z"/>
		<path fill="#FFFFFF" d="M31.128,47.521h-1.162v1.375h1.313v0.86h-2.304v-5.09h2.213v0.86h-1.224v1.171h1.162L31.128,47.521
			L31.128,47.521z"/>
	</g>
	<g>
		<path fill="#FFFFFF" d="M2.243,54.559L1.97,55.537H1.077l1.166-3.812h1.131l1.184,3.812H3.628l-0.294-0.979H2.243z M3.209,53.912
			l-0.237-0.809c-0.067-0.228-0.136-0.51-0.191-0.735H2.769c-0.057,0.228-0.113,0.515-0.175,0.735l-0.227,0.809H3.209z"/>
		<path fill="#FFFFFF" d="M8.18,55.536l-0.903-3.813h0.922l0.289,1.573c0.084,0.452,0.164,0.945,0.226,1.33h0.012
			c0.062-0.413,0.153-0.872,0.249-1.342l0.322-1.562h0.917l0.306,1.606c0.084,0.446,0.146,0.854,0.203,1.278h0.012
			c0.057-0.424,0.142-0.871,0.221-1.324l0.312-1.562h0.878l-0.984,3.813h-0.935l-0.321-1.642c-0.074-0.385-0.137-0.74-0.182-1.177
			H9.71c-0.067,0.431-0.131,0.792-0.221,1.177l-0.362,1.642H8.18V55.536z"/>
		<path fill="#FFFFFF" d="M16.004,54.559l-0.272,0.979h-0.894l1.166-3.812h1.131l1.185,3.812h-0.93l-0.294-0.979H16.004z
			 M16.971,53.912l-0.237-0.809c-0.066-0.228-0.136-0.51-0.191-0.735h-0.012c-0.057,0.228-0.113,0.515-0.176,0.735l-0.227,0.809
			H16.971z"/>
		<path fill="#FFFFFF" d="M21.66,51.773c0.276-0.045,0.69-0.08,1.147-0.08c0.565,0,0.963,0.086,1.233,0.302
			c0.227,0.181,0.352,0.446,0.352,0.798c0,0.486-0.345,0.818-0.673,0.938v0.018c0.265,0.107,0.412,0.361,0.508,0.714
			c0.119,0.431,0.238,0.929,0.312,1.074h-0.883c-0.062-0.106-0.151-0.418-0.266-0.888c-0.102-0.477-0.266-0.605-0.615-0.611h-0.261
			v1.499H21.66V51.773z M22.516,53.415h0.339c0.431,0,0.685-0.215,0.685-0.549c0-0.351-0.237-0.526-0.633-0.532
			c-0.211,0-0.328,0.018-0.391,0.027V53.415z"/>
		<path fill="#FFFFFF" d="M27.849,51.773c0.315-0.051,0.729-0.08,1.165-0.08c0.725,0,1.193,0.132,1.562,0.408
			c0.396,0.295,0.645,0.765,0.645,1.438c0,0.73-0.266,1.232-0.633,1.545c-0.402,0.334-1.014,0.492-1.76,0.492
			c-0.447,0-0.766-0.028-0.979-0.057V51.773z M28.713,54.886c0.074,0.017,0.193,0.017,0.301,0.017c0.78,0.007,1.29-0.424,1.29-1.334
			c0.006-0.793-0.458-1.211-1.2-1.211c-0.191,0-0.316,0.018-0.391,0.033V54.886z"/>
	</g>
	<g>
		<path fill="#FFFFFF" d="M2.177,64.5l-0.65-3.812h0.77l0.187,1.521c0.051,0.437,0.085,0.871,0.13,1.335h0.017
			c0.05-0.469,0.135-0.882,0.214-1.34l0.272-1.518h0.6l0.255,1.506c0.067,0.43,0.137,0.854,0.182,1.352h0.012
			c0.051-0.497,0.096-0.904,0.146-1.346l0.188-1.512h0.724L4.547,64.5H3.784l-0.228-1.251c-0.062-0.351-0.119-0.786-0.17-1.25H3.375
			c-0.068,0.458-0.131,0.883-0.21,1.256L2.913,64.5H2.177z"/>
		<path fill="#FFFFFF" d="M9.197,60.688V64.5h-0.74v-3.812H9.197z"/>
		<path fill="#FFFFFF" d="M12.689,64.5v-3.812h0.68l0.588,1.492c0.113,0.295,0.301,0.787,0.408,1.115h0.012
			c-0.023-0.402-0.074-1.064-0.074-1.766v-0.844h0.65V64.5h-0.68l-0.582-1.448c-0.125-0.323-0.301-0.804-0.385-1.149h-0.012
			c0.018,0.386,0.045,0.975,0.045,1.738V64.5H12.689z"/>
		<path fill="#FFFFFF" d="M18.441,64.5v-3.812h0.68l0.589,1.492c0.112,0.295,0.299,0.787,0.407,1.115h0.011
			c-0.022-0.402-0.073-1.064-0.073-1.766v-0.844h0.65V64.5h-0.68l-0.582-1.448c-0.125-0.323-0.301-0.804-0.386-1.149h-0.011
			c0.017,0.386,0.045,0.975,0.045,1.738V64.5H18.441z"/>
		<path fill="#FFFFFF" d="M25.806,62.825h-0.872v1.028h0.984V64.5h-1.725v-3.812h1.656v0.645h-0.917v0.877h0.872L25.806,62.825
			L25.806,62.825z"/>
		<path fill="#FFFFFF" d="M29.254,60.743c0.23-0.046,0.525-0.073,0.809-0.073c0.408,0,0.771,0.057,1.02,0.282
			c0.231,0.209,0.3,0.464,0.3,0.792c0,0.406-0.198,0.775-0.588,0.957v0.011c0.26,0.103,0.39,0.345,0.464,0.753
			c0.072,0.424,0.175,0.895,0.243,1.035h-0.775c-0.045-0.107-0.13-0.492-0.187-0.911c-0.067-0.476-0.188-0.61-0.437-0.61h-0.106
			V64.5h-0.741L29.254,60.743L29.254,60.743z M29.994,62.406h0.131c0.322,0,0.51-0.26,0.51-0.594c0-0.324-0.131-0.556-0.465-0.566
			c-0.062,0-0.137,0.006-0.176,0.021V62.406z"/>
	</g>
	<rect x="0.982" y="57.673" fill="#FFFFFF" width="30.428" height="1.416"/>
</g>
</svg>
