<?xml version="1.0" encoding="utf-8"?>
<!-- Generator: Adobe Illustrator 16.0.0, SVG Export Plug-In . SVG Version: 6.00 Build 0)  -->
<!DOCTYPE svg PUBLIC "-//W3C//DTD SVG 1.1//EN" "http://www.w3.org/Graphics/SVG/1.1/DTD/svg11.dtd">
<svg version="1.1" id="Layer_1" xmlns="http://www.w3.org/2000/svg" xmlns:xlink="http://www.w3.org/1999/xlink" x="0px" y="0px"
	 width="52px" height="65px" viewBox="0 0 52 65" enable-background="new 0 0 52 65" xml:space="preserve">
<g>
	<path fill="#FFFFFF" d="M24.646,52.825c-6.822-0.745-12.465-6.198-12.479-13.4c-0.01-7.414,6.196-13.422,13.835-13.422
		c7.631,0,13.827,6.008,13.827,13.422c0,6.933-5.39,12.597-12.287,13.339c0,0.239,0,1.452,0,1.816
		c8.106-0.739,14.448-7.243,14.448-15.155c0-8.406-7.16-15.225-15.988-15.225c-8.834,0-15.993,6.818-15.993,15.225
		c0,7.401,5.547,13.56,12.899,14.937c1.243,0.234,2.034,0.42,2.685,1.222c0.786-1.437,0.974-4.479,0.974-6.198
		c-0.002,0,0-2.098,0-2.89c0-1.015,0.521-1.197,1.486-0.657c1.778,0.992,3.631,2.021,3.631,2.021
		c0.062-0.568,0.553-1.049,1.617-0.801c0.996,0.231,2.104,0.477,2.104,0.477s-0.598-1.35-0.865-1.939
		c-0.487-1.084-0.018-1.607,0.457-1.76c0,0-0.682-0.463-1.126-0.773c-0.96-0.666-0.733-1.313,0.196-1.717
		c1.273-0.544,2.849-1.253,2.849-1.253c-0.498-0.295-1.09-1.118-0.431-2.077c0.652-0.949,1.627-2.273,1.627-2.273
		s-1.723,0.018-2.869,0c-1.042-0.012-1.297-0.836-1.285-1.432c0,0-1.695,1.197-2.908,2.019c-1.021,0.688-1.947,0.019-1.796-1.165
		c0.243-1.852,0.46-3.896,0.46-3.896c-0.629,0.43-1.703,0.409-2.182-0.617c-0.709-1.527-1.525-3.315-1.525-3.315
		s-0.814,1.788-1.522,3.315c-0.477,1.026-1.56,1.046-2.187,0.617c0,0,0.218,2.044,0.457,3.896c0.154,1.184-0.771,1.854-1.79,1.165
		c-1.212-0.82-2.909-2.019-2.909-2.019c0.008,0.596-0.243,1.42-1.287,1.432c-1.146,0.018-2.866,0-2.866,0s0.975,1.324,1.625,2.273
		c0.659,0.959,0.062,1.782-0.428,2.077c0,0,1.574,0.709,2.841,1.253c0.937,0.402,1.162,1.051,0.198,1.717
		c-0.447,0.312-1.126,0.773-1.126,0.773c0.478,0.15,0.945,0.676,0.455,1.76c-0.267,0.592-0.862,1.939-0.862,1.939
		s1.108-0.244,2.105-0.477c1.067-0.248,1.559,0.231,1.62,0.801c0,0,1.848-1.029,3.629-2.021c0.966-0.54,1.481-0.355,1.487,0.657
		c0,0.792,0,2.487,0,2.487C25.447,50.415,25.195,51.99,24.646,52.825z"/>
	<path fill="#FFFFFF" d="M13.453,61.643c0.184-0.213,0.247-0.486,0.234-0.744c-0.04-0.588-0.528-1.047-1.626-1.053h-2.054v4.221
		h0.924v-1.742h0.932l1.376,1.744h1.152l-1.556-1.975C13.178,61.928,13.266,61.855,13.453,61.643z M11.352,61.762h-0.421v-1.371
		h0.551c0.743,0,1.246,0.086,1.246,0.633C12.728,61.577,12.494,61.762,11.352,61.762z"/>
	<path fill="#FFFFFF" d="M2.587,59.846l-1.849,4.223h0.717l0.495-1.135h1.952l0.49,1.135h1.145l-1.83-4.223H2.587z M2.195,62.38
		l0.735-1.679l0.73,1.679H2.195z"/>
	<rect x="6.852" y="59.846" fill="#FFFFFF" width="0.99" height="4.223"/>
	<path fill="#FFFFFF" d="M18.615,63.146c-0.316-0.291-0.468-0.69-0.468-1.207c0-0.521,0.146-0.926,0.442-1.211
		c0.293-0.285,0.709-0.424,1.246-0.424c0.421,0,1.003,0.092,1.626,0.279l0.001-0.697c-0.55-0.109-1.103-0.164-1.659-0.166
		c-0.871,0-1.546,0.19-2.019,0.572c-0.469,0.385-0.709,0.939-0.71,1.662c-0.003,0.699,0.229,1.25,0.694,1.646
		c0.468,0.396,1.118,0.597,1.954,0.599c0.686,0,1.28-0.093,1.749-0.277v-0.659c-0.485,0.215-1.053,0.318-1.548,0.318
		C19.362,63.582,18.928,63.436,18.615,63.146z"/>
	<path fill="#FFFFFF" d="M24.528,59.846l-1.849,4.223h0.717l0.499-1.135h1.945l0.493,1.135h1.146l-1.827-4.223H24.528z
		 M24.142,62.38l0.734-1.679l0.726,1.679H24.142z"/>
	<path fill="#FFFFFF" d="M36.732,59.846l-1.848,4.223H35.6l0.496-1.135h1.955l0.487,1.135h1.144l-1.826-4.223H36.732z M36.343,62.38
		l0.735-1.679l0.727,1.679H36.343z"/>
	<path fill="#FFFFFF" d="M49.434,59.846h-1.119l-1.851,4.223h0.714l0.502-1.135h1.946l0.49,1.135h1.146L49.434,59.846z
		 M47.922,62.38l0.735-1.679l0.726,1.679H47.922z"/>
	<polygon fill="#FFFFFF" points="32.666,62.857 30.025,59.846 28.887,59.846 28.887,64.068 29.688,64.068 29.688,60.916 
		32.438,64.068 33.473,64.068 33.473,59.846 32.668,59.846 	"/>
	<path fill="#FFFFFF" d="M43.115,59.846h-2.047v4.223h1.947c0.745,0,1.327-0.186,1.74-0.569c0.414-0.385,0.624-0.926,0.624-1.621
		c0.003-0.653-0.19-1.155-0.579-1.501C44.414,60.025,43.852,59.85,43.115,59.846z M43.948,63.084
		c-0.253,0.256-0.642,0.385-1.157,0.382l-0.729-0.001v-3.043l0.598,0.004c0.379,0,0.664,0.035,0.861,0.106
		c0.201,0.069,0.367,0.2,0.508,0.384c0.201,0.268,0.304,0.605,0.303,1.008C44.33,62.439,44.202,62.829,43.948,63.084z"/>
</g>
</svg>
