<?xml version="1.0" encoding="utf-8"?>
<!-- Generator: Adobe Illustrator 16.0.0, SVG Export Plug-In . SVG Version: 6.00 Build 0)  -->
<!DOCTYPE svg PUBLIC "-//W3C//DTD SVG 1.1//EN" "http://www.w3.org/Graphics/SVG/1.1/DTD/svg11.dtd">
<svg version="1.1" id="Layer_1" xmlns="http://www.w3.org/2000/svg" xmlns:xlink="http://www.w3.org/1999/xlink" x="0px" y="0px"
	 width="77px" height="65px" viewBox="0 0 77 65" enable-background="new 0 0 77 65" xml:space="preserve">
<g>
	<path fill="#FFFFFF" d="M75.973,39.782c-2.123,2.37-4.547,4.351-7.738,4.245c-0.848,0.966-1.473,2.007-2.162,3.035
		c0.898,0.105,1.85,0.026,2.709-0.117c3.427-0.508,6.449-3.922,7.218-7.163H75.973L75.973,39.782z"/>
	<path fill="#FFFFFF" d="M26.937,59.427c-5.159-0.834-9.758,0.978-14.304,2.269c-1.029,0.246-2.045,0.507-3.166,0.507
		c-0.873-0.026-1.693-0.155-2.449-0.468c-1.342-0.652-1.863-2.06-2.006-3.4c-0.183-3.465,1.186-6.371,2.67-9.186
		c1.654-2.865,3.908-6.07,6.97-7.776c0.3-0.144,0.703-0.3,1.056-0.117c0.195,0.117,0.338,0.339,0.352,0.547
		c-0.209,0.039-0.404,0.078-0.587,0.144c-0.677,0.262-1.289,0.951-1.328,1.693c-0.053,0.469,0.195,0.873,0.599,1.094
		c0.482,0.223,0.978-0.039,1.342-0.352c0.912-0.886,1.355-2.215,0.848-3.412c-0.404-0.809-1.264-1.017-2.111-1.004
		c-2.136,0.195-3.921,1.251-5.588,2.58c-3.543,3.01-5.915,6.747-7.438,10.708c-0.665,1.745-1.055,3.869-0.599,5.837
		c0.417,2.031,2.202,4.221,4.325,4.611c2.944,0.455,5.589-0.417,8.181-1.121c2.188-0.572,4.364-1.172,6.748-1.25
		c1.902-0.039,3.583,0.938,4.612,2.566c2.632-1.381,6.318-0.834,8.95,0.104C32.422,61.407,29.738,59.883,26.937,59.427z"/>
	<path fill="#FFFFFF" d="M48.589,52.822c-0.235-0.561-0.821-0.965-1.396-1.081c-1.861-0.302-3.334,1.341-4.26,2.774
		c-0.886,1.562-1.537,3.334-1.25,5.289c0.82-1.146,2.006-2.242,3.271-2.711c0.13-1.094,0.339-2.162,0.989-3.049
		c0.404-0.402,0.887-0.872,1.459-0.703c0.392,0.273,0.365,0.795,0.326,1.238c-0.442,2.631-1.824,5.08-4.17,6.734
		c-0.715,0.43-1.836,0.703-2.592,0.17c-0.847-0.652-0.938-1.68-0.912-2.697c0.195-2.318,1.082-4.338,2.045-6.331
		c2.032-3.856,4.625-7.921,8.547-10.539c0.481-0.261,0.978-0.599,1.562-0.442c-2.148,1.576-3.908,3.752-4.352,6.254
		c-0.092,0.871,0.053,1.797,0.886,2.201c0.912,0.364,1.784-0.145,2.487-0.678c2.189-1.98,3.205-4.547,3.102-7.491
		c0.43-0.065,0.873-0.116,1.355-0.091c2.826,0,4.455,2.982,6.916,3.844c0.612-0.938,1.355-1.812,2.125-2.685
		c-1.265-0.704-2.41-1.72-3.728-2.306c-2.136-1.107-5.132-0.742-7.229,0.143c-0.82-0.912-2.229-0.859-3.334-0.586
		c-3.674,1.081-6.932,4.039-9.314,7.281c-2.345,3.297-4.194,6.789-4.625,10.865c-0.144,2.032,0.248,4.145,2.176,5.094
		c1.512,0.717,3.543,0.43,4.897-0.442c2.241-1.55,4.038-3.829,4.741-6.292C48.589,55.414,49.059,54.046,48.589,52.822z
		 M52.171,46.438c-0.521,0.926-1.264,1.916-2.228,2.515c-0.156,0.053-0.312,0.184-0.521,0.116c-0.59-0.133-0.402-1.379-0.221-1.979
		c0.416-1.212,1.236-2.267,2.07-3.322c0.572-0.625,1.211-1.133,1.929-1.445C53.277,43.848,52.835,45.2,52.171,46.438z"/>
	<path fill="#FFFFFF" d="M39.039,48.354l1.238-2.422l-2.267-0.015c-0.339,0.015-0.639,0.17-0.848,0.456l-1.185,2.357l2.032,0.015
		C38.427,48.784,38.818,48.718,39.039,48.354z"/>
	<path fill="#FFFFFF" d="M35.887,45.917h-2.826L32.8,46.452c-0.222-0.287-0.509-0.47-0.821-0.548
		c-2.645-0.43-4.233,2.396-5.627,4.154c-1.304,1.877-2.463,4.065-4.547,5.381c-0.456,0.262-1.043,0.64-1.576,0.287
		c-0.548-0.625-0.313-1.629-0.118-2.332c0.756-1.955,1.772-3.791,3.219-5.444c0.364-0.341,0.742-0.781,1.263-0.626
		c0.183,0.104,0.353,0.3,0.339,0.494c-0.417-0.024-0.769,0.104-1.068,0.326c-0.417,0.377-0.599,0.898-0.533,1.473
		c0.038,0.273,0.234,0.521,0.494,0.626c0.378,0.182,0.795,0.013,1.082-0.248c0.794-0.849,1.276-2.06,0.847-3.218
		c-0.222-0.51-0.729-0.887-1.251-0.965c-1.654-0.155-2.84,0.938-3.986,2.045c-1.134,0.978-1.967,2.867-3.674,2.541
		c0.417-1.121,0.69-2.763-0.052-3.83c-0.365-0.508-0.886-0.781-1.498-0.781c-1.42,0.117-2.501,1.107-3.504,2.188
		c-1.733,2.099-3.101,4.353-3.439,7.021c-0.065,1.056,0.078,2.176,1.081,2.684c1.42,0.547,2.762-0.232,3.726-1.328
		c1.42-1.434,2.345-3.088,3.179-4.754c0.43,0.104,0.912,0.144,1.368,0.104L17.3,52.678c-0.495,1.186-0.938,2.866-0.208,4.092
		c0.481,0.769,1.289,1.094,2.175,1.056c1.863-0.209,3.283-1.46,4.664-2.789l0.039-0.013c-0.104,0.572-0.169,1.289,0.065,1.824
		c0.169,0.521,0.729,0.924,1.251,1.002c1.211,0.117,2.228-0.441,2.982-1.394c0.014,0.194,0.026,0.378,0.065,0.56
		c0.065,0.326,0.325,0.664,0.651,0.771c1.029,0.26,1.938-0.229,2.671-0.861c1.745-1.432,3.048-3.217,3.816-5.157h-1.237
		c-0.495,1.146-1.172,2.215-2.188,3.141c-0.156,0.078-0.326,0.285-0.508,0.129c-0.078-0.078-0.026-0.208-0.014-0.299L35.887,45.917z
		 M13.284,54.464c-0.403,0.443-0.847,0.859-1.446,0.847c-0.143-0.025-0.273-0.129-0.338-0.261c-0.222-0.493-0.04-1.106,0.078-1.603
		c0.352-1.237,0.938-2.385,1.759-3.438c0.456,0.65,1.133,1.056,1.784,1.354C14.743,52.496,14.079,53.499,13.284,54.464z
		 M16.06,49.305c-0.117,0.326-0.195,0.651-0.365,0.938c-0.534,0.013-1.003-0.339-1.303-0.783c-0.261-0.362-0.078-0.872,0.117-1.211
		c0.312-0.442,0.756-0.847,1.316-0.703c0.13,0.039,0.26,0.117,0.338,0.233C16.359,48.288,16.163,48.835,16.06,49.305z
		 M28.709,54.348c-0.339,0.377-0.742,1.002-1.29,0.807c-0.261-0.299-0.156-0.77-0.104-1.119c0.533-2.059,1.654-3.87,3.022-5.576
		c0.391-0.443,0.82-0.926,1.354-1.107c0.104,0,0.222-0.014,0.286,0.078c0.195,0.338,0.092,0.725-0.091,1.081
		C30.885,50.479,29.946,52.482,28.709,54.348z"/>
	<path fill="#FFFFFF" d="M73.354,51.818l-2.735-0.025l-0.379,0.48c-0.47-0.377-1.017-0.6-1.654-0.508
		c-1.667,0.353-3.048,1.877-3.999,3.283l-2.148,3.27c-0.508,0.705-1.004,1.396-1.604,2.06c-0.234,0.195-0.469,0.442-0.77,0.378
		c-0.168-0.064-0.221-0.234-0.26-0.391c-0.053-0.848,0.194-1.643,0.377-2.424c1.342-4.678,3.662-8.949,6.553-12.977
		c1.005-1.303,2.072-2.695,3.414-3.738c0.078,0,0.195-0.092,0.248,0.026c0.064,0.144,0.039,0.325-0.026,0.456
		c-0.104,0.234-0.364,0.402-0.392,0.65c0.209,0.117,0.365-0.104,0.535-0.209c0.391-0.455,0.676-1.041,0.441-1.642
		c-0.234-0.454-0.729-0.586-1.225-0.571c-1.056,0.182-1.941,0.729-2.774,1.433c-4.338,4.377-7.517,9.249-9.274,14.708
		c-0.184,0.104-0.379,0.17-0.588,0.221c-0.156,0.014-0.352,0.065-0.48,0c0.312-1.158,0.795-2.631,0.169-3.804
		c-0.403-0.612-1.081-0.847-1.798-0.729c-2.059,0.508-3.738,2.58-4.873,4.325c-0.963,1.707-1.797,3.505-1.771,5.615
		c0.039,0.677,0.286,1.444,1.003,1.667c1.057,0.404,2.201,0.025,3.022-0.625c1.771-1.484,2.696-3.439,3.674-5.314
		c0.456,0.025,0.912-0.025,1.304-0.131c-0.184,0.756-0.418,1.484-0.521,2.279c-0.079,1.355-0.248,3.036,1.133,3.713
		c0.561,0.273,1.342,0.156,1.837-0.156c0.703-0.533,1.433-1.211,1.89-1.94c0.053,0.431,0.09,0.858,0.233,1.25
		c0.156,0.456,0.573,0.938,1.067,1.004c1.16,0.077,2.008-0.664,2.841-1.433c0.077,0.455,0.222,0.897,0.587,1.236
		c0.273,0.209,0.677,0.262,1.027,0.182c1.082-0.285,1.941-1.08,2.789-1.939c1.133-1.275,2.123-2.632,2.502-4.221H71.75
		c-0.062,0.349-0.43,0.978-0.729,1.434c-0.496,0.639-0.979,1.38-1.682,1.823c-0.078,0.039-0.208,0.039-0.273-0.054
		c-0.051-0.09,0-0.194,0.014-0.272L73.354,51.818z M52.861,60.402c-0.403,0.341-0.848,0.771-1.395,0.549
		c-0.392-0.312-0.273-0.965-0.195-1.407c0.338-1.394,0.965-2.67,1.862-3.83c0.443,0.664,1.159,1.029,1.798,1.354
		C54.489,58.279,53.773,59.389,52.861,60.402z M55.584,55.753c-0.039,0.065-0.052,0.146-0.117,0.195
		c-0.521-0.025-0.99-0.339-1.289-0.794c-0.234-0.404-0.078-0.938,0.182-1.276c0.301-0.418,0.729-0.757,1.265-0.639
		c0.144,0.038,0.287,0.143,0.353,0.286C56.157,54.318,55.818,55.05,55.584,55.753z M67.568,57.968
		c-0.663,1.042-1.094,2.279-2.201,3.05c-0.117,0.053-0.286,0.078-0.403,0.012c-0.248-0.195-0.209-0.572-0.169-0.871
		c0.48-2.203,1.68-4.104,3.113-5.915c0.377-0.417,0.795-0.86,1.303-1.029c0.104,0,0.208-0.013,0.286,0.079
		c0.271,0.295,0.075,0.719-0.091,1.08L67.568,57.968z"/>
</g>
</svg>
