<?xml version="1.0" encoding="utf-8"?>
<!-- Generator: Adobe Illustrator 16.0.0, SVG Export Plug-In . SVG Version: 6.00 Build 0)  -->
<!DOCTYPE svg PUBLIC "-//W3C//DTD SVG 1.1//EN" "http://www.w3.org/Graphics/SVG/1.1/DTD/svg11.dtd">
<svg version="1.1" id="Layer_1" xmlns="http://www.w3.org/2000/svg" xmlns:xlink="http://www.w3.org/1999/xlink" x="0px" y="0px"
	 width="100px" height="65px" viewBox="0 0 100 65" enable-background="new 0 0 100 65" xml:space="preserve">
<path fill="#FFFFFF" d="M34.425,57.186l0.25,3.94h0.062c0.13-0.401,0.273-0.821,0.474-1.217l1.358-2.724h2.207l0.333,3.939h0.063
	c0.115-0.386,0.244-0.788,0.42-1.164l1.326-2.775h2.995l-4.05,6.603h-2.511l-0.222-3.59h-0.094
	c-0.096,0.342-0.181,0.674-0.337,0.997l-1.291,2.593H32.96l-1.519-6.603H34.425L34.425,57.186z"/>
<path fill="#FFFFFF" d="M43.705,57.186h2.774l-0.422,2.225h1.765l0.422-2.225h2.773l-1.254,6.604h-2.773l0.436-2.294H45.66
	l-0.436,2.294H42.45L43.705,57.186z"/>
<path fill="#FFFFFF" d="M59.145,60.504c-0.404,2.119-2.611,3.389-5.025,3.389c-2.42,0-4.143-1.271-3.739-3.389
	c0.396-2.074,2.627-3.424,5.031-3.424C57.816,57.08,59.536,58.43,59.145,60.504L59.145,60.504z M53.273,60.539
	c-0.145,0.752,0.369,1.27,1.24,1.27c0.872,0,1.58-0.518,1.725-1.27c0.132-0.701-0.323-1.286-1.237-1.286
	C54.084,59.253,53.404,59.839,53.273,60.539z M59.773,57.186h2.881l-0.854,4.483h2.417l-0.403,2.119H58.52L59.773,57.186z
	 M71.029,61.424l0.127,0.098c0.453,0.33,1.021,0.604,1.684,0.604c0.283,0,0.754-0.098,0.811-0.395
	c0.058-0.295-0.315-0.322-0.568-0.367l-0.562-0.088c-1.093-0.166-1.934-0.719-1.736-1.75c0.299-1.566,2.177-2.444,3.9-2.444
	c0.901,0,1.699,0.187,2.4,0.579l-1.099,1.691c-0.441-0.281-0.956-0.5-1.576-0.5c-0.253,0-0.636,0.078-0.687,0.349
	c-0.047,0.245,0.303,0.28,0.516,0.323l0.63,0.123c1.175,0.229,1.955,0.77,1.742,1.893c-0.299,1.575-2.171,2.354-3.884,2.354
	c-0.998,0-2.109-0.228-2.933-0.604L71.029,61.424z"/>
<path fill="#FFFFFF" d="M80.921,61.396l-0.115-1.164c-0.029-0.278-0.029-0.569-0.027-0.851h-0.105l-0.906,2.015H80.921z
	 M78.416,63.788h-3.049l4.008-6.603h3.185l1.571,6.603h-3.047l-0.104-0.822h-2.177L78.416,63.788L78.416,63.788z"/>
<path fill="#FFFFFF" d="M85.146,57.186h2.879l-0.852,4.483h2.417l-0.401,2.119h-5.297L85.146,57.186z M90.976,57.186h5.328
	l-0.342,1.806h-2.428l-0.122,0.63h2.219l-0.327,1.717h-2.217l-0.123,0.646h2.514l-0.344,1.805h-5.412L90.976,57.186z"/>
<g>
	<path fill="#FFFFFF" d="M51.91,45.32l3.637-0.135l-3.05,10.051h6.521l3.049-10.051l3.555,0.135l1.447-4.771H53.357L51.91,45.32
		L51.91,45.32z M38.405,47.932c-0.912,4.713-5.909,7.539-11.384,7.539c-5.474,0-9.379-2.826-8.468-7.539
		c0.893-4.617,5.949-7.617,11.4-7.617C35.403,40.314,39.298,43.314,38.405,47.932L38.405,47.932z M25.107,48.009
		c-0.324,1.675,0.834,2.825,2.81,2.825s3.578-1.148,3.903-2.825c0.301-1.558-0.732-2.862-2.804-2.862
		C26.946,45.145,25.409,46.451,25.107,48.009L25.107,48.009z"/>
	<path fill="#FFFFFF" d="M36.378,54.125c1.861,0.835,4.382,1.346,6.644,1.346c3.88,0,8.119-1.734,8.796-5.242
		c0.481-2.492-1.282-3.699-3.945-4.207l-1.423-0.272c-0.482-0.097-1.276-0.175-1.171-0.722c0.117-0.604,0.984-0.778,1.556-0.778
		c1.403,0,2.572,0.487,3.569,1.11l2.491-3.76c-1.595-0.877-3.396-1.285-5.442-1.285c-3.904,0-8.161,1.947-8.835,5.435
		c-0.445,2.3,1.459,3.526,3.935,3.896l1.272,0.194c0.576,0.101,1.422,0.156,1.294,0.818c-0.128,0.663-1.193,0.876-1.837,0.876
		c-1.5,0-2.787-0.604-3.81-1.344l-0.292-0.215L36.378,54.125L36.378,54.125z M79.767,40.918c-1.307-0.391-2.787-0.604-4.266-0.604
		c-5.261,0-10.04,3.429-10.869,7.715c-0.812,4.188,2.56,7.439,7.677,7.439c1.166,0,3.628-0.177,4.755-0.584l1.254-5.492
		c-1.209,0.836-2.5,1.363-4.001,1.363c-1.951,0-3.399-1.247-3.086-2.863c0.309-1.598,2.148-2.863,4.101-2.863
		c1.477,0,2.65,0.683,3.546,1.481L79.767,40.918L79.767,40.918z M90.21,40.314c-5.451,0-10.506,2.998-11.4,7.615
		c-0.91,4.715,2.994,7.539,8.471,7.539c5.474,0,10.472-2.824,11.383-7.539C99.554,43.314,95.659,40.314,90.21,40.314z
		 M89.274,45.145c2.069,0,3.105,1.306,2.802,2.863c-0.323,1.676-1.927,2.824-3.902,2.824s-3.134-1.148-2.812-2.824
		C85.665,46.451,87.204,45.145,89.274,45.145L89.274,45.145z M20.234,37.622c-1.628-0.472-3.476-0.729-5.316-0.729
		c-6.562,0-12.525,4.146-13.559,9.323c-1.01,5.062,3.193,8.993,9.576,8.993c1.454,0,4.526-0.211,5.931-0.704l1.562-6.642
		c-1.508,1.014-3.12,1.648-4.99,1.648c-2.435,0-4.242-1.507-3.851-3.463c0.385-1.93,2.68-3.461,5.114-3.461
		c1.839,0,3.309,0.824,4.422,1.789L20.234,37.622L20.234,37.622z"/>
	<path fill="#FFFFFF" d="M94.649,54.523c0.099-0.515,0.67-0.928,1.291-0.928c0.617,0,1.037,0.413,0.938,0.928
		c-0.101,0.515-0.674,0.929-1.292,0.929C94.966,55.452,94.552,55.037,94.649,54.523z M96.588,54.523
		c0.078-0.414-0.217-0.686-0.694-0.686c-0.484,0-0.875,0.271-0.953,0.686c-0.078,0.41,0.209,0.686,0.693,0.686
		C96.11,55.209,96.51,54.936,96.588,54.523z M96.19,55.007h-0.287l-0.184-0.411h-0.188l-0.077,0.411h-0.246l0.185-0.97h0.565
		c0.25,0,0.386,0.068,0.342,0.297c-0.032,0.166-0.163,0.252-0.312,0.264L96.19,55.007L96.19,55.007z M95.834,54.41
		c0.122,0,0.228,0,0.248-0.104c0.017-0.086-0.09-0.086-0.212-0.086h-0.266l-0.035,0.188L95.834,54.41L95.834,54.41z"/>
</g>
<path fill="#FFFFFF" d="M1.815,63.798h30.527l-0.002-0.01h-0.025l-0.385-1.679H1.815V63.798z M1.815,61.398h29.95l-0.389-1.689
	H1.815V61.398z M1.815,58.989h29.386l-0.131-0.615l-0.271-1.176H1.816L1.815,58.989L1.815,58.989z M65.605,57.186h5.328
	l-0.344,1.806h-2.428l-0.12,0.63h2.217l-0.325,1.717h-2.217l-0.123,0.646h2.514l-0.345,1.805h-5.411L65.605,57.186z"/>
</svg>
