<?xml version="1.0" encoding="utf-8"?>
<!-- Generator: Adobe Illustrator 16.0.0, SVG Export Plug-In . SVG Version: 6.00 Build 0)  -->
<!DOCTYPE svg PUBLIC "-//W3C//DTD SVG 1.1//EN" "http://www.w3.org/Graphics/SVG/1.1/DTD/svg11.dtd">
<svg version="1.1" id="Layer_1" xmlns="http://www.w3.org/2000/svg" xmlns:xlink="http://www.w3.org/1999/xlink" x="0px" y="0px"
	 width="209px" height="45px" viewBox="0 0 209 45" enable-background="new 0 0 209 45" xml:space="preserve">
<path d="M48.805,8.132v6.077h9.084l-0.032,3.829h-9.053v9.781h-4.368V4.081h15.161l0.095,4.051H48.805z"/>
<path d="M63.206,27.819V8.892l3.228-0.19l0.349,3.577h0.095c1.17-2.469,3.133-3.799,5.475-3.799c0.792,0,1.487,0.095,1.995,0.254
	l-0.254,4.083c-0.601-0.19-1.297-0.316-1.994-0.316c-2.754,0-4.874,2.151-4.874,5.729v9.591H63.206z"/>
<path d="M76.657,17.943c0-6.045,2.659-9.496,8.166-9.496c4.685,0,7.691,2.755,7.691,8.831c0,0.602-0.032,1.361-0.095,1.931H80.834
	c0.19,3.988,1.868,5.381,5.507,5.381c1.867,0,3.513-0.348,5.127-1.045l0.475,3.324c-1.615,0.792-3.704,1.298-6.077,1.298
	C79.442,28.167,76.657,24.78,76.657,17.943z M88.811,16.485c-0.063-3.354-1.583-4.618-3.957-4.618c-2.754,0-3.924,1.392-4.115,4.618
	H88.811z"/>
<path d="M99.412,6.232c-1.615,0-2.406-0.475-2.406-1.868c0-1.233,0.791-1.931,2.406-1.931c1.646,0,2.405,0.697,2.405,1.931
	C101.817,5.631,101.058,6.232,99.412,6.232z M97.354,27.819V8.892l4.083-0.223v19.15H97.354z"/>
<path d="M111.532,19.748c-0.633,0.253-1.011,0.664-1.011,1.139c0,0.539,0.44,0.981,1.423,1.045l4.591,0.316
	c4.524,0.316,6.14,1.898,6.14,4.716c0,3.671-2.374,5.981-8.452,5.981c-5.316,0-7.563-2.089-7.563-5.031
	c0-1.235,0.569-2.405,1.646-3.293c-0.854-0.537-1.489-1.455-1.489-2.721c0-1.267,0.76-2.438,2.343-3.103l0.031-0.063
	c-1.33-0.854-2.184-2.249-2.184-4.462c0-3.514,1.931-5.825,7.025-5.825c1.646,0,3.388,0.254,4.717,1.109l3.166-1.141l0.854,1.994
	l-2.121,1.583c0.253,0.633,0.38,1.393,0.38,2.279c0,3.639-1.931,5.696-6.995,5.696C113.179,19.969,112.325,19.906,111.532,19.748z
	 M111.247,25.382c-0.726,0.601-1.138,1.361-1.138,2.024c0,1.582,1.17,2.438,4.02,2.438c3.924,0,4.906-0.919,4.906-2.278
	c0-1.076-0.602-1.646-3.197-1.836L111.247,25.382z M110.962,14.335c0,2.216,1.236,2.785,3.008,2.785c2.47,0,3.197-0.854,3.197-2.785
	c0-2.057-0.918-2.785-3.102-2.785C111.786,11.55,110.962,12.437,110.962,14.335z"/>
<path d="M137.897,27.819V15.476c0-2.217-1.141-3.388-3.607-3.388c-1.678,0-3.134,0.76-3.8,1.772v13.959h-4.019V3.035l4.019-0.222
	v4.875l-0.062,2.532l0.095,0.063c1.424-1.329,3.229-1.868,5.032-1.868c4.052,0,6.395,2.564,6.395,7.06v12.344H137.897z"/>
<path d="M151.348,11.867v10.602c0,1.678,0.886,2.374,2.501,2.374c0.506,0,1.202-0.095,1.551-0.222l0.253,3.007
	c-0.633,0.286-1.804,0.508-2.976,0.508c-3.577,0-5.348-2.059-5.348-5.571V11.867h-2.374V8.765h2.5l0.728-4.463l3.165-0.316v4.779
	h4.463v3.103H151.348z"/>
<path d="M158.311,17.943c0-6.045,2.657-9.496,8.165-9.496c4.686,0,7.691,2.755,7.691,8.831c0,0.602-0.032,1.361-0.095,1.931h-11.584
	c0.19,3.988,1.868,5.381,5.508,5.381c1.867,0,3.512-0.348,5.126-1.045l0.476,3.324c-1.615,0.792-3.702,1.298-6.077,1.298
	C161.095,28.167,158.311,24.78,158.311,17.943z M170.464,16.485c-0.062-3.354-1.582-4.618-3.957-4.618
	c-2.753,0-3.923,1.392-4.113,4.618H170.464z"/>
<path d="M178.344,27.819V8.892l3.229-0.19l0.349,3.577h0.096c1.171-2.469,3.132-3.799,5.474-3.799c0.792,0,1.489,0.095,1.995,0.254
	l-0.253,4.083c-0.601-0.19-1.298-0.316-1.995-0.316c-2.754,0-4.873,2.151-4.873,5.729v9.591H178.344z"/>
<path d="M203.19,25.793l-0.095-0.031c-1.172,1.487-3.104,2.374-5.383,2.374c-3.544,0-5.886-1.964-5.886-6.204
	c0-3.577,2.405-5.888,6.836-5.888c1.487,0,2.882,0.254,3.957,0.602v-1.423c0-2.375-1.14-3.324-3.99-3.324
	c-2.057,0-3.542,0.316-5.284,1.076l-0.349-3.324c1.868-0.822,3.988-1.234,6.361-1.234c5.319,0,7.249,2.279,7.249,7.407v11.996
	h-3.069L203.19,25.793z M202.62,19.431c-0.475-0.222-1.646-0.538-3.229-0.538c-2.596,0-3.767,1.045-3.767,2.976
	c0,2.216,1.329,3.006,3.197,3.006c1.995,0,3.799-1.265,3.799-2.658V19.431z"/>
<path fill-rule="evenodd" clip-rule="evenodd" fill="#0066A4" d="M34.815,11.742C25.137,11.268,10.596,0.748,10.607,0.596
	c4.231,0,8.463-0.079,12.69,0.025c3.147,0.076,6.29,0.363,9.432,0.601c2.121,0.159,2.703,0.853,2.58,2.992
	C35.166,6.697,34.986,9.18,34.815,11.742z"/>
<path fill-rule="evenodd" clip-rule="evenodd" fill="#6FBC2E" d="M33.57,20.19c-0.648,3.037-1.156,5.983-1.971,8.844
	c-0.215,0.755-1.365,1.74-2.116,1.768c-6,0.212-12.006,0.22-18.011,0.277C11.473,31.079,24.481,20.954,33.57,20.19z"/>
<path fill-rule="evenodd" clip-rule="evenodd" fill="#0066A4" d="M2.396,29.274l0.594-5.258c8.563-2.162,17.6-4.639,26.447-5.407
	c1.184-0.104,3.199-0.289,4.418-0.213l-0.036,0.177C22.32,20.896,14.24,23.247,2.396,29.274z"/>
<path fill-rule="evenodd" clip-rule="evenodd" fill="#0066A4" d="M34.703,13.267l-0.039,0.216c-9.608-0.146-20.336-2.782-29.741-5.2
	C5.2,6.904,5.461,5.607,5.772,4.071C15.112,8.113,24.479,12.408,34.703,13.267z"/>
<path fill-rule="evenodd" clip-rule="evenodd" fill="#0066A4" d="M2.99,20.22c0.106-0.87,0.208-1.712,0.36-2.954
	c10.182-0.301,20.751-0.565,30.981-0.867l-0.102,0.295C23.936,17.824,13.431,19.071,2.99,20.22z"/>
<path fill-rule="evenodd" clip-rule="evenodd" fill="#0066A4" d="M3.767,14.543c0.181-1.107,0.325-1.977,0.455-2.772
	c9.89,1.07,20.543,2.026,30.335,3.085l-0.078,0.215C24.408,15.54,14.075,14.808,3.767,14.543z"/>
<g>
	<path fill="#666666" d="M46.23,37.953v2.562h3.004v0.565H46.23v3.354h-0.624v-7.086h4.176l0.019,0.604H46.23z"/>
	<path fill="#666666" d="M56.923,41.137l1.975,3.298h-0.755l-1.814-3.185h-1.645v3.185H54.06v-7.086h2.296
		c1.427,0,2.08,0.624,2.08,1.919C58.436,40.42,57.906,41.024,56.923,41.137z M56.356,37.906h-1.672v2.835h1.616
		c1.031,0,1.494-0.416,1.494-1.446C57.793,38.303,57.348,37.906,56.356,37.906z"/>
	<path fill="#666666" d="M67.428,43.85L67.4,44.435h-4.347v-7.086h4.177l0.028,0.587h-3.591v2.522h3.109v0.528h-3.109v2.863H67.428z
		"/>
	<path fill="#666666" d="M71.932,37.349h0.624v7.086h-0.624V37.349z"/>
	<path fill="#666666" d="M82.344,44.151c-0.501,0.246-1.247,0.416-2.022,0.416c-2.136,0-3.09-1.058-3.09-3.647
		c0-2.636,0.973-3.685,3.109-3.685c0.661,0,1.36,0.143,1.833,0.35l-0.085,0.576c-0.482-0.208-1.059-0.35-1.72-0.35
		c-1.692,0-2.495,0.719-2.495,3.099c0,2.259,0.708,3.053,2.438,3.053c0.577,0,1.068-0.095,1.474-0.265v-2.985h0.558V44.151z"/>
	<path fill="#666666" d="M91.346,44.435v-3.41h-3.827v3.41h-0.624v-7.086h0.624v3.09h3.827v-3.09h0.624v7.086H91.346z"/>
	<path fill="#666666" d="M98.874,37.953v6.481H98.25v-6.481h-2.221l0.019-0.604h5.046l0.009,0.604H98.874z"/>
	<path fill="#666666" d="M111.757,37.349l2.24,5.508l0.273,0.71h0.029l0.265-0.71l2.238-5.508h0.729v7.086h-0.559v-5.3l0.02-0.766
		l-0.028-0.009l-0.274,0.718l-2.183,5.356h-0.472l-2.184-5.329l-0.274-0.717l-0.02,0.009l0.01,0.766v5.271h-0.548v-7.086H111.757z"
		/>
	<path fill="#666666" d="M126.399,42.564h-3.411l-0.671,1.87h-0.671l2.692-7.086h0.737l2.692,7.086h-0.698L126.399,42.564z
		 M124.454,38.54l-1.259,3.468h3.006l-1.238-3.468l-0.236-0.729h-0.028L124.454,38.54z"/>
	<path fill="#666666" d="M134.75,41.137l1.975,3.298h-0.756l-1.814-3.185h-1.645v3.185h-0.623v-7.086h2.296
		c1.426,0,2.078,0.624,2.078,1.919C136.261,40.42,135.731,41.024,134.75,41.137z M134.183,37.906h-1.673v2.835h1.617
		c1.029,0,1.491-0.416,1.491-1.446C135.618,38.303,135.175,37.906,134.183,37.906z"/>
	<path fill="#666666" d="M145.254,44.435l-2.569-3.43h-1.182v3.43h-0.624v-7.086h0.624v3.1h1.189l2.439-3.1h0.775l-2.647,3.346
		l2.808,3.74H145.254z"/>
	<path fill="#666666" d="M154.643,43.85l-0.027,0.585h-4.347v-7.086h4.177l0.028,0.587h-3.591v2.522h3.109v0.528h-3.109v2.863
		H154.643z"/>
	<path fill="#666666" d="M160.99,37.953v6.481h-0.624v-6.481h-2.22l0.019-0.604h5.047l0.01,0.604H160.99z"/>
	<path fill="#666666" d="M169.54,41.572h-1.635v2.862h-0.625v-7.086h2.26c1.606,0,2.305,0.624,2.305,2.107
		C171.845,40.883,171.165,41.572,169.54,41.572z M169.54,37.906h-1.635v3.128h1.635c1.105,0,1.673-0.378,1.673-1.578
		C171.213,38.322,170.675,37.906,169.54,37.906z"/>
	<path fill="#666666" d="M180.356,43.83l-0.028,0.604h-4.109v-7.086h0.623v6.481H180.356z"/>
	<path fill="#666666" d="M188.434,42.564h-3.412l-0.672,1.87h-0.671l2.693-7.086h0.736l2.695,7.086h-0.699L188.434,42.564z
		 M186.486,38.54l-1.258,3.468h3.007l-1.239-3.468l-0.236-0.729h-0.028L186.486,38.54z"/>
	<path fill="#666666" d="M197.926,38.152c-0.388-0.18-0.954-0.322-1.54-0.322c-1.616,0-2.371,0.737-2.371,2.986
		c0,2.4,0.765,3.156,2.399,3.156c0.595,0,1.104-0.143,1.53-0.369l0.104,0.538c-0.425,0.228-1.077,0.426-1.71,0.426
		c-2.06,0-2.967-1.144-2.967-3.751c0-2.485,0.926-3.581,2.984-3.581c0.596,0,1.285,0.161,1.654,0.34L197.926,38.152z"/>
	<path fill="#666666" d="M206.739,43.85l-0.028,0.585h-4.346v-7.086h4.176l0.029,0.587h-3.591v2.522h3.108v0.528h-3.108v2.863
		H206.739z"/>
</g>
</svg>
