<?xml version="1.0" encoding="utf-8"?>
<!-- Generator: Adobe Illustrator 16.0.0, SVG Export Plug-In . SVG Version: 6.00 Build 0)  -->
<!DOCTYPE svg PUBLIC "-//W3C//DTD SVG 1.1//EN" "http://www.w3.org/Graphics/SVG/1.1/DTD/svg11.dtd">
<svg version="1.1" id="Layer_1" xmlns="http://www.w3.org/2000/svg" xmlns:xlink="http://www.w3.org/1999/xlink" x="0px" y="0px"
	 width="35px" height="65px" viewBox="0 0 35 65" enable-background="new 0 0 35 65" xml:space="preserve">
<g>
	<polygon fill="#FFFFFF" points="0.498,30.552 34.495,30.552 34.495,64.549 0.498,64.549 	"/>
	<path fill="#717A83" d="M0.499,30.552c7.11,0,14.219,0,21.329,0c1.718,0,3.435-0.005,5.147,0.001
		c-0.476,0.482-0.961,0.961-1.438,1.443c0.188,0.2,0.39,0.387,0.577,0.581c0.438-0.298,0.93-0.539,1.465-0.578
		c0.48-0.048,0.967,0.076,1.41,0.269c0.167,0.071,0.324,0.186,0.514,0.203c0.188-0.01,0.325-0.175,0.391-0.339
		c0.054-0.114,0.002-0.249-0.086-0.333c-0.414-0.417-0.834-0.827-1.242-1.246c1.977-0.01,3.955,0,5.931-0.001
		c0,1.927,0.002,3.857,0,5.79c-0.408-0.398-0.804-0.806-1.209-1.205c-0.104-0.111-0.28-0.17-0.427-0.103
		c-0.098,0.048-0.189,0.121-0.231,0.226c-0.054,0.209,0.036,0.412,0.122,0.598c0.248,0.527,0.357,1.123,0.283,1.705
		c-0.051,0.396-0.191,0.785-0.405,1.127c-0.058,0.08-0.112,0.166-0.161,0.252c0.207,0.18,0.381,0.393,0.594,0.568
		c0.47-0.486,0.955-0.961,1.436-1.443c0,3.223,0.002,6.447,0,9.67c-0.094,0.031-0.198,0.098-0.294,0.051
		c-0.13-0.084-0.226-0.205-0.332-0.307c-1.156-1.15-2.304-2.311-3.463-3.457c-0.46,0.461-0.914,0.926-1.382,1.377
		c0.246,0.277,0.521,0.523,0.779,0.789c0.926,0.93,1.854,1.857,2.787,2.785c0.078,0.084,0.17,0.154,0.215,0.262
		c0.014,0.117-0.068,0.217-0.103,0.324c-0.045,0.125,0.056,0.275,0.187,0.279c0.117,0.02,0.217-0.058,0.293-0.138
		c0.436-0.438,0.875-0.872,1.312-1.309c0,5.383,0,10.768,0,16.153c-5.384,0-10.771,0-16.158,0c0.414-0.416,0.828-0.826,1.241-1.242
		c-1.409-1.405-2.815-2.812-4.222-4.221c-0.461,0.441-0.903,0.902-1.36,1.349c-0.095,0.104-0.204,0.196-0.249,0.334
		c-0.021,0.131,0.1,0.256,0.229,0.262c0.115-0.015,0.211-0.088,0.326-0.112c0.1-0.009,0.178,0.071,0.248,0.137
		c0.836,0.842,1.676,1.676,2.514,2.516c0.211,0.221,0.439,0.422,0.635,0.648c0.091,0.102,0.031,0.229-0.02,0.332
		c-3.225,0-6.444,0-9.665,0c0.761-0.765,1.521-1.523,2.282-2.283c0.143-0.135,0.289-0.293,0.311-0.5
		c0.031-0.238-0.211-0.479-0.45-0.43c-0.2,0.041-0.364,0.196-0.571,0.196c-0.133-0.012-0.233-0.104-0.321-0.19
		c-1.817-1.814-3.63-3.633-5.445-5.443c-0.121-0.123-0.266-0.24-0.31-0.414c-0.006-0.207,0.14-0.377,0.193-0.564
		c0.068-0.24-0.157-0.502-0.4-0.481c-0.168,0.01-0.318,0.104-0.432,0.226c-0.786,0.797-1.585,1.582-2.37,2.377
		C0.495,48.211,0.499,39.379,0.499,30.552L0.499,30.552z"/>
	<path fill="#FFFFFF" d="M25.019,32.511c0.033-0.036,0.09-0.068,0.123-0.014c2.486,2.485,4.977,4.973,7.459,7.459
		c-0.869,0.87-1.744,1.745-2.614,2.62c-0.116,0.109-0.255,0.195-0.412,0.207c-0.218,0.019-0.435-0.178-0.418-0.399
		c0.008-0.217,0.192-0.385,0.198-0.605c0.004-0.139-0.102-0.244-0.19-0.338c-1.847-1.844-3.688-3.689-5.533-5.535
		c-0.104-0.1-0.218-0.225-0.375-0.215c-0.231,0.006-0.405,0.219-0.643,0.195c-0.138,0.002-0.247-0.105-0.313-0.215
		c-0.093-0.193-0.007-0.426,0.133-0.568C23.296,34.238,24.159,33.375,25.019,32.511L25.019,32.511z"/>
	<path fill="#FFFFFF" d="M28.603,33.234c0.071-0.131,0.207-0.252,0.367-0.23c0.18,0.015,0.307,0.162,0.426,0.279
		c0.713,0.717,1.429,1.432,2.141,2.145c0.138,0.132,0.298,0.263,0.329,0.459c0.019,0.203-0.167,0.384-0.363,0.404
		c-0.164,0.004-0.313-0.084-0.456-0.162c-0.304-0.18-0.646-0.321-1.007-0.305c-0.187-0.004-0.365,0.072-0.532,0.146
		c-0.195-0.211-0.419-0.4-0.605-0.619c0.057-0.158,0.132-0.312,0.142-0.482c0.026-0.391-0.131-0.762-0.328-1.088
		C28.615,33.623,28.537,33.422,28.603,33.234L28.603,33.234z"/>
	<path fill="#FFFFFF" d="M12.872,35.127c0.384-0.406,0.792-0.787,1.178-1.19c0.368,0.356,0.725,0.719,1.086,1.08
		c0.117,0.11,0.012,0.307-0.121,0.354c-0.11,0.012-0.207-0.062-0.308-0.099c-0.386-0.188-0.864-0.211-1.25-0.002
		c-0.101,0.041-0.183,0.125-0.289,0.146C13.062,35.328,12.972,35.223,12.872,35.127L12.872,35.127z"/>
	<path fill="#FFFFFF" d="M12.629,35.355c0.525,0.508,1.03,1.033,1.55,1.543c0.811,0.807,1.615,1.621,2.43,2.428
		c-0.463,0.471-0.932,0.936-1.398,1.398c-0.097,0.107-0.289,0.156-0.382,0.023c-0.115-0.121,0.012-0.271,0.046-0.398
		c0.043-0.092-0.031-0.174-0.092-0.236c-0.936-0.934-1.866-1.863-2.799-2.799c-0.084-0.08-0.157-0.176-0.262-0.23
		c-0.143-0.031-0.252,0.099-0.393,0.104c-0.105-0.011-0.207-0.117-0.191-0.228c0.006-0.086,0.057-0.162,0.117-0.223
		C11.712,36.277,12.175,35.824,12.629,35.355L12.629,35.355z"/>
	<path fill="#FFFFFF" d="M14.492,35.928c-0.047-0.117,0.036-0.26,0.159-0.279c0.095-0.012,0.169,0.059,0.232,0.121
		c0.387,0.383,0.771,0.773,1.16,1.154c0.068,0.074,0.165,0.143,0.171,0.254c0.015,0.108-0.093,0.217-0.207,0.207
		c-0.149,0-0.264-0.119-0.399-0.168c-0.2-0.092-0.442-0.101-0.639,0.006c-0.104-0.102-0.207-0.209-0.313-0.305
		c0.046-0.158,0.089-0.328,0.049-0.49C14.679,36.242,14.549,36.1,14.492,35.928L14.492,35.928z"/>
	<path fill="#FFFFFF" d="M21.329,36.207c0.096-0.098,0.218-0.17,0.352-0.188c0.241-0.033,0.49,0.199,0.443,0.441
		c-0.029,0.215-0.212,0.385-0.195,0.608c0.035,0.158,0.166,0.267,0.269,0.377c1.823,1.818,3.647,3.636,5.465,5.459
		c0.101,0.091,0.2,0.207,0.343,0.207c0.213,0,0.378-0.16,0.582-0.194c0.236-0.039,0.469,0.192,0.439,0.428
		c-0.016,0.162-0.111,0.301-0.223,0.41c-0.918,0.914-1.83,1.836-2.748,2.75c-0.119,0.115-0.27,0.225-0.441,0.225
		c-0.195,0.012-0.381-0.154-0.404-0.344c-0.023-0.25,0.207-0.435,0.199-0.687c-0.01-0.116-0.092-0.213-0.17-0.299
		c-1.604-1.601-3.204-3.203-4.807-4.801c1.324,2.457,2.66,4.911,3.984,7.368c0.02,0.037,0.038,0.076,0.057,0.121
		c-0.096,0.088-0.188,0.185-0.283,0.279c-2.651-1.305-5.299-2.627-7.948-3.938c-0.417-0.207-0.833-0.449-1.304-0.506
		c-0.157-0.021-0.264,0.106-0.379,0.188c-0.117,0.093-0.273,0.15-0.42,0.104c-0.175-0.08-0.297-0.285-0.242-0.476
		c0.035-0.129,0.125-0.235,0.217-0.327c0.857-0.854,1.71-1.709,2.566-2.562c1.334,0.653,2.674,1.293,4.012,1.944
		c0.043,0.033,0.091,0.066,0.13,0.109c0.021-0.027,0.038-0.051,0.061-0.076l-0.051,0.006c-0.703-1.34-1.442-2.658-2.146-3.996
		C19.573,37.967,20.447,37.084,21.329,36.207L21.329,36.207z"/>
	<path fill="#FFFFFF" d="M16.642,36.811c0.064-0.117,0.246-0.133,0.332-0.033c0.36,0.365,0.728,0.729,1.09,1.094
		c-0.406,0.41-0.812,0.818-1.227,1.223c-0.093-0.104-0.217-0.192-0.29-0.315c0.118-0.201,0.243-0.403,0.275-0.639
		c0.061-0.326,0.007-0.669-0.134-0.97C16.651,37.055,16.565,36.924,16.642,36.811L16.642,36.811z"/>
	<path fill="#FFFFFF" d="M10.647,37.344c0.072-0.072,0.149-0.152,0.254-0.178c0.103-0.021,0.232,0.043,0.246,0.157
		c0.024,0.123-0.067,0.229-0.092,0.351c-0.015,0.096,0.064,0.164,0.121,0.229c0.953,0.953,1.903,1.904,2.856,2.855
		c0.063,0.061,0.132,0.137,0.224,0.158c0.115-0.013,0.211-0.089,0.321-0.113c0.135-0.012,0.262,0.133,0.217,0.262
		c-0.017,0.098-0.092,0.168-0.155,0.236c-0.466,0.463-0.93,0.928-1.393,1.389c-0.083,0.082-0.188,0.168-0.312,0.139
		c-0.067-0.027-0.125-0.082-0.149-0.148c-0.035-0.157,0.133-0.286,0.093-0.44c-0.035-0.062-0.085-0.108-0.133-0.159
		c-0.436-0.433-0.867-0.869-1.307-1.302c-0.153,0.154-0.306,0.31-0.463,0.465c-0.107-0.104-0.215-0.209-0.314-0.319
		c0.156-0.154,0.311-0.312,0.467-0.465c-0.385-0.377-0.767-0.763-1.149-1.146c-0.082-0.078-0.153-0.164-0.25-0.224
		c-0.176-0.057-0.344,0.189-0.51,0.056c-0.137-0.099-0.093-0.289,0.017-0.39C9.705,38.281,10.18,37.818,10.647,37.344L10.647,37.344
		z"/>
	<path fill="#FFFFFF" d="M8.82,39.197c0.107-0.066,0.268-0.023,0.317,0.098c0.05,0.146-0.082,0.271-0.085,0.414
		c-0.003,0.074,0.057,0.129,0.103,0.176c0.989,0.992,1.974,1.979,2.964,2.968c0.177,0.188,0.405-0.142,0.599,0.002
		c0.125,0.101,0.082,0.297-0.025,0.389c-0.463,0.468-0.932,0.931-1.391,1.396c-0.076,0.069-0.15,0.155-0.255,0.188
		c-0.112,0.031-0.253-0.041-0.267-0.162c-0.021-0.143,0.105-0.252,0.1-0.393c-0.019-0.061-0.059-0.109-0.1-0.156
		c-0.934-0.932-1.871-1.867-2.803-2.803c-0.088-0.082-0.164-0.186-0.282-0.229c-0.128-0.006-0.236,0.09-0.36,0.104
		c-0.107,0.004-0.2-0.094-0.204-0.197c-0.01-0.109,0.068-0.199,0.144-0.273c0.465-0.463,0.928-0.928,1.389-1.393
		C8.712,39.279,8.759,39.234,8.82,39.197L8.82,39.197z"/>
	<path fill="#FFFFFF" d="M6.239,41.75c0.214-0.207,0.421-0.422,0.635-0.631c0.375,0.365,0.743,0.742,1.118,1.109
		c0.064,0.07,0.142,0.137,0.179,0.229c0.042,0.176-0.158,0.367-0.332,0.289c-0.175-0.076-0.315-0.217-0.482-0.309
		c-0.282-0.176-0.611-0.287-0.946-0.248c-0.098-0.1-0.205-0.193-0.29-0.299C6.15,41.832,6.196,41.793,6.239,41.75L6.239,41.75z"/>
	<path fill="#FFFFFF" d="M4.682,43.307c0.401-0.396,0.793-0.789,1.188-1.186c0.75,0.754,1.503,1.508,2.257,2.256
		c0.414,0.409,0.817,0.828,1.234,1.231c0.118,0.131,0.274,0.021,0.404-0.024c0.128-0.06,0.278,0.059,0.274,0.192
		c0,0.095-0.053,0.17-0.114,0.233c-0.486,0.482-0.965,0.966-1.446,1.447c-0.067,0.068-0.154,0.135-0.252,0.129
		c-0.111,0.01-0.218-0.096-0.208-0.203c0.007-0.114,0.097-0.209,0.097-0.321c0.008-0.097-0.075-0.156-0.132-0.224
		c-1.138-1.131-2.266-2.272-3.409-3.401C4.611,43.393,4.643,43.35,4.682,43.307L4.682,43.307z"/>
	<path fill="#FFFFFF" d="M31.476,42.957c0.441,0.437,0.879,0.875,1.316,1.316c0.139,0.133,0.038,0.396-0.146,0.426
		c-0.172,0.025-0.303-0.111-0.437-0.199c-0.354-0.244-0.771-0.471-1.214-0.397c-0.118-0.104-0.232-0.218-0.328-0.343
		C30.94,43.496,31.205,43.225,31.476,42.957L31.476,42.957z"/>
	<path fill="#FFFFFF" d="M4.319,43.682c0.131,0.051,0.213,0.199,0.321,0.293c-0.059,0.414,0.139,0.803,0.37,1.129
		c0.069,0.102,0.151,0.199,0.194,0.316c0.046,0.155-0.107,0.319-0.264,0.303c-0.089,0-0.15-0.074-0.208-0.129
		c-0.389-0.392-0.782-0.777-1.17-1.17C3.818,44.182,4.057,43.922,4.319,43.682L4.319,43.682z"/>
	<path fill="#FFFFFF" d="M12.263,45.695c0.709-0.229,1.479-0.254,2.213-0.104c1.24,0.264,2.34,0.992,3.22,1.895
		c0.858,0.871,1.546,1.965,1.776,3.18c0.129,0.668,0.102,1.367-0.095,2.021c-0.188,0.646-0.53,1.242-0.963,1.758
		c-0.185-0.197-0.39-0.379-0.567-0.578c0-0.098,0.062-0.18,0.08-0.273c0.096-0.313,0-0.666-0.238-0.895
		c-1.764-1.768-3.535-3.535-5.299-5.301c-0.16-0.166-0.363-0.297-0.597-0.314c-0.188-0.024-0.375,0.043-0.553,0.107
		c-0.072,0.037-0.119-0.051-0.165-0.086c-0.143-0.154-0.301-0.293-0.443-0.451c0-0.01-0.002-0.033-0.002-0.043
		C11.103,46.205,11.661,45.887,12.263,45.695L12.263,45.695z"/>
	<path fill="#FFFFFF" d="M17.074,45.498c0.164,0.053,0.313,0.137,0.467,0.215c0.575,0.277,1.146,0.566,1.726,0.851
		c0.049,0.024,0.097,0.063,0.138,0.103c0.483,0.495,0.976,0.979,1.465,1.469c0.265,0.281,0.597,0.5,0.957,0.635
		c0.253,0.096,0.538,0.096,0.793,0.008c0.128-0.045,0.269-0.094,0.401-0.049c0.137,0.053,0.235,0.188,0.246,0.336
		c-0.011,0.195-0.136,0.361-0.269,0.494c-0.435,0.445-0.877,0.881-1.317,1.32c-0.119,0.104-0.256,0.215-0.422,0.233
		c-0.232,0.035-0.466-0.217-0.395-0.444c0.066-0.23,0.16-0.466,0.122-0.707c-0.058-0.408-0.289-0.771-0.548-1.08
		c-0.967-0.972-1.938-1.938-2.909-2.912C17.38,45.809,17.216,45.668,17.074,45.498L17.074,45.498z"/>
	<path fill="#FFFFFF" d="M27.962,46.469c0.268-0.269,0.538-0.535,0.807-0.808c0.117,0.097,0.222,0.212,0.332,0.318
		c-0.045,0.354,0.074,0.711,0.26,1.01c0.098,0.172,0.236,0.318,0.322,0.496c0.047,0.086,0.014,0.183-0.019,0.269
		c0.449,0.305,0.847,0.69,1.16,1.127c0.358,0.514,0.612,1.121,0.6,1.754c0.003,0.604-0.257,1.184-0.639,1.641
		c-0.103-0.109-0.226-0.203-0.313-0.326c0.018-0.131,0.082-0.262,0.051-0.393c-0.037-0.17-0.17-0.293-0.287-0.41
		c-0.941-0.939-1.881-1.879-2.819-2.818c-0.095-0.092-0.205-0.176-0.336-0.188c-0.125-0.016-0.249,0.021-0.362,0.059
		c-0.113-0.1-0.223-0.211-0.328-0.318c0.476-0.407,1.092-0.67,1.723-0.637c0.242-0.008,0.479,0.051,0.714,0.104
		C28.538,47.053,28.236,46.773,27.962,46.469L27.962,46.469z"/>
	<path fill="#FFFFFF" d="M9.281,48.564c0.195-0.545,0.506-1.045,0.874-1.492c0.182,0.188,0.374,0.363,0.554,0.555
		c0.036,0.113-0.058,0.222-0.076,0.336c-0.092,0.308,0.029,0.642,0.253,0.863c1.735,1.738,3.476,3.473,5.213,5.211
		c0.166,0.182,0.371,0.354,0.627,0.393c0.229,0.035,0.455-0.045,0.664-0.12c0.193,0.19,0.387,0.383,0.58,0.573
		c-0.423,0.369-0.912,0.656-1.433,0.861c-0.786,0.303-1.665,0.354-2.488,0.172c-1.253-0.274-2.356-1.029-3.237-1.947
		c-0.814-0.852-1.471-1.896-1.703-3.065C8.952,50.129,9.001,49.309,9.281,48.564L9.281,48.564z"/>
	<path fill="#FFFFFF" d="M25.505,49.596c0.044-0.541,0.281-1.062,0.641-1.467c0.103,0.106,0.213,0.215,0.32,0.319
		c-0.039,0.132-0.1,0.267-0.064,0.402c0.021,0.12,0.104,0.217,0.188,0.303c0.943,0.938,1.88,1.881,2.82,2.82
		c0.11,0.104,0.219,0.233,0.376,0.274c0.143,0.043,0.288-0.008,0.428-0.053c0.106,0.109,0.217,0.215,0.32,0.328
		c-0.449,0.373-1.012,0.635-1.604,0.635c-0.574,0.023-1.139-0.18-1.615-0.479c-0.348-0.223-0.664-0.49-0.928-0.801
		c0.125,0.418,0.096,0.887-0.102,1.278c-0.193,0.386-0.494,0.697-0.789,1.004c-0.107-0.106-0.217-0.219-0.328-0.325
		c0.092-0.15,0.151-0.33,0.096-0.504c-0.065-0.179-0.213-0.308-0.343-0.443c-0.266-0.266-0.53-0.535-0.8-0.803
		c-0.156-0.146-0.324-0.312-0.551-0.328c-0.133-0.015-0.248,0.053-0.358,0.119c-0.11-0.109-0.219-0.22-0.327-0.326
		c0.428-0.433,0.914-0.877,1.545-0.957c0.512-0.084,1.031,0.137,1.396,0.488C25.599,50.627,25.454,50.115,25.505,49.596
		L25.505,49.596z"/>
	<path fill="#FFFFFF" d="M6.688,50.844c0.108-0.105,0.247-0.185,0.397-0.193c0.246-0.016,0.471,0.242,0.402,0.48
		c-0.053,0.182-0.185,0.344-0.191,0.539c0.014,0.172,0.157,0.295,0.271,0.405c1.832,1.834,3.667,3.668,5.499,5.5
		c0.084,0.08,0.183,0.162,0.304,0.175c0.207,0,0.368-0.154,0.563-0.199c0.235-0.047,0.472,0.166,0.459,0.401
		c-0.006,0.16-0.097,0.308-0.205,0.423c-0.922,0.92-1.848,1.844-2.769,2.768c-0.121,0.115-0.271,0.221-0.444,0.221
		c-0.215,0.006-0.416-0.195-0.396-0.414c0.021-0.215,0.199-0.389,0.204-0.607c-0.007-0.133-0.11-0.231-0.193-0.325
		c-0.821-0.822-1.646-1.642-2.462-2.464c-0.033-0.022-0.076-0.096-0.122-0.047c-0.286,0.275-0.561,0.564-0.847,0.843
		c-0.192-0.193-0.386-0.388-0.578-0.584c0.275-0.287,0.56-0.57,0.849-0.851c0-0.014,0.004-0.047,0.004-0.061
		c-0.775-0.76-1.535-1.531-2.307-2.299c-0.117-0.109-0.229-0.25-0.393-0.289c-0.225-0.014-0.4,0.16-0.61,0.199
		c-0.271,0.047-0.517-0.26-0.425-0.513c0.047-0.18,0.189-0.309,0.315-0.432C4.904,52.625,5.8,51.74,6.688,50.844L6.688,50.844z"/>
	<path fill="#FFFFFF" d="M22.628,51.807c0.43,0.4,0.831,0.828,1.253,1.24c0.798,0.801,1.603,1.604,2.406,2.408
		c0.058,0.047,0.11,0.108,0.185,0.125c0.153,0.014,0.274-0.138,0.43-0.109c0.093,0.033,0.179,0.123,0.168,0.227
		c0,0.139-0.117,0.236-0.203,0.328c-0.504,0.496-0.998,1-1.504,1.496c-0.11,0.121-0.318,0.061-0.385-0.074
		c-0.101-0.17,0.172-0.346,0.028-0.502c-1.034-1.029-2.071-2.066-3.104-3.102c-0.073-0.066-0.137-0.152-0.228-0.199
		c-0.153-0.043-0.274,0.088-0.418,0.104c-0.108-0.012-0.219-0.106-0.209-0.223c-0.013-0.123,0.081-0.221,0.159-0.303
		C21.681,52.752,22.155,52.277,22.628,51.807L22.628,51.807z"/>
	<path fill="#FFFFFF" d="M19.444,54.986c0.424-0.416,0.84-0.85,1.271-1.26c0.38,0.385,0.765,0.768,1.148,1.152
		c0.128,0.125-0.009,0.313-0.142,0.373c-0.092,0.01-0.177-0.047-0.259-0.084c-0.33-0.158-0.707-0.238-1.069-0.146
		c-0.228,0.045-0.428,0.174-0.627,0.291C19.661,55.205,19.556,55.094,19.444,54.986L19.444,54.986z"/>
	<path fill="#FFFFFF" d="M17.709,56.725c0.493-0.5,0.992-0.988,1.483-1.484c0.801,0.789,1.591,1.592,2.394,2.381
		c0.612,0.611,1.222,1.229,1.839,1.834c-0.479,0.492-0.972,0.973-1.449,1.461c-0.067,0.076-0.166,0.119-0.254,0.156
		c-0.09-0.031-0.199-0.062-0.229-0.164c-0.055-0.166,0.12-0.299,0.1-0.463c-0.07-0.139-0.195-0.24-0.303-0.35
		c-0.868-0.867-1.734-1.736-2.604-2.604c-0.153-0.143-0.281-0.312-0.465-0.42c-0.182-0.037-0.346,0.195-0.521,0.072
		C17.552,57.047,17.595,56.832,17.709,56.725L17.709,56.725z"/>
	<path fill="#FFFFFF" d="M21.171,55.84c-0.056-0.146,0.078-0.318,0.232-0.293c0.072,0.018,0.123,0.065,0.176,0.112
		c0.374,0.38,0.752,0.75,1.124,1.132c0.121,0.123,0.278,0.229,0.327,0.407c-0.045,0.078-0.096,0.188-0.203,0.197
		c-0.176,0.019-0.303-0.123-0.461-0.181c-0.213-0.104-0.475-0.104-0.688,0.006c-0.115-0.114-0.226-0.229-0.342-0.34
		c0.08-0.17,0.116-0.36,0.059-0.541C21.353,56.16,21.231,56.012,21.171,55.84L21.171,55.84z"/>
	<path fill="#FFFFFF" d="M23.468,56.771c0.075-0.113,0.256-0.133,0.346-0.025c0.386,0.391,0.777,0.775,1.16,1.168
		c-0.439,0.428-0.859,0.877-1.31,1.297c-0.104-0.11-0.215-0.219-0.323-0.33c0.383-0.471,0.438-1.151,0.182-1.694
		C23.474,57.059,23.373,56.9,23.468,56.771L23.468,56.771z"/>
	<path fill="#717A83" d="M0.499,58.193c0.143-0.059,0.278-0.148,0.436-0.145c0.19,0.037,0.306,0.205,0.439,0.33
		c1.795,1.787,3.584,3.58,5.375,5.367c0.1,0.11,0.229,0.221,0.247,0.377c-0.007,0.155-0.089,0.293-0.153,0.426
		c-2.117,0-4.23,0-6.344,0C0.499,62.43,0.495,60.311,0.499,58.193L0.499,58.193z"/>
	<path fill="#FFFFFF" d="M17.117,58.096c0.635-0.053,1.266,0.174,1.792,0.521c0.41,0.273,0.792,0.595,1.085,0.99
		c0.349,0.467,0.563,1.037,0.567,1.627c0.011,0.672-0.254,1.351-0.731,1.824c-0.108-0.107-0.218-0.214-0.323-0.328
		c0.062-0.117,0.139-0.248,0.115-0.392c-0.033-0.213-0.182-0.389-0.328-0.533c-0.802-0.805-1.605-1.606-2.408-2.411
		c-0.166-0.158-0.352-0.334-0.593-0.354c-0.133-0.012-0.251,0.055-0.36,0.119c-0.104-0.113-0.246-0.199-0.311-0.342
		C16.015,58.414,16.548,58.133,17.117,58.096L17.117,58.096z"/>
	<g>
		<path fill="#FFFFFF" d="M31.545,62.529c0-0.641,0.521-1.111,1.134-1.111c0.607,0,1.127,0.472,1.127,1.111
			c0,0.648-0.52,1.119-1.127,1.119C32.063,63.648,31.545,63.178,31.545,62.529z M32.679,63.463c0.504,0,0.902-0.395,0.902-0.934
			c0-0.529-0.398-0.928-0.902-0.928c-0.513,0-0.91,0.398-0.91,0.928C31.769,63.068,32.166,63.463,32.679,63.463z M32.442,63.178
			h-0.196v-1.289h0.49c0.304,0,0.456,0.111,0.456,0.365c0,0.231-0.146,0.332-0.334,0.354l0.365,0.567h-0.219l-0.342-0.559H32.44
			v0.561H32.442z M32.675,62.453c0.165,0,0.312-0.01,0.312-0.209c0-0.16-0.145-0.189-0.279-0.189h-0.266v0.398H32.675z"/>
	</g>
</g>
</svg>
