<?xml version="1.0" encoding="utf-8"?>
<!-- Generator: Adobe Illustrator 16.0.0, SVG Export Plug-In . SVG Version: 6.00 Build 0)  -->
<!DOCTYPE svg PUBLIC "-//W3C//DTD SVG 1.1//EN" "http://www.w3.org/Graphics/SVG/1.1/DTD/svg11.dtd">
<svg version="1.1" id="Layer_1" xmlns="http://www.w3.org/2000/svg" xmlns:xlink="http://www.w3.org/1999/xlink" x="0px" y="0px"
	 width="60px" height="65px" viewBox="0 0 60 65" enable-background="new 0 0 60 65" xml:space="preserve">
<g>
	<path fill="#FFFFFF" d="M14.506,41.766c0.067,0.653,0.129,1.308,0.208,1.961c0.112,0.926,0.261,1.846,0.442,2.76
		c0.171,0.856,0.408,1.693,0.744,2.505c0.531,1.276,1.423,2.194,2.688,2.745c0.33,0.143,0.672,0.264,1.017,0.365
		c1.006,0.303,2.04,0.459,3.082,0.547c0.999,0.084,1.999,0.152,3.001,0.189c1.449,0.055,2.898,0.073,4.029,0.1
		c1.209-0.017,2.099-0.026,2.987-0.045c1.255-0.023,2.51-0.076,3.764-0.168c0.935-0.064,1.867-0.158,2.79-0.33
		c0.76-0.143,1.504-0.338,2.215-0.648c1.123-0.495,1.99-1.268,2.53-2.387c0.238-0.494,0.44-1.006,0.593-1.534
		c0.324-1.127,0.521-2.279,0.676-3.438c0.117-0.88,0.205-1.765,0.301-2.65c0.117-1.104,0.188-2.211,0.211-3.321
		c0.035-1.601,0.047-3.202-0.09-4.799c-0.049-0.608-0.147-1.208-0.323-1.794c-0.474-1.552-1.444-2.658-2.938-3.303
		c-0.73-0.315-1.498-0.501-2.279-0.642c-0.87-0.154-1.752-0.249-2.633-0.316c-1.024-0.079-2.054-0.155-3.081-0.19
		c-1.428-0.05-2.854-0.072-4.285-0.087c-0.851-0.008-1.702,0.016-2.553,0.03c-1.752,0.029-3.501,0.106-5.247,0.265
		c-0.87,0.079-1.737,0.169-2.596,0.331c-0.728,0.136-1.441,0.317-2.122,0.615c-1.268,0.552-2.192,1.446-2.723,2.732
		c-0.274,0.661-0.432,1.354-0.497,2.067c-0.05,0.545-0.084,1.095-0.108,1.645c-0.054,1.213-0.043,2.424-0.007,3.637
		C14.33,39.659,14.398,40.714,14.506,41.766z M15.871,36.829c0.017-0.835,0.051-1.67,0.101-2.503
		c0.044-0.738,0.128-1.471,0.348-2.182c0.278-0.908,0.76-1.674,1.541-2.234c0.442-0.317,0.93-0.541,1.444-0.711
		c0.569-0.188,1.155-0.309,1.748-0.384c0.823-0.104,1.647-0.202,2.473-0.281c0.584-0.057,1.172-0.086,1.759-0.113
		c0.958-0.045,1.917-0.099,2.875-0.109c1.419-0.015,2.837-0.011,4.253,0.015c1.072,0.02,2.145,0.077,3.215,0.139
		c1.151,0.067,2.3,0.18,3.438,0.353c0.694,0.105,1.379,0.249,2.037,0.5c1.433,0.546,2.328,1.564,2.715,3.041
		c0.135,0.514,0.207,1.035,0.252,1.561c0.145,1.642,0.16,3.284,0.125,4.931c-0.021,0.938-0.084,1.873-0.174,2.807
		c-0.076,0.768-0.146,1.535-0.238,2.3c-0.153,1.246-0.356,2.485-0.743,3.687c-0.128,0.394-0.282,0.777-0.467,1.15
		c-0.533,1.064-1.38,1.773-2.489,2.184c-0.543,0.201-1.104,0.326-1.675,0.418c-1.111,0.182-2.234,0.27-3.36,0.33
		c-1.544,0.086-3.09,0.127-4.637,0.127c-0.125,0-0.249,0-0.373,0c0,0.008,0,0.015-0.001,0.021c-1.337-0.032-2.673-0.047-4.008-0.102
		c-0.976-0.037-1.949-0.108-2.921-0.191c-0.805-0.068-1.607-0.175-2.39-0.382c-0.338-0.089-0.673-0.2-0.994-0.334
		c-1.013-0.421-1.759-1.127-2.244-2.112c-0.318-0.646-0.534-1.33-0.706-2.025c-0.229-0.934-0.382-1.879-0.49-2.832
		c-0.103-0.928-0.197-1.854-0.28-2.783C15.879,39.688,15.842,38.258,15.871,36.829z"/>
	<path fill="#FFFFFF" d="M7.691,58.09c0.272,0.033,0.539,0.068,0.805,0.096c0.322,0.033,0.461,0.168,0.498,0.489
		c0.004,0.041,0.004,0.085,0.004,0.128C9,59.084,9,59.363,9,59.645c0,0.051,0,0.104,0,0.152c-0.215,0.036-3.926,0.025-4.051-0.011
		c0-0.195-0.001-0.396,0.001-0.595c0.002-0.188-0.003-0.375,0.014-0.563c0.022-0.258,0.167-0.399,0.42-0.435
		c0.118-0.018,0.236-0.025,0.354-0.039c0.174-0.022,0.347-0.047,0.527-0.067c0-0.166,0.002-0.312,0-0.454
		C6.26,57.489,6.28,57.344,6.25,57.202c-1.755,0-3.499,0-5.25,0c0,0.3,0,0.59,0,0.885c0.076,0.011,0.145,0.022,0.214,0.031
		c0.214,0.024,0.428,0.047,0.642,0.073c0.26,0.029,0.397,0.156,0.443,0.416c0.012,0.072,0.012,0.149,0.013,0.227
		c0,1.1,0,2.198-0.001,3.297c0,0.082,0,0.163-0.017,0.242c-0.048,0.252-0.181,0.373-0.437,0.404
		c-0.213,0.025-0.427,0.047-0.641,0.072C1.143,62.859,1.07,62.872,1,62.883c0,0.301,0,0.583,0,0.864
		c0.177,0.036,5.137,0.03,5.256-0.005c0-0.282,0-0.567,0-0.865c-0.271-0.033-0.538-0.066-0.804-0.096
		c-0.331-0.035-0.481-0.172-0.496-0.504c-0.014-0.358-0.002-0.721-0.001-1.082c0-0.008,0.01-0.018,0.016-0.024
		c0.219-0.032,3.9-0.022,4.026,0.015c0,0.348,0.001,0.695-0.001,1.047c0,0.041-0.008,0.084-0.014,0.127
		c-0.042,0.25-0.174,0.383-0.425,0.416c-0.112,0.016-0.225,0.024-0.338,0.039c-0.176,0.021-0.35,0.043-0.527,0.063
		c0,0.302,0,0.588,0,0.881c1.756,0,3.5,0,5.248,0c0-0.299,0-0.587,0-0.879c-0.091-0.012-0.17-0.024-0.251-0.034
		c-0.208-0.023-0.417-0.044-0.625-0.074c-0.238-0.031-0.366-0.153-0.41-0.391c-0.017-0.09-0.022-0.183-0.022-0.273
		c-0.002-1.082-0.002-2.168,0-3.25c0-0.088,0.003-0.174,0.019-0.258c0.046-0.26,0.182-0.382,0.446-0.41
		c0.124-0.014,0.247-0.026,0.37-0.041c0.159-0.02,0.316-0.041,0.474-0.062c0-0.305,0-0.593,0-0.886c-1.755,0-3.5,0-5.25,0
		C7.691,57.501,7.691,57.788,7.691,58.09z"/>
	<path fill="#FFFFFF" d="M31.604,57.217c0,0.286,0,0.576,0,0.873c0.287,0.034,0.564,0.067,0.842,0.1
		c0.283,0.033,0.428,0.174,0.463,0.453c0.005,0.041,0.006,0.086,0.006,0.129c0.001,1.045,0.001,2.092-0.001,3.138
		c0,0.03-0.007,0.063-0.019,0.116c-0.056-0.069-0.097-0.118-0.135-0.17c-1.095-1.443-2.189-2.885-3.278-4.332
		c-0.159-0.213-0.349-0.328-0.613-0.326c-0.043,0-0.086-0.006-0.129-0.006c-1.444,0-2.889,0-4.333,0.002
		c-0.046,0-0.094,0.006-0.156,0.01c0,0.24,0,0.472,0,0.703c0,0.059,0,0.115,0,0.181c0.074,0.013,0.13,0.022,0.189,0.028
		c0.219,0.025,0.439,0.051,0.659,0.074c0.276,0.029,0.418,0.162,0.46,0.435c0.013,0.075,0.012,0.149,0.012,0.228
		c0.001,1.088,0.001,2.176,0,3.266c0,0.061,0.001,0.119-0.004,0.178c-0.027,0.305-0.178,0.455-0.481,0.488
		c-0.124,0.011-0.247,0.023-0.37,0.041c-0.153,0.018-0.306,0.037-0.456,0.06c0,0.302,0,0.585,0,0.866
		c0.168,0.036,4.066,0.029,4.186-0.002c0.027-0.193,0.02-0.75-0.012-0.868c-0.078-0.012-0.158-0.021-0.238-0.032
		c-0.204-0.022-0.408-0.043-0.611-0.068c-0.26-0.037-0.401-0.188-0.429-0.449c-0.005-0.059-0.005-0.117-0.005-0.18
		c0-1.008,0-2.016,0-3.023c0-0.052,0-0.104,0-0.154c0.013-0.002,0.024-0.006,0.036-0.008c0.04,0.053,0.08,0.104,0.119,0.155
		c1.094,1.442,2.189,2.882,3.278,4.33c0.169,0.226,0.375,0.325,0.646,0.325c1.045-0.004,2.09-0.004,3.138-0.004
		c0.04,0,0.08-0.011,0.127-0.018c0-0.076,0-0.143,0-0.206c0-1.552,0-3.104,0-4.657c0-0.074-0.002-0.15,0.004-0.227
		c0.022-0.285,0.176-0.439,0.459-0.473c0.123-0.014,0.246-0.026,0.369-0.041c0.159-0.02,0.316-0.041,0.472-0.062
		c0-0.306,0-0.595,0-0.881C35.555,57.174,31.724,57.186,31.604,57.217z"/>
	<path fill="#FFFFFF" d="M46.979,59.539c-0.154-0.587-0.479-1.064-0.957-1.441c-0.308-0.244-0.65-0.421-1.017-0.558
		c-0.704-0.256-1.435-0.345-2.177-0.347c-2.123-0.006-4.248-0.002-6.371-0.002c-0.048,0-0.094,0.006-0.145,0.009
		c0,0.302,0,0.593,0,0.891c0.233,0.024,0.459,0.046,0.685,0.069c0.416,0.047,0.541,0.186,0.541,0.605
		c0.003,1.121,0.002,2.242,0,3.363c0,0.074-0.002,0.152-0.017,0.227c-0.045,0.27-0.18,0.393-0.451,0.424
		c-0.123,0.013-0.247,0.023-0.37,0.039c-0.156,0.021-0.315,0.041-0.476,0.063c0,0.296,0,0.577,0,0.888c0.082,0,0.149,0,0.217,0
		c2.051,0,4.099,0.002,6.146-0.002c0.376-0.002,0.755-0.018,1.13-0.053c0.581-0.056,1.146-0.197,1.675-0.456
		c0.789-0.384,1.353-0.973,1.586-1.836C47.148,60.799,47.146,60.165,46.979,59.539z M43.979,61.391
		c-0.043,0.187-0.107,0.36-0.213,0.521c-0.205,0.312-0.507,0.479-0.865,0.542c-0.184,0.032-0.375,0.05-0.562,0.052
		c-0.685,0.008-1.368,0.003-2.054,0.003c-0.049,0-0.096-0.005-0.15-0.009c0-1.344,0-2.68,0-4.025
		c0.039-0.007,0.079-0.015,0.119-0.015c0.713-0.002,1.426-0.005,2.137,0c0.248,0.002,0.493,0.026,0.731,0.108
		c0.364,0.123,0.618,0.361,0.767,0.717c0.137,0.335,0.166,0.689,0.18,1.046C44.083,60.688,44.061,61.043,43.979,61.391z"/>
	<path fill="#FFFFFF" d="M22.654,57.934c-0.472-0.334-1.004-0.539-1.559-0.685c-0.821-0.213-1.657-0.276-2.472-0.28
		c-0.784,0.002-1.535,0.055-2.276,0.219c-0.565,0.125-1.111,0.309-1.608,0.61c-1.001,0.61-1.524,1.498-1.527,2.677
		c-0.003,1.135,0.479,2.012,1.427,2.633c0.264,0.172,0.544,0.307,0.837,0.418c0.667,0.248,1.358,0.373,2.065,0.43
		c1.053,0.082,2.1,0.061,3.14-0.141c0.622-0.121,1.221-0.312,1.766-0.646c0.914-0.555,1.445-1.354,1.517-2.432
		C24.042,59.562,23.623,58.618,22.654,57.934z M20.858,61.296c-0.153,0.722-0.592,1.17-1.306,1.339
		c-0.655,0.156-1.315,0.153-1.968-0.014c-0.703-0.18-1.118-0.643-1.259-1.346c-0.051-0.258-0.066-0.522-0.098-0.783
		c0.017-0.311,0.044-0.616,0.122-0.916c0.168-0.641,0.57-1.055,1.208-1.225c0.663-0.176,1.333-0.178,2-0.021
		c0.706,0.168,1.144,0.612,1.299,1.329C20.974,60.204,20.974,60.751,20.858,61.296z"/>
	<path fill="#FFFFFF" d="M58.236,62.791c-0.307-0.021-0.519-0.172-0.68-0.425c-0.49-0.757-0.986-1.509-1.478-2.261
		c-0.543-0.83-1.088-1.66-1.627-2.49c-0.177-0.273-0.401-0.43-0.742-0.428c-1.596,0.008-3.19,0.004-4.787,0.004
		c-0.047,0-0.094,0.006-0.146,0.009c0,0.301,0,0.59,0,0.882c0.037,0.008,0.066,0.016,0.1,0.02c0.342,0.041,0.686,0.08,1.027,0.117
		c0.275,0.031,0.408,0.271,0.283,0.52c-0.021,0.044-0.049,0.085-0.074,0.125c-0.723,1.177-1.443,2.352-2.166,3.525
		c-0.033,0.055-0.069,0.109-0.106,0.162c-0.102,0.139-0.237,0.215-0.409,0.23c-0.117,0.011-0.234,0.021-0.354,0.037
		c-0.164,0.02-0.329,0.041-0.495,0.062c0,0.3,0,0.587,0,0.872c0.237,0.036,4.077,0.025,4.192-0.012c0-0.282,0-0.566,0-0.862
		c-0.104-0.01-0.198-0.021-0.293-0.034c-0.168-0.019-0.336-0.025-0.498-0.06c-0.291-0.062-0.375-0.261-0.224-0.515
		c0.076-0.129,0.164-0.252,0.232-0.388c0.056-0.104,0.129-0.134,0.246-0.134c1.239,0.005,2.479,0.003,3.72,0.003
		c0.025,0,0.057-0.007,0.079,0.002c0.038,0.013,0.085,0.026,0.104,0.056c0.11,0.162,0.224,0.319,0.313,0.49
		c0.103,0.188,0.04,0.355-0.158,0.434c-0.112,0.045-0.239,0.062-0.36,0.076c-0.203,0.028-0.406,0.047-0.617,0.067
		c0,0.296,0,0.579,0,0.873c0.027,0.009,0.043,0.017,0.059,0.017c1.838,0.002,3.676,0.002,5.514,0.002
		c0.027,0,0.053-0.004,0.08-0.008c0.006,0,0.01-0.006,0.014-0.01c0.002-0.004,0.008-0.008,0.014-0.012c0-0.283,0-0.566,0-0.861
		C58.74,62.85,58.49,62.811,58.236,62.791z M50.807,60.57c0.41-0.668,0.81-1.316,1.209-1.967c0.096,0.076,1.185,1.721,1.301,1.957
		C53.203,60.594,51.047,60.604,50.807,60.57z"/>
	<path fill="#FFFFFF" d="M20.785,32.603c0.037,0.583,0.072,1.163,0.108,1.745c0.049,0.772,0.101,1.549,0.151,2.322
		c0.036,0.564,0.07,1.13,0.108,1.695c0.06,0.881,0.12,1.762,0.181,2.645c0.047,0.688,0.092,1.377,0.141,2.064
		c0.058,0.812,0.12,1.623,0.18,2.434c0.058,0.78,0.113,1.561,0.174,2.34c0.071,0.907,0.148,1.814,0.224,2.723
		c0.006,0.078,0.02,0.156,0.029,0.238c1.046,0.146,2.085,0.18,3.135,0.221c0.023-0.076,0.044-0.146,0.064-0.219
		c0.271-0.992,0.532-1.986,0.816-2.976c0.153-0.539,0.35-1.063,0.605-1.563c0.323-0.631,0.837-0.981,1.528-1.092
		c0.603-0.096,1.208-0.143,1.818-0.143c0.617,0,1.228,0.045,1.834,0.148c0.65,0.109,1.15,0.44,1.46,1.032
		c0.076,0.144,0.155,0.285,0.211,0.438c0.182,0.492,0.373,0.986,0.521,1.492c0.256,0.886,0.48,1.776,0.721,2.666
		c0.02,0.071,0.043,0.142,0.066,0.217c1.056-0.047,2.101-0.075,3.144-0.227c0.596-7.062,1.031-14.117,1.473-21.188
		c-0.729-0.105-1.451-0.149-2.181-0.166c-0.017,0.061-0.03,0.106-0.041,0.153c-0.293,1.331-0.584,2.663-0.879,3.993
		c-0.433,1.944-0.907,3.881-1.426,5.805c-0.169,0.623-0.37,1.238-0.649,1.824c-0.54,1.127-1.444,1.75-2.672,1.922
		c-0.46,0.065-0.921,0.084-1.386,0.088c-0.674,0.006-1.348,0.002-2.014-0.123c-1.062-0.198-1.862-0.76-2.371-1.721
		c-0.108-0.205-0.202-0.418-0.289-0.632c-0.272-0.676-0.462-1.377-0.646-2.083c-0.733-2.81-1.362-5.643-1.975-8.479
		c-0.053-0.245-0.11-0.491-0.168-0.747c-0.733,0.016-1.451,0.061-2.184,0.165c0.013,0.225,0.023,0.429,0.036,0.632
		C20.685,31.033,20.734,31.818,20.785,32.603z"/>
</g>
</svg>
