<?xml version="1.0" encoding="utf-8"?>
<!-- Generator: Adobe Illustrator 16.0.0, SVG Export Plug-In . SVG Version: 6.00 Build 0)  -->
<!DOCTYPE svg PUBLIC "-//W3C//DTD SVG 1.1//EN" "http://www.w3.org/Graphics/SVG/1.1/DTD/svg11.dtd">
<svg version="1.1" id="Layer_1" xmlns="http://www.w3.org/2000/svg" xmlns:xlink="http://www.w3.org/1999/xlink" x="0px" y="0px"
	 width="100px" height="65px" viewBox="0 0 100 65" enable-background="new 0 0 100 65" xml:space="preserve">
<g>
	<path fill="#FFFFFF" d="M35.567,45.35c-1.643,0-2.756-0.371-3.623-0.725c-0.123-0.055-0.141-0.193-0.105-0.301l0.318-1.186
		c0.035-0.142,0.193-0.142,0.3-0.018c0.724,0.76,1.908,1.361,3.251,1.361c0.973,0,2.068-0.743,2.068-1.784
		c0-2.776-5.92-1.628-5.92-5.621c0-1.749,1.219-2.81,3.199-2.81c1.59,0,2.845,0.266,3.658,0.316c0.123,0,0.159,0.124,0.123,0.23
		L38.59,36c-0.017,0.123-0.158,0.159-0.283,0.088c-0.725-0.423-1.662-0.988-3.269-0.988c-0.778,0-1.556,0.512-1.556,1.36
		c0,2.827,5.938,1.502,5.938,5.867C39.42,44.482,37.777,45.35,35.567,45.35"/>
	<path fill="#FFFFFF" d="M50.589,45.139h-1.343c-0.14,0-0.211-0.072-0.211-0.214v-4.823c0-1.043-0.354-1.574-1.167-1.574
		c-0.794,0-1.448,0.549-1.644,0.974l-0.017,5.425c0,0.143-0.054,0.213-0.212,0.213h-1.326c-0.141,0-0.212-0.07-0.212-0.213v-4.824
		c0-1.043-0.336-1.572-1.166-1.572c-0.778,0-1.397,0.443-1.627,0.83v5.566c0,0.143-0.071,0.213-0.229,0.213h-1.327
		c-0.158,0-0.211-0.07-0.211-0.213v-6.999c0-0.141,0.07-0.211,0.211-0.211l0.813-0.018c0.177,0,0.391,0.104,0.442,0.229l0.229,0.531
		c0.583-0.69,1.308-0.884,2.121-0.884c1.132,0,1.854,0.425,2.209,1.22c0.424-0.726,1.272-1.22,2.368-1.22
		c1.661,0,2.475,1.023,2.475,2.811v4.541C50.767,45.066,50.746,45.139,50.589,45.139"/>
	<path fill="#FFFFFF" d="M57.322,45.139h-0.602c-0.16,0-0.212-0.09-0.283-0.214c-0.104-0.194-0.229-0.37-0.354-0.37
		c-0.088,0-0.176,0.034-0.266,0.088c-0.617,0.424-1.271,0.688-2.173,0.688c-1.235,0-2.263-0.671-2.263-1.927
		c0-0.653,0.335-1.414,1.219-1.803c0.655-0.283,1.575-0.44,2.404-0.688c0.514-0.159,0.812-0.37,0.812-0.899v-0.318
		c0-0.955-0.513-1.291-1.078-1.291c-0.742,0-1.447,0.248-2.119,0.548c-0.123,0.053-0.229-0.017-0.248-0.158l-0.106-0.901
		c-0.017-0.142,0.106-0.177,0.248-0.177h2.88c1.309,0,2.192,0.812,2.192,2.562v4.684C57.588,45.085,57.499,45.139,57.322,45.139
		 M55.82,41.585c0-0.088-0.053-0.142-0.158-0.142c-0.035,0-1.502,0.582-1.68,0.637c-0.529,0.177-0.849,0.512-0.849,1.007
		c0,0.937,0.371,1.538,1.112,1.538c0.886,0,1.572-0.529,1.572-1.325v-1.715H55.82z"/>
	<path fill="#FFFFFF" d="M63.101,39.182c-0.018,0.142-0.123,0.213-0.245,0.16c-0.302-0.144-0.638-0.708-1.257-0.708
		c-0.672,0-1.078,0.371-1.36,1.062v5.229c0,0.142-0.088,0.214-0.248,0.214h-1.289c-0.159,0-0.229-0.072-0.229-0.214v-6.998
		c0-0.142,0.07-0.212,0.229-0.212h0.955c0.158,0,0.229,0.09,0.281,0.212l0.266,0.636c0.673-0.652,1.061-0.848,1.731-0.848h1.078
		c0.142,0,0.265,0.035,0.247,0.178L63.101,39.182z"/>
	<path fill="#FFFFFF" d="M69.498,38.616l-2.244-0.036v4.984c0,0.707,0.371,1.041,0.794,1.041h0.442c0.105,0,0.142,0,0.142,0.125
		v0.265c0,0.124-0.017,0.144-0.142,0.144h-1.254c-1.078,0-1.75-0.461-1.75-2.033V38.58h-1.556c-0.089,0-0.177-0.07-0.177-0.158
		v-0.529c0-0.106,0.07-0.178,0.177-0.178h1.556V36.07c0-0.018,0.034-0.123,0.055-0.123l1.431-0.406c0.192-0.055,0.3-0.089,0.3,0.124
		v2.05h2.228c0.089,0,0.177,0.018,0.177,0.123v0.619C69.675,38.562,69.587,38.616,69.498,38.616"/>
	<path fill="#FFFFFF" d="M80.031,45.173c-0.035,0.104-0.549,0.158-0.688,0.158c-0.124,0-0.584-0.034-0.619-0.142l-2.403-6.662
		c-0.017-0.07-0.16-0.07-0.194,0.018l-2.421,6.628c-0.035,0.104-0.512,0.158-0.654,0.158c-0.123,0-0.618-0.034-0.652-0.142
		l-3.076-10.463c-0.035-0.142,0.02-0.192,0.179-0.192h1.731c0.158,0,0.246,0.088,0.282,0.229l1.714,7.157
		c0.018,0.088,0.194,0.054,0.23-0.036l2.419-6.855c0.036-0.106,0.461-0.143,0.603-0.143c0.143,0,0.584,0.035,0.619,0.143
		l2.314,6.839c0.033,0.089,0.212,0.071,0.229-0.035l1.731-7.069c0.034-0.141,0.071-0.229,0.229-0.229h1.237
		c0.143,0,0.178,0.158,0.124,0.316L80.031,45.173z"/>
	<path fill="#FFFFFF" d="M87.843,45.139H87.24c-0.16,0-0.211-0.09-0.282-0.214c-0.106-0.194-0.229-0.37-0.354-0.37
		c-0.088,0-0.177,0.034-0.265,0.088c-0.618,0.424-1.272,0.688-2.175,0.688c-1.236,0-2.262-0.671-2.262-1.927
		c0-0.653,0.336-1.414,1.219-1.803c0.652-0.283,1.572-0.44,2.402-0.688c0.514-0.159,0.814-0.37,0.814-0.899v-0.318
		c0-0.955-0.512-1.291-1.078-1.291c-0.743,0-1.45,0.248-2.12,0.548c-0.124,0.053-0.229-0.017-0.248-0.158l-0.106-0.901
		c-0.019-0.142,0.106-0.177,0.248-0.177h2.881c1.309,0,2.191,0.812,2.191,2.562v4.684C88.107,45.085,88.018,45.139,87.843,45.139
		 M86.34,41.585c0-0.088-0.055-0.142-0.159-0.142c-0.035,0-1.502,0.582-1.679,0.637c-0.532,0.177-0.85,0.512-0.85,1.007
		c0,0.937,0.371,1.538,1.113,1.538c0.883,0,1.573-0.529,1.573-1.325L86.34,41.585L86.34,41.585z"/>
	<path fill="#FFFFFF" d="M92.843,45.525l-0.583,1.344c-0.371,0.867-1.221,1.962-2.281,1.962c-0.211,0-0.724-0.054-0.742-0.317
		l-0.069-0.92c0-0.105,0.053-0.177,0.159-0.177c0.123,0,0.266,0.054,0.406,0.054c0.885,0,1.45-0.726,1.731-1.521l0.229-0.638
		c0.105-0.265,0.157-0.547,0.019-0.795l-3.341-6.574c-0.07-0.143-0.018-0.229,0.142-0.229h1.646c0.176,0,0.211,0.087,0.281,0.229
		l2.264,4.967l1.73-5.018c0.053-0.144,0.088-0.179,0.229-0.179h1.236c0.159,0,0.178,0.07,0.125,0.211L92.843,45.525z"/>
	<polygon fill="#FFFFFF" points="16.137,48.887 14.031,48.887 14.031,48.133 19.153,48.133 19.153,48.887 17.035,48.887 
		17.035,55.049 16.137,55.049 	"/>
	<path fill="#FFFFFF" d="M19.823,51.632c0-0.586-0.015-1.085-0.042-1.546h0.792l0.034,0.975h0.032
		c0.232-0.666,0.779-1.088,1.382-1.088c0.099,0,0.169,0.008,0.251,0.025v0.85c-0.093-0.019-0.183-0.024-0.308-0.024
		c-0.635,0-1.085,0.479-1.208,1.153c-0.023,0.127-0.036,0.273-0.036,0.422v2.65h-0.897V51.632z"/>
	<path fill="#FFFFFF" d="M26.612,53.861c0,0.423,0.019,0.848,0.075,1.188h-0.815l-0.079-0.627h-0.027
		c-0.273,0.389-0.808,0.74-1.518,0.74c-1.003,0-1.517-0.712-1.517-1.424c0-1.204,1.066-1.863,2.983-1.852v-0.104
		c0-0.403-0.114-1.151-1.13-1.146c-0.463,0-0.945,0.139-1.293,0.369l-0.205-0.602c0.411-0.262,1.011-0.434,1.638-0.434
		c1.517,0,1.887,1.037,1.887,2.03L26.612,53.861L26.612,53.861z M25.732,52.514c-0.977-0.02-2.095,0.155-2.095,1.115
		c0,0.594,0.39,0.864,0.842,0.864c0.654,0,1.066-0.412,1.21-0.831c0.031-0.098,0.043-0.198,0.043-0.283V52.514z"/>
	<path fill="#FFFFFF" d="M28.01,51.427c0-0.518-0.018-0.929-0.042-1.341h0.797l0.05,0.816h0.025c0.243-0.467,0.821-0.93,1.641-0.93
		c0.682,0,1.749,0.409,1.749,2.114v2.96h-0.897v-2.859c0-0.804-0.302-1.476-1.146-1.476c-0.594,0-1.056,0.421-1.217,0.927
		c-0.038,0.109-0.062,0.271-0.062,0.418v2.99H28.01V51.427z"/>
	<path fill="#FFFFFF" d="M33.515,54.13c0.272,0.171,0.747,0.353,1.196,0.353c0.659,0,0.965-0.321,0.965-0.736
		c0-0.436-0.263-0.662-0.922-0.91c-0.897-0.322-1.321-0.812-1.319-1.406c0-0.8,0.649-1.455,1.717-1.455
		c0.505,0,0.939,0.137,1.216,0.305l-0.226,0.654c-0.19-0.115-0.553-0.289-1.018-0.289c-0.532,0-0.822,0.307-0.822,0.681
		c0,0.409,0.292,0.596,0.942,0.847c0.856,0.319,1.3,0.749,1.303,1.492c0,0.879-0.685,1.495-1.856,1.495
		c-0.543,0-1.046-0.144-1.395-0.347L33.515,54.13z"/>
	<path fill="#FFFFFF" d="M37.596,51.702c0-0.632-0.017-1.147-0.041-1.616h0.807l0.05,0.846h0.021
		c0.359-0.604,0.955-0.959,1.762-0.959c1.2,0,2.106,1.014,2.106,2.52c0,1.789-1.094,2.671-2.257,2.671
		c-0.664,0-1.234-0.29-1.529-0.781h-0.02v2.7h-0.898L37.596,51.702L37.596,51.702z M38.494,53.027c0,0.13,0.013,0.252,0.038,0.369
		c0.163,0.629,0.709,1.057,1.35,1.057c0.957,0,1.51-0.783,1.51-1.921c0-0.991-0.52-1.843-1.475-1.843
		c-0.615,0-1.195,0.436-1.366,1.115c-0.029,0.114-0.057,0.246-0.057,0.364V53.027z"/>
	<path fill="#FFFFFF" d="M45.404,55.162c-1.346,0-2.386-0.98-2.386-2.559c0-1.66,1.092-2.631,2.465-2.631
		c1.426,0,2.389,1.034,2.389,2.547c0,1.838-1.276,2.643-2.458,2.643H45.404z M45.431,54.484c0.865,0,1.513-0.808,1.513-1.935
		c0-0.841-0.423-1.901-1.497-1.901c-1.06,0-1.521,0.987-1.521,1.929c0,1.089,0.624,1.907,1.495,1.907H45.431z"/>
	<path fill="#FFFFFF" d="M48.795,51.632c0-0.586-0.014-1.085-0.04-1.546h0.791l0.034,0.975h0.031
		c0.232-0.666,0.779-1.088,1.381-1.088c0.098,0,0.17,0.008,0.254,0.025v0.85c-0.094-0.019-0.185-0.024-0.309-0.024
		c-0.638,0-1.087,0.479-1.21,1.153c-0.021,0.127-0.037,0.273-0.037,0.422v2.65h-0.896V51.632z"/>
	<path fill="#FFFFFF" d="M53.738,48.896v1.189h1.297v0.684h-1.297v2.674c0,0.621,0.179,0.97,0.684,0.97
		c0.24,0,0.39-0.024,0.521-0.065l0.043,0.687c-0.176,0.069-0.457,0.125-0.807,0.125c-0.415,0-0.76-0.136-0.975-0.384
		c-0.25-0.271-0.352-0.711-0.352-1.295v-2.709h-0.769v-0.685h0.769v-0.918L53.738,48.896z"/>
	<path fill="#FFFFFF" d="M58.139,48.216c0.432-0.075,0.996-0.138,1.721-0.138c0.875,0,1.524,0.203,1.938,0.574
		c0.376,0.332,0.607,0.832,0.607,1.447c0,0.627-0.188,1.123-0.537,1.481c-0.478,0.504-1.241,0.758-2.114,0.758
		c-0.271,0-0.517-0.011-0.724-0.065v2.774h-0.892L58.139,48.216L58.139,48.216z M59.031,51.548c0.199,0.056,0.446,0.077,0.742,0.077
		c1.082,0,1.736-0.532,1.736-1.477c0-0.916-0.652-1.363-1.635-1.363c-0.395,0-0.686,0.037-0.846,0.07v2.692H59.031z"/>
	<path fill="#FFFFFF" d="M67,53.861c0,0.423,0.019,0.848,0.074,1.188h-0.813l-0.08-0.627h-0.026c-0.272,0.389-0.808,0.74-1.52,0.74
		c-1.002,0-1.516-0.712-1.516-1.424c0-1.204,1.065-1.863,2.983-1.852v-0.104c0-0.403-0.114-1.151-1.131-1.146
		c-0.462,0-0.946,0.139-1.293,0.369l-0.204-0.602c0.41-0.262,1.012-0.434,1.637-0.434c1.519,0,1.889,1.037,1.889,2.03V53.861z
		 M66.119,52.514c-0.977-0.02-2.094,0.155-2.094,1.115c0,0.594,0.389,0.864,0.844,0.864c0.651,0,1.064-0.412,1.209-0.831
		c0.031-0.098,0.041-0.198,0.041-0.283V52.514z"/>
	<path fill="#FFFFFF" d="M68.396,51.632c0-0.586-0.014-1.085-0.04-1.546h0.791l0.034,0.975h0.03
		c0.232-0.666,0.779-1.088,1.383-1.088c0.1,0,0.169,0.008,0.252,0.025v0.85c-0.093-0.019-0.184-0.024-0.307-0.024
		c-0.639,0-1.086,0.479-1.209,1.153c-0.022,0.127-0.037,0.273-0.037,0.422v2.65h-0.897V51.632z"/>
	<path fill="#FFFFFF" d="M73.341,48.896v1.189h1.297v0.684h-1.297v2.674c0,0.621,0.178,0.97,0.683,0.97
		c0.241,0,0.389-0.024,0.522-0.065l0.042,0.687c-0.176,0.069-0.457,0.125-0.807,0.125c-0.416,0-0.76-0.136-0.976-0.384
		c-0.249-0.271-0.351-0.711-0.351-1.295v-2.709h-0.77v-0.685h0.77v-0.918L73.341,48.896z"/>
	<path fill="#FFFFFF" d="M75.853,51.427c0-0.518-0.017-0.929-0.041-1.341h0.798l0.049,0.816h0.025
		c0.244-0.467,0.822-0.93,1.643-0.93c0.682,0,1.748,0.409,1.748,2.114v2.96h-0.896v-2.859c0-0.804-0.304-1.476-1.148-1.476
		c-0.593,0-1.055,0.421-1.215,0.927c-0.037,0.109-0.062,0.271-0.062,0.418v2.99h-0.896v-3.62H75.853z"/>
	<path fill="#FFFFFF" d="M81.736,52.73c0.019,1.22,0.791,1.723,1.697,1.723c0.646,0,1.042-0.115,1.375-0.254l0.158,0.642
		c-0.316,0.144-0.867,0.316-1.656,0.316c-1.525,0-2.441-1.017-2.441-2.507c0-1.504,0.887-2.678,2.336-2.678
		c1.619,0,2.041,1.42,2.041,2.336c0,0.188-0.01,0.322-0.03,0.422H81.736L81.736,52.73z M84.377,52.081
		c0.01-0.569-0.233-1.461-1.245-1.461c-0.922,0-1.313,0.832-1.386,1.461H84.377z"/>
	<path fill="#FFFFFF" d="M86.566,51.632c0-0.586-0.015-1.085-0.041-1.546h0.791l0.036,0.975h0.031
		c0.229-0.666,0.778-1.088,1.381-1.088c0.099,0,0.169,0.008,0.251,0.025v0.85c-0.091-0.019-0.183-0.024-0.306-0.024
		c-0.638,0-1.086,0.479-1.208,1.153c-0.024,0.127-0.037,0.273-0.037,0.422v2.65h-0.898V51.632z"/>
	<path fill="#FFFFFF" d="M18.933,59.296c-0.018,0.047-0.059,0.07-0.099,0.058c-0.275-0.098-0.396-0.16-0.908-0.16
		c-0.505,0-0.914,0.492-1.12,1.442c-0.254,1.125,0.131,1.482,0.666,1.482c0.19,0,0.57-0.173,0.61-0.367
		c0.012-0.047,0.155-0.948,0.155-0.948s0.012-0.121,0.017-0.138c0.012-0.048,0.052-0.081,0.093-0.081h0.545
		c0.023,0,0.041,0.018,0.034,0.04l-0.367,1.66c-0.006,0.046-0.063,0.08-0.109,0.08c-0.058,0-0.178-0.154-0.178-0.154
		c-0.035-0.022-0.075-0.012-0.109,0.006c-0.241,0.114-0.581,0.207-0.931,0.207c-0.81,0-1.431-0.466-1.138-1.787
		c0.235-1.075,1.052-1.735,1.908-1.735h0.988c0.045,0,0.068,0.012,0.051,0.058L18.933,59.296z"/>
	<path fill="#FFFFFF" d="M20.111,61.664c-0.018,0.281,0.103,0.5,0.305,0.5c0.264,0,0.511-0.161,0.701-0.379l0.04-0.053
		c0.018-0.018,0.047-0.034,0.063-0.022l0.138,0.121c0.012,0.012,0.006,0.028-0.006,0.046c-0.229,0.287-0.568,0.507-1,0.507
		c-0.649,0-0.971-0.495-0.798-1.235c0.155-0.651,0.741-1.26,1.391-1.26c0.557,0,0.805,0.248,0.69,0.725
		C21.531,61.055,20.95,61.503,20.111,61.664 M20.893,60.105c-0.322,0-0.569,0.402-0.719,1.041c-0.029,0.098-0.041,0.188-0.052,0.281
		c0.557-0.126,0.878-0.432,0.982-0.857C21.174,60.279,21.093,60.105,20.893,60.105"/>
	<path fill="#FFFFFF" d="M24.007,60.175c-0.012,0.034-0.047,0.052-0.075,0.052l-0.725-0.011l-0.391,1.62
		c-0.058,0.23,0.04,0.34,0.178,0.34h0.144c0.034,0,0.045,0,0.034,0.039l-0.018,0.087c-0.011,0.041-0.023,0.046-0.057,0.046h-0.408
		c-0.351,0-0.536-0.148-0.414-0.66l0.357-1.472h-0.506c-0.03,0-0.052-0.022-0.047-0.053c0.006-0.028,0.029-0.138,0.04-0.171
		c0.012-0.029,0.041-0.059,0.075-0.059h0.505l0.127-0.533c0-0.008,0.022-0.041,0.028-0.041l0.494-0.133
		c0.069-0.018,0.104-0.028,0.086,0.041l-0.154,0.666h0.724c0.029,0,0.052,0.006,0.045,0.039L24.007,60.175z"/>
	<path fill="#FFFFFF" d="M26.225,60.175c-0.011,0.034-0.047,0.052-0.075,0.052l-0.725-0.011l-0.391,1.62
		c-0.058,0.23,0.04,0.34,0.179,0.34h0.143c0.035,0,0.046,0,0.035,0.039l-0.017,0.087c-0.012,0.041-0.023,0.046-0.058,0.046h-0.408
		c-0.351,0-0.535-0.148-0.414-0.66l0.357-1.472h-0.505c-0.029,0-0.052-0.022-0.047-0.053c0.006-0.028,0.029-0.138,0.041-0.171
		c0.011-0.029,0.04-0.059,0.074-0.059h0.505l0.128-0.533c0-0.008,0.023-0.041,0.028-0.041l0.495-0.133
		c0.069-0.018,0.103-0.028,0.086,0.041L25.5,59.934h0.725c0.029,0,0.052,0.006,0.046,0.039L26.225,60.175z"/>
	<path fill="#FFFFFF" d="M27.402,60.389l-0.35,1.447c-0.052,0.23,0.04,0.34,0.178,0.34c0.035,0,0.046,0,0.04,0.039l-0.022,0.087
		c-0.012,0.041-0.018,0.046-0.058,0.046h-0.264c-0.351,0-0.535-0.148-0.409-0.66l0.311-1.299c0.034-0.139,0.08-0.385,0.08-0.385
		c0.007-0.048,0.041-0.07,0.092-0.07h0.448c0.052,0,0.069,0.022,0.058,0.07C27.507,60.004,27.437,60.243,27.402,60.389
		 M27.311,59.303c-0.149,0-0.276-0.07-0.23-0.236c0.046-0.2,0.276-0.311,0.454-0.311c0.149,0,0.27,0.07,0.23,0.242
		C27.718,59.193,27.489,59.303,27.311,59.303"/>
	<path fill="#FFFFFF" d="M30.109,61.895c-0.034,0.145-0.023,0.385-0.023,0.385c0,0.047-0.023,0.068-0.074,0.068H29.58
		c-0.051,0-0.063-0.021-0.058-0.068c0,0,0.006-0.258,0.041-0.401c0.063-0.282,0.218-0.799,0.288-1.099
		c0.092-0.373,0.161-0.654,0.011-0.654c-0.459,0-1.085,1.2-1.207,1.684l-0.125,0.534c0,0.005-0.018,0.046-0.052,0.041l-0.448-0.082
		c-0.046-0.006-0.057-0.011-0.041-0.079l0.408-1.719c0.046-0.195,0.069-0.396,0.058-0.5c0-0.048,0.028-0.07,0.08-0.07h0.438
		c0.051,0,0.074,0.022,0.068,0.07c-0.005,0.125-0.005,0.219-0.062,0.441l-0.028,0.121c-0.018,0.058,0.034,0.074,0.068,0.022
		c0.349-0.5,0.614-0.688,0.981-0.688c0.425,0,0.534,0.384,0.419,0.855C30.351,61.055,30.178,61.624,30.109,61.895"/>
	<path fill="#FFFFFF" d="M33.218,61.538l-0.293,1.218c-0.149,0.621-0.482,0.855-0.919,0.855h-0.609
		c-0.046,0-0.092-0.012-0.069-0.057l0.104-0.23c0.023-0.045,0.063-0.069,0.104-0.051c0,0,0.218,0.125,0.361,0.125
		c0.213,0,0.362-0.225,0.437-0.545l0.23-0.968c0.012-0.034-0.017-0.051-0.04-0.015c-0.207,0.314-0.449,0.521-0.776,0.521
		c-0.506,0-0.919-0.265-0.672-1.22c0.19-0.746,0.834-1.292,1.472-1.292c0.597,0,0.764,0.372,0.775,0.838
		C33.328,60.986,33.287,61.262,33.218,61.538 M32.517,60.089c-0.328,0-0.684,0.443-0.851,1.086
		c-0.109,0.438-0.138,0.927,0.208,0.927c0.327,0,0.694-0.523,0.798-0.953l0.058-0.242C32.839,60.445,32.747,60.089,32.517,60.089"/>
	<path fill="#FFFFFF" d="M38.097,59.21c-0.011,0.046-0.04,0.058-0.086,0.054c0,0-0.569-0.07-0.856-0.07
		c-0.046,0-0.092,0.047-0.103,0.104l-0.299,1.328l-0.362,1.654c-0.011,0.047-0.039,0.068-0.091,0.068h-0.506
		c-0.052,0-0.068-0.021-0.057-0.068l0.374-1.654l0.287-1.328c0.012-0.057-0.017-0.104-0.058-0.104c-0.286,0-0.89,0.07-0.89,0.07
		c-0.046,0.004-0.07-0.008-0.064-0.054l0.041-0.253c0.006-0.046,0.057-0.059,0.104-0.059h2.562c0.047,0,0.092,0.013,0.081,0.059
		L38.097,59.21z"/>
	<path fill="#FFFFFF" d="M40.177,61.895c-0.029,0.145-0.023,0.385-0.023,0.385c0,0.047-0.024,0.068-0.075,0.068h-0.431
		c-0.052,0-0.063-0.021-0.058-0.068c0,0,0.006-0.258,0.041-0.401c0.063-0.282,0.217-0.799,0.287-1.099
		c0.091-0.373,0.148-0.654,0-0.654c-0.455,0-1.098,1.2-1.225,1.684c-0.04,0.139-0.097,0.426-0.12,0.535
		c0,0.006-0.017,0.047-0.052,0.041c0,0-0.304-0.049-0.424-0.074c-0.063-0.019-0.086,0-0.069-0.07l0.707-2.942
		c0.046-0.194,0.063-0.396,0.058-0.499c-0.007-0.046,0.028-0.068,0.08-0.068h0.43c0.052,0,0.075,0.022,0.075,0.068
		c-0.006,0.126-0.028,0.27-0.08,0.499l-0.299,1.271c-0.018,0.059,0.034,0.074,0.069,0.023c0.311-0.478,0.633-0.689,1.005-0.689
		c0.42,0,0.528,0.385,0.414,0.856C40.418,61.055,40.246,61.624,40.177,61.895"/>
	<path fill="#FFFFFF" d="M41.631,61.664c-0.017,0.281,0.104,0.5,0.304,0.5c0.265,0,0.511-0.161,0.702-0.379l0.041-0.053
		c0.017-0.018,0.044-0.034,0.061-0.022l0.139,0.121c0.012,0.012,0.005,0.028-0.005,0.046c-0.231,0.287-0.57,0.507-1.001,0.507
		c-0.649,0-0.971-0.495-0.799-1.235c0.155-0.651,0.741-1.26,1.39-1.26c0.558,0,0.804,0.248,0.69,0.725
		C43.05,61.055,42.47,61.503,41.631,61.664 M42.412,60.105c-0.323,0-0.57,0.402-0.719,1.041c-0.029,0.098-0.039,0.188-0.051,0.281
		c0.558-0.126,0.88-0.432,0.982-0.857C42.695,60.279,42.613,60.105,42.412,60.105"/>
	<path fill="#FFFFFF" d="M45.354,60.463c-0.012,0.023-0.04,0.046-0.069,0.046c-0.028,0-0.131-0.149-0.27-0.149
		c-0.235,0-0.655,0.604-0.861,1.468l-0.127,0.517c0,0.006-0.017,0.047-0.052,0.039l-0.448-0.08c-0.046-0.006-0.058-0.012-0.041-0.08
		l0.415-1.718c0.045-0.194,0.063-0.397,0.051-0.502c0-0.044,0.029-0.067,0.08-0.067h0.437c0.052,0,0.074,0.023,0.069,0.067
		c-0.006,0.127,0.012,0.179-0.041,0.403l-0.005,0.023c-0.012,0.038,0.029,0.057,0.051,0.021c0.058-0.08,0.075-0.142,0.127-0.205
		c0.218-0.287,0.467-0.345,0.742-0.345c0.074,0,0.137,0.021,0.16,0.062c0.018,0.029,0.023,0.063,0.006,0.099L45.354,60.463z"/>
	<path fill="#FFFFFF" d="M46.221,61.664c-0.015,0.281,0.104,0.5,0.306,0.5c0.263,0,0.512-0.161,0.7-0.379l0.041-0.053
		c0.017-0.018,0.046-0.034,0.063-0.022l0.137,0.121c0.012,0.012,0.007,0.028-0.005,0.046c-0.229,0.287-0.568,0.507-0.999,0.507
		c-0.649,0-0.972-0.495-0.799-1.235c0.154-0.651,0.741-1.26,1.391-1.26c0.558,0,0.804,0.248,0.689,0.725
		C47.641,61.055,47.061,61.503,46.221,61.664 M47.003,60.105c-0.321,0-0.567,0.402-0.718,1.041c-0.028,0.098-0.04,0.188-0.052,0.281
		c0.557-0.126,0.88-0.432,0.984-0.857C47.285,60.279,47.205,60.105,47.003,60.105"/>
	<path fill="#FFFFFF" d="M52.394,62.359c-0.021,0.033-0.188,0.052-0.235,0.052c-0.045,0-0.188-0.011-0.195-0.047l-0.299-2.166
		c-0.004-0.023-0.045-0.023-0.063,0.006l-1.264,2.155c-0.022,0.033-0.177,0.052-0.224,0.052c-0.046,0-0.202-0.011-0.207-0.048
		l-0.241-3.401c-0.005-0.044,0.017-0.062,0.069-0.062h0.563c0.052,0,0.073,0.027,0.073,0.074l0.041,2.328
		c0,0.028,0.064,0.018,0.08-0.013l1.283-2.229c0.016-0.033,0.159-0.045,0.207-0.045c0.045,0,0.184,0.012,0.188,0.045l0.258,2.226
		c0.006,0.028,0.063,0.022,0.081-0.013l1.068-2.299c0.018-0.047,0.041-0.074,0.093-0.074h0.401c0.045,0,0.045,0.053,0.018,0.104
		L52.394,62.359z"/>
	<path fill="#FFFFFF" d="M54.962,60.389l-0.351,1.447c-0.054,0.23,0.039,0.34,0.178,0.34c0.035,0,0.047,0,0.039,0.039l-0.021,0.087
		c-0.013,0.041-0.019,0.046-0.059,0.046h-0.263c-0.353,0-0.537-0.148-0.41-0.66l0.312-1.299c0.034-0.139,0.08-0.385,0.08-0.385
		c0.006-0.048,0.04-0.07,0.091-0.07h0.449c0.051,0,0.068,0.022,0.059,0.07C55.066,60.004,54.996,60.243,54.962,60.389
		 M54.869,59.303c-0.149,0-0.276-0.07-0.229-0.236c0.047-0.2,0.276-0.311,0.455-0.311c0.147,0,0.271,0.07,0.229,0.242
		C55.277,59.193,55.049,59.303,54.869,59.303"/>
	<path fill="#FFFFFF" d="M57.473,60.175c-0.012,0.034-0.046,0.052-0.074,0.052l-0.725-0.011l-0.393,1.62
		c-0.058,0.23,0.041,0.34,0.18,0.34h0.145c0.033,0,0.045,0,0.033,0.039l-0.018,0.087c-0.01,0.041-0.022,0.046-0.057,0.046h-0.408
		c-0.353,0-0.533-0.148-0.414-0.66l0.356-1.472h-0.507c-0.029,0-0.051-0.022-0.046-0.053c0.006-0.028,0.028-0.138,0.041-0.171
		c0.011-0.029,0.04-0.059,0.073-0.059h0.507l0.127-0.533c0-0.008,0.021-0.041,0.028-0.041l0.492-0.133
		c0.07-0.018,0.104-0.028,0.088,0.041l-0.156,0.666h0.726c0.028,0,0.052,0.006,0.045,0.039L57.473,60.175z"/>
	<path fill="#FFFFFF" d="M59.705,61.895c-0.026,0.145-0.021,0.385-0.021,0.385c0,0.047-0.021,0.068-0.074,0.068h-0.431
		c-0.053,0-0.063-0.021-0.058-0.068c0,0,0.005-0.258,0.039-0.401c0.063-0.282,0.22-0.799,0.287-1.099
		c0.094-0.373,0.15-0.654,0-0.654c-0.453,0-1.098,1.2-1.223,1.684c-0.042,0.139-0.1,0.426-0.122,0.535
		c0,0.006-0.018,0.047-0.051,0.041c0,0-0.308-0.049-0.427-0.074c-0.062-0.019-0.086,0-0.068-0.07l0.707-2.942
		c0.046-0.194,0.062-0.396,0.059-0.499c-0.006-0.046,0.027-0.068,0.08-0.068h0.43c0.053,0,0.076,0.022,0.076,0.068
		c-0.006,0.126-0.028,0.27-0.082,0.499l-0.299,1.271c-0.016,0.059,0.035,0.074,0.069,0.023c0.312-0.478,0.632-0.689,1.006-0.689
		c0.421,0,0.529,0.385,0.415,0.856C59.947,61.055,59.777,61.624,59.705,61.895"/>
	<path fill="#FFFFFF" d="M64.764,59.296c-0.018,0.047-0.057,0.07-0.097,0.058c-0.277-0.098-0.397-0.16-0.909-0.16
		c-0.505,0-0.9,0.492-1.107,1.442c-0.254,1.125,0.12,1.472,0.66,1.472c0.234,0,0.562-0.166,0.795-0.347
		c0.021-0.01,0.051-0.022,0.061-0.005l0.109,0.161c0.012,0.017,0.006,0.034-0.011,0.051c-0.323,0.287-0.765,0.449-1.2,0.449
		c-0.812,0-1.433-0.466-1.14-1.787c0.241-1.075,1.053-1.729,1.907-1.729h0.988c0.047,0,0.07,0.012,0.054,0.058L64.764,59.296z"/>
	<path fill="#FFFFFF" d="M66.143,59.182l-0.638,2.654c-0.052,0.23,0.041,0.34,0.178,0.34c0.034,0,0.046,0,0.04,0.039l-0.023,0.087
		c-0.01,0.041-0.017,0.046-0.057,0.046h-0.265c-0.347,0-0.534-0.148-0.407-0.66l0.604-2.506c0.033-0.144,0.026-0.386,0.026-0.386
		c0.007-0.046,0.041-0.067,0.095-0.067h0.441c0.051,0,0.062,0.021,0.057,0.067C66.195,58.796,66.182,59.025,66.143,59.182"/>
	<path fill="#FFFFFF" d="M67.072,61.664c-0.017,0.281,0.104,0.5,0.306,0.5c0.264,0,0.511-0.161,0.7-0.379l0.041-0.053
		c0.018-0.018,0.045-0.034,0.062-0.022l0.137,0.121c0.015,0.012,0.008,0.028-0.004,0.046c-0.229,0.287-0.57,0.507-1,0.507
		c-0.648,0-0.973-0.495-0.8-1.235c0.155-0.651,0.742-1.26,1.392-1.26c0.558,0,0.805,0.248,0.689,0.725
		C68.492,61.055,67.912,61.503,67.072,61.664 M67.855,60.105c-0.322,0-0.568,0.402-0.719,1.041c-0.029,0.098-0.04,0.188-0.053,0.281
		c0.558-0.126,0.88-0.432,0.984-0.857C68.137,60.279,68.057,60.105,67.855,60.105"/>
	<path fill="#FFFFFF" d="M71.09,61.882c-0.033,0.14,0.035,0.396,0.035,0.396c0.005,0.048-0.012,0.07-0.062,0.07h-0.381
		c-0.051,0-0.058-0.006-0.062-0.053c-0.039-0.207-0.018-0.32,0.035-0.447c0.012-0.035-0.022-0.052-0.045-0.018
		c-0.225,0.352-0.541,0.562-0.869,0.562c-0.506,0-0.918-0.271-0.672-1.22c0.189-0.746,0.832-1.292,1.471-1.292
		c0.562,0,0.941,0.344,0.822,0.838L71.09,61.882z M70.51,60.089c-0.327,0-0.684,0.443-0.85,1.086
		c-0.11,0.438-0.141,0.927,0.205,0.927c0.328,0,0.685-0.562,0.82-0.994l0.076-0.241C70.902,60.404,70.74,60.089,70.51,60.089"/>
	<path fill="#FFFFFF" d="M74.078,61.895c-0.033,0.145-0.022,0.385-0.022,0.385c0,0.047-0.022,0.068-0.073,0.068h-0.432
		c-0.052,0-0.062-0.021-0.059-0.068c0,0,0.007-0.258,0.039-0.401c0.064-0.282,0.22-0.799,0.289-1.099
		c0.092-0.373,0.16-0.654,0.01-0.654c-0.459,0-1.086,1.2-1.205,1.684l-0.126,0.535c0,0.006-0.019,0.047-0.054,0.041l-0.449-0.082
		c-0.043-0.006-0.055-0.011-0.038-0.08l0.407-1.718c0.047-0.194,0.069-0.396,0.059-0.5c0-0.048,0.029-0.069,0.08-0.069h0.438
		c0.053,0,0.074,0.021,0.068,0.069c-0.007,0.125-0.007,0.218-0.062,0.44l-0.029,0.121c-0.016,0.059,0.035,0.074,0.068,0.023
		c0.352-0.501,0.615-0.689,0.982-0.689c0.427,0,0.536,0.385,0.42,0.856C74.32,61.055,74.148,61.624,74.078,61.895"/>
	<path fill="#FFFFFF" d="M75.636,61.664c-0.017,0.281,0.104,0.5,0.306,0.5c0.264,0,0.51-0.161,0.7-0.379l0.041-0.053
		c0.017-0.018,0.045-0.034,0.063-0.022l0.138,0.121c0.01,0.012,0.005,0.028-0.006,0.046c-0.229,0.287-0.57,0.507-1.001,0.507
		c-0.648,0-0.971-0.495-0.799-1.235c0.154-0.651,0.742-1.26,1.391-1.26c0.559,0,0.807,0.248,0.689,0.725
		C77.056,61.055,76.476,61.503,75.636,61.664 M76.418,60.105c-0.321,0-0.569,0.402-0.719,1.041
		c-0.029,0.098-0.041,0.188-0.053,0.281c0.559-0.126,0.879-0.432,0.983-0.857C76.699,60.279,76.619,60.105,76.418,60.105"/>
	<path fill="#FFFFFF" d="M79.359,60.463c-0.011,0.023-0.039,0.046-0.068,0.046c-0.028,0-0.133-0.149-0.27-0.149
		c-0.234,0-0.656,0.604-0.863,1.468l-0.125,0.517c0,0.006-0.018,0.047-0.053,0.039l-0.447-0.08c-0.047-0.006-0.059-0.012-0.041-0.08
		l0.416-1.718c0.043-0.194,0.062-0.397,0.051-0.502c0-0.044,0.029-0.067,0.08-0.067h0.437c0.052,0,0.075,0.023,0.069,0.067
		c-0.006,0.127,0.012,0.179-0.04,0.403L78.5,60.43c-0.014,0.038,0.027,0.057,0.051,0.021c0.057-0.08,0.074-0.142,0.127-0.205
		c0.217-0.287,0.466-0.345,0.741-0.345c0.073,0,0.138,0.021,0.159,0.062c0.019,0.029,0.023,0.063,0.008,0.099L79.359,60.463z"/>
	<path fill="#FFFFFF" d="M83.55,62.348h-0.616c-0.051,0-0.08-0.021-0.086-0.068c0,0-0.033-0.245-0.059-0.393L82.722,61.4
		c-0.005-0.029-0.028-0.047-0.058-0.047h-1.075c-0.028,0-0.063,0.018-0.074,0.047l-0.481,0.885
		c-0.029,0.046-0.051,0.062-0.104,0.062h-0.403c-0.051,0-0.057-0.039-0.026-0.084l2.028-3.341c0.045-0.075,0.424-0.075,0.437,0
		l0.541,2.972c0.028,0.145,0.108,0.385,0.108,0.385C83.624,62.325,83.601,62.348,83.55,62.348 M82.486,59.779
		c-0.006-0.028-0.039-0.028-0.059,0l-0.723,1.273c-0.019,0.029-0.006,0.059,0.021,0.059h0.907c0.035,0,0.053-0.028,0.046-0.059
		L82.486,59.779z"/>
	<path fill="#FFFFFF" d="M85.13,60.389l-0.351,1.447c-0.054,0.23,0.039,0.34,0.178,0.34c0.035,0,0.046,0,0.039,0.039l-0.022,0.087
		c-0.011,0.041-0.017,0.046-0.058,0.046h-0.264c-0.351,0-0.535-0.148-0.408-0.66l0.311-1.299c0.035-0.139,0.081-0.385,0.081-0.385
		c0.005-0.048,0.04-0.07,0.091-0.07h0.447c0.054,0,0.07,0.022,0.061,0.07C85.234,60.004,85.164,60.243,85.13,60.389 M85.037,59.303
		c-0.15,0-0.275-0.07-0.23-0.236c0.046-0.2,0.276-0.311,0.456-0.311c0.147,0,0.269,0.07,0.229,0.242
		C85.447,59.193,85.215,59.303,85.037,59.303"/>
	<path fill="#FFFFFF" d="M87.496,60.463c-0.012,0.023-0.041,0.046-0.069,0.046s-0.132-0.149-0.269-0.149
		c-0.236,0-0.656,0.604-0.864,1.468l-0.125,0.517c0,0.006-0.017,0.047-0.054,0.039l-0.446-0.08c-0.046-0.006-0.058-0.012-0.04-0.08
		l0.414-1.718c0.044-0.194,0.062-0.397,0.051-0.502c0-0.044,0.029-0.067,0.081-0.067h0.437c0.053,0,0.074,0.023,0.069,0.067
		c-0.007,0.127,0.011,0.179-0.041,0.403l-0.005,0.023c-0.012,0.038,0.029,0.057,0.051,0.021c0.059-0.08,0.075-0.142,0.127-0.205
		c0.219-0.287,0.467-0.345,0.741-0.345c0.075,0,0.138,0.021,0.161,0.062c0.018,0.029,0.021,0.063,0.006,0.099L87.496,60.463z"/>
	<path fill="#6fbc2e" d="M24.354,45.648c0.637-0.135,0.819,0.011,1.178,0c0.163-0.002,0.424-0.004,0.363-0.127
		c-0.159-0.319-1.688-3.096-2.127-3.752c-0.481-0.722-1.174-1.611-2-2.486c-1.938-2.055-5.424-5.34-10.476-7.406
		c-2.526-1.034-4.95-1.652-6.759-1.98c-0.903-0.164-1.654-0.256-2.186-0.292c-0.266-0.016-0.476-0.024-0.625-0.011
		c-0.241,0.022-0.319,0.081-0.273,0.127c0.561,0.583,0.909,0.854,1.935,1.31c0.695,0.309,0,0.772-0.463,0.925
		c-0.462,0.156-0.231,0.927,1.311,0.851c0.518-0.026,0.918,0,1.311-0.155c0.386-0.151,0.912-0.057,0.548,0.26
		c0,0-0.24,0.209-0.743,0.436c-0.532,0.242-0.782,0.368-1.289,0.639c-0.657,0.352-0.222,0.727,0.169,1.011
		c0.911,0.661,3.07,0.965,4.067,0.845c0.688-0.083,1.438-0.154,1.038,0.249c-0.679,0.688-1.075,1.07-1.554,1.269
		c-1.03,0.425-1.234,0.771-0.396,1.184c1.149,0.562,2.735,0.898,4.021,0.667c1.302-0.233,2.272-0.408,0.444,0.521
		c-0.596,0.306-0.175,0.901,0.983,1.096c0.665,0.111,1.132,0.236,1.659,0.236c0.746,0,1.312,0,2.521-0.401
		c0.986-0.329,1.478-0.821,2.092-1.571c0.312-0.379,0.765-0.423,1.184-0.183c0.352,0.2,0.994,0.682,1.626,1.476
		c0.971,1.223,2.151,3.277,1.881,4.629C23.704,45.473,23.72,45.785,24.354,45.648"/>
	<path fill="#6fbc2e" d="M3.996,29.058c-0.6-0.058-1.208-0.104-1.825-0.132l0.077-0.063c0.599-0.021,1.235-0.013,1.904,0.023
		L3.996,29.058z"/>
	<path fill="#6fbc2e" d="M7.265,29.536c-0.674-0.132-1.361-0.244-2.058-0.338l0.229-0.212c0.687,0.07,1.398,0.166,2.133,0.292
		L7.265,29.536z"/>
	<path fill="#6fbc2e" d="M9.1,29.57c0.849,0.182,1.721,0.396,2.607,0.649l-0.473,0.324c-0.782-0.246-1.583-0.47-2.404-0.667
		L9.1,29.57z"/>
	<path fill="#6fbc2e" d="M13.213,30.673c1.223,0.396,2.467,0.856,3.71,1.384l-0.713,0.452c-1.114-0.537-2.202-0.993-3.425-1.439
		L13.213,30.673z"/>
	<path fill="#6fbc2e" d="M18.848,32.927c1.556,0.748,3.098,1.604,4.589,2.569l-1.24,0.557c-1.281-0.917-2.691-1.812-4.223-2.643
		L18.848,32.927z"/>
	<path fill="#6fbc2e" d="M25.764,37.123c1.16,0.877,2.271,1.83,3.32,2.854c0.524,0.513,1.053,1.111,1.564,1.738l-2.147,0.02
		c-1.058-1.236-2.47-2.649-4.204-4.072L25.764,37.123z"/>
	<path fill="#6fbc2e" d="M1.343,28.256c0,0,0.226-0.297,0.416-0.613c0.692-1.154,1.724-1.832,2.833-1.972
		c0.201-0.027,0.259-0.089,0.287-0.129c0.033-0.05,0.069-0.104,0.108-0.158c1.022-1.429,2.708-1.716,4.075-0.989
		c0.037,0.018,0.19,0.078,0.227,0.074c0.08-0.01,0.1-0.03,0.128-0.05c0.645-0.479,1.139-1.008,2.372-0.992
		c0.492,0.007,0.946,0.105,1.356,0.279c0.03,0.014,0.148,0.059,0.204,0.04c0.08-0.026,0.156-0.082,0.192-0.106
		c2.607-2.145,6.796-0.894,6.799,3.373c-0.012,0.132,0.075,0.128,0.095,0.128c2.322,0.138,3.972,1.936,3.821,4.72
		c-0.035,0.641-0.138,1.215-0.222,1.604c-0.032,0.249-0.153,0.451-0.323,0.342c-3.693-2.358-8.485-4.265-12.257-4.87
		c-4.434-0.713-5.881-0.692-7.318-0.647c-0.719,0.022-1.824,0.132-2.092,0.167c-0.323,0.041-0.634,0.093-0.682,0.079
		C1.241,28.507,1.222,28.409,1.343,28.256 M1.836,28.23c1.301-0.129,4.522-0.703,9.906,0.206c2.896,0.489,5.485,1.172,8.653,2.476
		c0.97,0.398,1.726,0.819,2.294,1.123c0.116,0.062,0.357,0.076,0.371-0.045c0.252-2.158-0.342-4.134-2.983-4.06
		c-0.099,0.007-0.204,0.02-0.312,0.046c-0.213,0.052-0.423,0.174-0.517,0.193c-0.186,0.041-0.003-0.289,0.064-0.583
		c0.017-0.072,0.031-0.146,0.044-0.219c0.015-0.111,0.03-0.231,0.03-0.349c0.018-0.369,0.004-0.761-0.061-1.09
		c-0.516-2.657-3.805-3.132-5.423-1.844c-0.008,0.007-0.032,0.023-0.034,0.037c-0.003,0.013,0.017,0.026,0.024,0.03
		c0.448,0.353,0.811,0.817,1.07,1.37c0.111,0.236,0.157,0.394,0.157,0.394c0.131,0.443-0.026,0.389-0.25,0.087
		c-0.126-0.189-1.144-1.897-3.102-1.788c-0.901,0.035-1.553,0.418-1.885,0.692c-0.008,0.008-0.028,0.027-0.031,0.042
		c-0.004,0.016,0.011,0.028,0.017,0.034c0.139,0.132,0.271,0.28,0.393,0.438c0.157,0.202,0.231,0.344,0.231,0.344
		c0.148,0.271,0.055,0.32-0.154,0.136c-0.164-0.144-1.225-1.172-2.648-1.195c-1.063-0.016-1.83,0.62-2.09,0.937
		c-0.017,0.021-0.001,0.064,0.019,0.068c0.592,0.114,1.187,0.388,1.743,0.835c0.222,0.176,0.343,0.309,0.343,0.309
		c0.135,0.145,0.078,0.178-0.071,0.142c-0.147-0.038-0.385-0.15-0.487-0.2c-2.407-1.163-4.174-0.403-5.321,1.355l-0.024,0.034
		C1.805,28.185,1.756,28.25,1.836,28.23"/>
	<path fill="#FFFFFF" d="M97.455,37.715c0.15,0,0.296,0.023,0.435,0.07c0.14,0.048,0.267,0.115,0.386,0.205
		c0.16,0.127,0.286,0.281,0.377,0.467c0.088,0.184,0.135,0.379,0.135,0.587c0,0.181-0.033,0.351-0.102,0.513
		c-0.064,0.16-0.162,0.301-0.287,0.422c-0.132,0.129-0.279,0.227-0.439,0.295c-0.162,0.066-0.33,0.103-0.504,0.103
		s-0.342-0.035-0.506-0.104c-0.162-0.068-0.309-0.168-0.434-0.295c-0.126-0.127-0.223-0.27-0.289-0.43s-0.1-0.328-0.1-0.503
		c0-0.146,0.025-0.291,0.072-0.431c0.05-0.141,0.119-0.271,0.215-0.395c0.127-0.164,0.279-0.287,0.461-0.376
		C97.053,37.758,97.246,37.715,97.455,37.715 M98.619,39.057c0-0.162-0.027-0.312-0.084-0.455c-0.059-0.141-0.142-0.267-0.252-0.377
		c-0.107-0.107-0.233-0.19-0.377-0.248c-0.145-0.059-0.295-0.088-0.451-0.088c-0.157,0-0.305,0.027-0.445,0.086
		c-0.139,0.055-0.262,0.137-0.367,0.243c-0.111,0.11-0.197,0.238-0.258,0.382c-0.062,0.144-0.092,0.291-0.092,0.444
		c0,0.151,0.029,0.299,0.088,0.438c0.061,0.141,0.143,0.265,0.251,0.371c0.108,0.107,0.235,0.192,0.378,0.254
		c0.143,0.061,0.287,0.091,0.436,0.091c0.158,0,0.311-0.029,0.453-0.089c0.146-0.058,0.273-0.143,0.387-0.25
		c0.107-0.106,0.189-0.229,0.248-0.366C98.591,39.354,98.619,39.207,98.619,39.057 M97.773,39.084l0.342,0.688h-0.322l-0.309-0.643
		h-0.279v0.643h-0.283v-1.506h0.566c0.211,0,0.369,0.034,0.476,0.104c0.104,0.067,0.159,0.172,0.159,0.31
		c0,0.105-0.032,0.194-0.092,0.269C97.969,39.02,97.883,39.064,97.773,39.084 M97.445,38.949c0.138,0,0.237-0.02,0.297-0.059
		c0.06-0.037,0.088-0.099,0.088-0.183c0-0.091-0.029-0.156-0.094-0.196c-0.062-0.043-0.16-0.063-0.297-0.063h-0.234v0.501H97.445z"
		/>
</g>
</svg>
