<?xml version="1.0" encoding="utf-8"?>
<!-- Generator: Adobe Illustrator 16.0.0, SVG Export Plug-In . SVG Version: 6.00 Build 0)  -->
<!DOCTYPE svg PUBLIC "-//W3C//DTD SVG 1.1//EN" "http://www.w3.org/Graphics/SVG/1.1/DTD/svg11.dtd">
<svg version="1.1" id="Layer_1" xmlns="http://www.w3.org/2000/svg" xmlns:xlink="http://www.w3.org/1999/xlink" x="0px" y="0px"
	 width="50px" height="65px" viewBox="0 0 50 65" enable-background="new 0 0 50 65" xml:space="preserve">
<g>
	<path fill="#FFFFFF" d="M22.723,45.923c0.461-2.028,1.198-6.816,1.198-6.816h-0.553c0,0-0.276,0.829-0.46,1.197
		c-0.091,0.278-0.645,1.476-3.315,1.476h-1.381l6.907-11.881l6.908,11.881h-1.844c-1.104,0-2.578-0.279-3.131-1.844
		c-0.185-0.645-0.277-0.829-0.277-0.829h-0.552l1.104,6.538c0,0,0.368,2.487,2.947,2.487h11.973L25.118,18.386L7.896,48.132h11.788
		C19.684,48.132,22.171,48.225,22.723,45.923z"/>
	<path fill="#FFFFFF" d="M26.996,60.152c-0.156-0.031-0.341-0.031-0.403-0.095c-0.062-0.092-0.123-0.184-0.123-0.4
		c0-0.186,0.031-0.897,0.031-1.33c0-0.432,0.062-1.144-0.218-1.545c-0.246-0.31-0.587-0.465-1.174-0.497
		c-0.093,0-0.186,0.032-0.278,0.062c-0.31,0.125-0.711,0.401-0.928,0.526c-0.093,0.03-0.124,0.093-0.124-0.092
		c-0.031-0.807,0-1.548,0-2.012c0-0.247,0-0.401,0.031-0.649c0.031-0.094,0.031-0.094,0-0.124c-0.062,0-0.093-0.03-0.125-0.03
		c-0.03-0.031-0.03-0.031-0.092,0c-0.248,0.154-0.557,0.34-1.021,0.494c-0.061,0.03-0.031,0.03-0.031,0.062v0.154
		c0,0.062,0,0.062,0.062,0.062c0.093,0,0.279,0,0.37,0.123c0.064,0.092,0.094,0.185,0.094,0.464c0,2.443,0,4.33-0.03,4.454
		c-0.004,0.082-0.037,0.156-0.093,0.217c-0.062,0.123-0.31,0.123-0.465,0.123c-0.062,0-0.062,0.031-0.062,0.062v0.217
		c0,0.031,0,0.031,0.062,0.031c0.31-0.031,0.558-0.063,0.929-0.063c0.34,0.032,0.556,0.032,0.896,0.063c0.062,0,0.093,0,0.093-0.031
		v-0.217c0-0.062,0-0.062-0.062-0.062c-0.124,0-0.34,0-0.433-0.093c-0.031,0-0.124-0.093-0.155-0.247c0-1.33,0-2.071,0.031-2.351
		c0-0.092,0-0.092,0.061-0.154c0.094-0.093,0.31-0.247,0.495-0.34c0.031-0.032,0.681-0.342,1.145,0.03
		c0.339,0.277,0.309,0.648,0.309,0.929c0,1.082-0.031,1.762-0.031,1.762s0,0.278-0.093,0.371c-0.093,0.062-0.372,0.093-0.464,0.093
		c-0.061,0-0.061,0-0.061,0.062v0.185c0,0.063,0,0.063,0.061,0.032h0.897c0.278-0.032,0.588,0,0.866,0.031
		c0.092,0,0.092,0,0.092-0.031v-0.184C27.057,60.152,27.057,60.152,26.996,60.152z"/>
	<path fill="#FFFFFF" d="M22.017,56.315c-0.619-0.03-1.051,0.651-1.145,0.807c0,0,0,0.029-0.031,0v-0.805
		c0-0.032,0-0.032-0.031-0.032c-0.031-0.029-0.062-0.029-0.062-0.061c-0.031,0-0.031,0-0.062,0.031
		c-0.309,0.184-0.649,0.339-1.021,0.493c-0.062,0-0.062,0.033-0.062,0.063v0.154c0,0.031,0.031,0.031,0.062,0.031
		c0.124,0.031,0.34,0,0.402,0.155c0.062,0.123,0.092,0.462,0.092,0.617v2.041c0,0.124-0.03,0.187-0.123,0.246
		c-0.124,0.095-0.372,0.095-0.464,0.095l-0.031,0.03c-0.031,0.093-0.031,0.185,0,0.248c0,0.031,0,0.031,0.031,0.031
		c0.125-0.031,0.495-0.062,1.021-0.062c0.526,0,0.773,0.031,0.866,0.031h0.062v-0.248c0-0.03-0.031-0.03-0.031-0.03
		c-0.093,0-0.279,0-0.371-0.031c-0.062-0.03-0.248-0.063-0.248-0.34v-1.856c0-0.371,0.093-0.557,0.155-0.648
		c0.279-0.342,0.65-0.279,1.052-0.188c0.216,0.062,0.34-0.369,0.31-0.557C22.388,56.378,22.141,56.315,22.017,56.315z"/>
	<path fill="#FFFFFF" d="M18.244,59.903c-0.588,0.032-1.083-0.215-1.423-0.741c-0.247-0.371-0.278-1.145-0.216-1.237
		c0.031-0.029,0.34-0.029,0.711-0.029h0.093h1.454c0,0,0.216,0.029,0.279-0.248c0.061-0.342-0.062-1.362-1.3-1.362
		c-1.298,0-1.762,1.115-1.855,1.64c-0.062,0.31-0.216,1.518,0.681,2.226c1.113,0.836,2.289-0.029,2.536-0.339l-0.155-0.218
		C19.048,59.594,18.646,59.903,18.244,59.903z M16.759,57.337c0.124-0.308,0.494-0.71,1.02-0.71c0.433,0,0.681,0.277,0.681,0.617
		c0.031,0.31-0.186,0.31-0.186,0.31h-0.959h-0.495C16.667,57.554,16.667,57.554,16.759,57.337z"/>
	<path fill="#FFFFFF" d="M10.543,59.903c-0.557,0.032-1.052-0.215-1.392-0.741c-0.278-0.371-0.278-1.145-0.216-1.237
		c0.031-0.029,0.309-0.029,0.711-0.029h0.093h1.454c0,0,0.217,0.029,0.278-0.248c0.062-0.342-0.092-1.362-1.33-1.362
		c-1.268,0-1.732,1.115-1.825,1.64c-0.062,0.31-0.216,1.518,0.681,2.226c1.113,0.836,2.288-0.029,2.536-0.339l-0.154-0.218
		C11.379,59.594,10.977,59.903,10.543,59.903z M9.089,57.337c0.124-0.308,0.495-0.71,1.021-0.71c0.402,0,0.681,0.277,0.681,0.617
		c0.031,0.31-0.187,0.31-0.187,0.31H9.646H9.12C8.997,57.554,8.997,57.554,9.089,57.337z"/>
	<path fill="#FFFFFF" d="M15.986,56.565c0.031-0.062,0-0.155,0-0.218c0-0.032,0-0.032-0.03-0.032c-0.464,0.032-1.237,0.062-1.546,0
		c-0.093,0-0.093,0-0.093,0.032c0,0.062-0.03,0.185-0.03,0.218c0.03,0.062,0.03,0.029,0.062,0.062c0.092,0,0.247,0,0.34,0.093
		c0.074,0.047,0.12,0.127,0.124,0.217c-0.001,0.091-0.094,0.4-0.249,0.771c-0.186,0.526-0.34,0.99-0.588,1.609
		c-0.031,0.092-0.031,0.092-0.092,0c-0.403-1.023-0.526-1.362-0.866-2.259c-0.062-0.154-0.062-0.246,0.031-0.339
		c0.062-0.062,0.155-0.095,0.372-0.125c0.031,0,0.031,0,0.061-0.029c0-0.033,0-0.126-0.03-0.188c0-0.062,0-0.062-0.031-0.062
		c-0.587,0.032-1.176,0.032-1.764,0c-0.031,0-0.031,0-0.061,0.032c0,0.062,0,0.185,0.03,0.218c0,0.029,0,0.029,0.031,0.029
		c0.031,0,0.279,0.03,0.34,0.093c0.093,0.062,0.155,0.125,0.217,0.279c0.216,0.464,1.175,2.937,1.33,3.309
		c0,0.03,0,0.062-0.031,0.155c0,0.062-0.216,0.493-0.247,0.588c-0.124,0.217-0.278,0.432-0.463,0.494
		c-0.125,0.062-0.31,0.062-0.464,0.092c-0.124,0.031-0.248,0.125-0.278,0.31c-0.062,0.154,0,0.31,0.093,0.372
		c0.062,0.061,0.186,0.123,0.371,0.092c0.185,0,0.463-0.092,0.712-0.525c0.37-0.587,0.618-1.238,0.835-1.764
		c0.401-0.959,0.927-2.474,1.174-2.967c0-0.033,0.062-0.218,0.217-0.342c0.155-0.123,0.278-0.153,0.463-0.186
		C15.986,56.595,15.986,56.595,15.986,56.565z"/>
	<path fill="#FFFFFF" d="M46.386,60.462c0.094-0.031,0.495-0.062,0.99-0.062c0.525,0,0.804,0.031,0.896,0.031h0.031
		c0.03-0.063,0-0.155,0-0.248c0-0.03,0-0.03-0.031-0.03c-0.093,0-0.278,0-0.371-0.031c-0.062-0.03-0.216-0.063-0.216-0.34
		c-0.032-0.773-0.032-1.671-0.032-1.856c0.032-0.371,0.094-0.557,0.187-0.648c0.248-0.342,0.65-0.279,1.021-0.188
		c0.216,0.062,0.339-0.369,0.339-0.557c-0.029-0.154-0.247-0.217-0.37-0.217c-0.65-0.03-1.052,0.651-1.145,0.807
		c-0.031,0-0.031,0.029-0.032,0c0-0.093-0.029-0.774-0.029-0.805v-0.032c-0.031-0.029-0.062-0.029-0.093-0.061
		c-0.032,0-0.032,0-0.062,0.031c-0.31,0.184-0.649,0.339-1.02,0.493c-0.063,0-0.032,0.033-0.032,0.063v0.154
		c0,0.031,0,0.031,0.032,0.031c0.153,0.031,0.338,0,0.432,0.155c0.031,0.123,0.093,0.462,0.093,0.617v2.041
		c0,0.124-0.062,0.187-0.123,0.246c-0.155,0.095-0.401,0.095-0.495,0.095l-0.03,0.03v0.248
		C46.325,60.462,46.355,60.462,46.386,60.462z"/>
	<path fill="#FFFFFF" d="M43.48,60.15c1.081,0.836,2.288-0.029,2.505-0.339l-0.155-0.218c0,0-0.371,0.31-0.805,0.31
		c-0.557,0.032-1.083-0.215-1.422-0.741c-0.248-0.371-0.248-1.145-0.187-1.237c0-0.029,0.31-0.029,0.681-0.029h0.093h1.485
		c0,0,0.216,0.029,0.279-0.248c0.062-0.342-0.093-1.362-1.331-1.362c-1.298,0-1.763,1.115-1.854,1.64
		C42.737,58.234,42.583,59.442,43.48,60.15z M43.542,57.337c0.155-0.308,0.525-0.71,1.021-0.71c0.432,0,0.68,0.277,0.71,0.617
		c0,0.31-0.216,0.31-0.216,0.31h-0.96h-0.494C43.449,57.554,43.48,57.554,43.542,57.337z"/>
	<path fill="#FFFFFF" d="M1.233,54.924c0.186,0.124,0.34,0.526,0.463,0.805c0.99,2.382,1.485,3.681,1.918,4.702
		c0.031,0.091,0.031,0.062,0.093,0.062c0.062,0,0.062,0.029,0.062-0.062c0.525-1.206,0.866-1.92,1.144-2.444
		c0.062-0.094,0.031-0.094,0.093,0c0.248,0.558,0.804,1.825,1.083,2.474c0.031,0.062,0.031,0.032,0.093,0.032s0.062,0,0.093-0.032
		c0.989-2.505,1.825-4.329,2.227-5.195c0.124-0.279,0.248-0.434,0.68-0.496c0,0,0.031,0,0.031-0.03v-0.247c0-0.03,0-0.03-0.031-0.03
		c-0.03,0-0.649,0.03-0.866,0.03s-0.557-0.03-0.866-0.03c-0.031,0-0.031,0-0.031,0.03v0.277H7.45
		c0.155,0.032,0.279,0.064,0.371,0.095c0.093,0.062,0.186,0.217,0.093,0.494c-0.093,0.247-0.525,1.362-0.866,2.134
		c-0.229,0.556-0.476,1.102-0.742,1.639c-0.322-0.705-0.632-1.415-0.928-2.133c0.186-0.526,0.618-1.485,0.897-1.979
		c0.092-0.126,0.247-0.248,0.557-0.218c0.03,0,0.03,0,0.03-0.03v-0.279c0,0,0.032-0.03,0-0.03c-0.278,0.03-0.433,0.03-0.649,0.03
		c-0.216,0-0.865-0.03-0.896-0.03v0.03c-0.032,0.062-0.032,0.154,0,0.279c0,0.03-0.032,0.03,0,0.03c0.309,0,0.401,0.185,0.371,0.309
		C5.533,55.574,5.13,56.41,5.13,56.41s-0.34-0.682-0.556-1.27c-0.031-0.093-0.031-0.155,0.031-0.215
		c0.062-0.095,0.216-0.125,0.309-0.125c0.031,0,0.031,0,0.031-0.032v-0.277H4.047c-0.216,0-0.619,0-0.866-0.03
		c-0.031,0-0.062,0-0.062,0.03v0.277c0,0.032,0,0.032,0.032,0.032c0.154,0,0.402,0.092,0.525,0.279
		c0.403,0.771,0.649,1.482,1.051,2.257c-0.247,0.556-0.525,1.267-0.804,1.793c-0.187-0.339-1.052-2.567-1.578-3.896
		c-0.031-0.124-0.031-0.248,0.031-0.31c0.062-0.093,0.216-0.123,0.34-0.123c0.031,0,0.031,0,0.031-0.032v-0.277
		c0,0,0-0.031-0.031-0.031c-0.217,0.031-0.649,0.031-1.021,0.031c-0.216,0-0.618,0-0.835-0.031c-0.03,0-0.03,0-0.03,0.031
		C0.8,54.554,0.8,54.646,0.8,54.769h0.031C1.047,54.801,1.171,54.863,1.233,54.924z"/>
	<path fill="#FFFFFF" d="M39.15,59.998c0-0.032-0.032,0-0.247-0.032c-0.187,0-0.342-0.125-0.342-0.464c0-0.649-0.029-1.731,0-2.443
		c0-0.493,0.032-0.773,0.032-0.773c0-0.029-0.309,0.03-0.649,0.062c-0.31,0.03-0.773,0.03-0.773,0.03
		c-0.03,0.029-0.03,0.279,0,0.279c0,0.03,0.278,0.03,0.37,0.03c0.218,0.029,0.341,0.122,0.341,0.494
		c0,0.619-0.031,2.258-0.031,2.258s-0.556,0.496-1.02,0.464c-0.496,0-0.866-0.155-0.897-1.175c0-1.021,0.031-2.443,0-2.443
		c-0.031-0.032-0.31,0.03-0.619,0.062c-0.278,0-0.619,0-0.619,0.03c-0.03,0.029-0.03,0.276,0,0.276c0,0.033,0.094,0.033,0.186,0.033
		c0.186,0,0.34,0.093,0.34,0.432c0,0.618,0.063,2.226,0.063,2.226s0,0.496,0.246,0.773c0.279,0.31,0.867,0.589,1.671,0.154
		c0.433-0.246,0.649-0.493,0.649-0.461c0.031,0,0,0.434-0.03,0.556l0,0c-0.032,0,0.093,0.125,0.124,0.125
		c0,0,0.218-0.062,0.525-0.154c0.341-0.062,0.681-0.062,0.681-0.093C39.181,60.245,39.181,59.998,39.15,59.998z"/>
	<path fill="#FFFFFF" d="M41.13,58.047c-0.187-0.122-0.433-0.276-0.619-0.464c-0.277-0.307-0.247-0.679,0-0.896
		c0.246-0.185,0.587-0.217,0.866,0.032c0.31,0.247,0.31,0.524,0.34,0.557c0,0,0.187-0.032,0.217-0.032
		c0-0.031-0.093-0.773-0.093-0.805c0-0.029-0.31-0.154-0.618-0.184c-0.31-0.032-0.712-0.063-1.145,0.247
		c-0.34,0.246-0.464,0.71-0.34,1.145c0.062,0.308,0.277,0.524,0.495,0.709c0.464,0.403,1.298,0.651,1.205,1.268
		c-0.092,0.526-0.866,0.714-1.269,0.342c-0.278-0.279-0.309-0.711-0.34-0.741c-0.03,0-0.247,0-0.247,0.03
		c-0.031,0.029,0.094,0.958,0.124,0.99c0.031,0.03,0.897,0.432,1.64,0.122c0.524-0.217,0.804-0.679,0.741-1.237
		C42.026,58.574,41.5,58.296,41.13,58.047z"/>
	<path fill="#FFFFFF" d="M33.459,59.903c-0.557,0.032-1.083-0.215-1.422-0.741c-0.248-0.371-0.248-1.145-0.186-1.237
		c0-0.029,0.309-0.029,0.68-0.029h0.094h1.484c0,0,0.216,0.029,0.28-0.248c0.061-0.342-0.094-1.362-1.331-1.362
		c-1.299,0-1.763,1.115-1.855,1.64c-0.032,0.31-0.187,1.518,0.711,2.226c1.081,0.836,2.289-0.029,2.505-0.339l-0.155-0.218
		C34.264,59.594,33.893,59.903,33.459,59.903z M31.976,57.337c0.154-0.308,0.524-0.71,1.02-0.71c0.434,0,0.681,0.277,0.711,0.617
		c0,0.31-0.217,0.31-0.217,0.31h-0.958l0,0h-0.495C31.882,57.554,31.912,57.554,31.976,57.337z"/>
	<path fill="#FFFFFF" d="M30.459,60.089c0,0-0.217-0.061-0.217-0.432c0-0.155,0.031-0.373,0.031-0.649h0.001v-0.062
		c0-0.464,0.031-1.05,0.031-1.547c0-0.371-0.124-0.741-0.34-0.896c-0.341-0.247-0.681-0.279-0.896-0.218
		c-0.125,0.03-0.93,0.527-1.238,0.742l-0.123,0.124c-0.031,0.093-0.062,0.154-0.124,0.31c-0.031,0.154,0.03,0.187,0.155,0.154
		c0.03,0,0.247-0.062,0.309-0.093c0.062-0.031,0.124-0.092,0.124-0.154s0.03-0.217,0.062-0.279c0.061-0.092,0.401-0.309,0.65-0.369
		c0.276-0.062,0.648,0.122,0.711,0.679c0.029,0.372,0.029,0.743,0,0.806c-0.062,0.061-1.484,0.432-1.856,0.711
		c-0.247,0.215-0.31,0.462-0.31,0.649c0,0.401,0.217,0.957,0.959,0.957c0.618,0,1.145-0.586,1.176-0.586
		c0.061,0.03,0.03,0.34,0.217,0.462c0.185,0.155,0.525,0.217,1.206-0.276l-0.125-0.186C30.861,59.936,30.677,60.121,30.459,60.089z
		 M29.594,59.008c0,0.276-0.031,0.557-0.031,0.557c-0.031,0.093-0.34,0.339-0.619,0.432c-0.247,0.062-0.586,0.032-0.71-0.248
		c-0.123-0.371,0-0.586,0.185-0.773c0.125-0.091,0.525-0.246,0.682-0.309c0.341-0.122,0.463-0.152,0.463-0.152
		c0.031,0,0.031,0.215,0.031,0.432V59.008z"/>
</g>
</svg>
